G04*
G04 #@! TF.GenerationSoftware,Altium Limited,Altium Designer,23.9.2 (47)*
G04*
G04 Layer_Color=32768*
%FSLAX44Y44*%
%MOMM*%
G71*
G04*
G04 #@! TF.SameCoordinates,62824387-D865-4AF8-97CC-6DA101F7C082*
G04*
G04*
G04 #@! TF.FilePolarity,Positive*
G04*
G01*
G75*
%ADD14C,0.2540*%
%ADD81C,0.1000*%
%ADD82C,0.3000*%
%ADD83C,0.0500*%
%ADD84C,0.0500*%
D14*
X-790033Y344170D02*
X-777333D01*
X-783683Y337820D02*
Y350520D01*
X-824323Y426720D02*
X-726533D01*
X-824323Y261620D02*
X-726533D01*
Y426720D01*
X-824323Y261620D02*
Y426720D01*
D81*
X-258064Y436086D02*
Y445586D01*
X-262814Y440836D02*
X-253314D01*
X-514382Y315214D02*
X-504882D01*
X-509632Y310464D02*
Y319964D01*
X-521460Y340684D02*
Y356184D01*
X-492460D01*
Y340684D02*
Y356184D01*
X-521460Y340684D02*
X-492460D01*
X-521460Y350184D02*
X-511960Y340684D01*
X-297690Y413004D02*
X-288190D01*
X-292940Y408254D02*
Y417754D01*
X-17020Y272288D02*
X-7520D01*
X-12270Y267538D02*
Y277038D01*
X-350471Y278460D02*
Y287960D01*
X-355221Y283210D02*
X-345722D01*
X-350471Y298780D02*
Y308280D01*
X-355221Y303530D02*
X-345722D01*
X-282450Y413004D02*
X-272950D01*
X-277700Y408254D02*
Y417754D01*
X-32260Y272288D02*
X-22760D01*
X-27510Y267538D02*
Y277038D01*
X-64340Y238074D02*
Y247574D01*
X-69090Y242824D02*
X-59590D01*
X-282450Y440944D02*
X-272950D01*
X-277700Y436194D02*
Y445694D01*
X-47500Y272288D02*
X-38000D01*
X-42750Y267538D02*
Y277038D01*
X-840833Y316560D02*
Y326060D01*
X-845583Y321310D02*
X-836083D01*
X-840833Y362280D02*
Y371780D01*
X-845583Y367030D02*
X-836083D01*
X-840833Y347040D02*
Y356540D01*
X-845583Y351790D02*
X-836083D01*
X-840833Y286080D02*
Y295580D01*
X-845583Y290830D02*
X-836083D01*
X-840833Y377520D02*
Y387020D01*
X-845583Y382270D02*
X-836083D01*
X-840833Y270840D02*
Y280340D01*
X-845583Y275590D02*
X-836083D01*
X-840833Y408000D02*
Y417500D01*
X-845583Y412750D02*
X-836083D01*
X-840833Y392760D02*
Y402260D01*
X-845583Y397510D02*
X-836083D01*
X-840833Y331800D02*
Y341300D01*
X-845583Y336550D02*
X-836083D01*
X-840833Y301320D02*
Y310820D01*
X-845583Y306070D02*
X-836083D01*
X-609170Y262204D02*
Y271704D01*
X-613920Y266954D02*
X-604420D01*
X-609170Y282524D02*
Y292024D01*
X-613920Y287274D02*
X-604420D01*
X-592330Y318916D02*
X-582830D01*
X-587580Y314166D02*
Y323666D01*
X-593676Y246964D02*
Y256464D01*
X-598426Y251714D02*
X-588926D01*
X-514949Y465874D02*
X-505449D01*
X-510200Y461124D02*
Y470624D01*
X-394549Y465874D02*
X-385050D01*
X-389799Y461124D02*
Y470624D01*
X-47500Y313074D02*
X-38000D01*
X-42750Y308324D02*
Y317824D01*
X-32260Y299974D02*
X-22760D01*
X-27510Y295224D02*
Y304724D01*
Y206324D02*
Y215824D01*
X-32260Y211074D02*
X-22760D01*
X-367940Y419354D02*
X-358440D01*
X-363190Y414604D02*
Y424104D01*
X-303100Y348964D02*
Y358464D01*
X-307850Y353714D02*
X-298350D01*
X-327262Y268224D02*
X-317762D01*
X-322512Y263474D02*
Y272974D01*
X-638380Y239744D02*
Y249244D01*
X-643130Y244494D02*
X-633630D01*
X-514460Y381254D02*
X-504960D01*
X-509710Y376504D02*
Y386004D01*
X-477090Y403174D02*
Y412674D01*
X-481840Y407924D02*
X-472340D01*
X-570486Y251714D02*
X-560986D01*
X-565736Y246964D02*
Y256464D01*
X-570740Y312547D02*
X-561240D01*
X-565990Y307797D02*
Y317297D01*
X-613920Y302514D02*
X-604420D01*
X-609170Y297764D02*
Y307264D01*
D82*
X-419599Y470763D02*
G03*
X-419599Y470763I-1501J0D01*
G01*
X-477399D02*
G03*
X-477399Y470763I-1501J0D01*
G01*
D83*
X-265684Y454806D02*
X-250444D01*
X-265684Y426866D02*
X-250444D01*
Y454806D01*
X-265684Y426866D02*
Y454806D01*
X-495662Y307594D02*
Y322834D01*
X-523602Y307594D02*
Y322834D01*
Y307594D02*
X-495662D01*
X-523602Y322834D02*
X-495662D01*
X-300560Y399034D02*
X-285320D01*
X-300560Y426974D02*
X-285320D01*
X-300560Y399034D02*
Y426974D01*
X-285320Y399034D02*
Y426974D01*
X-19890Y258318D02*
X-4650D01*
X-19890Y286258D02*
X-4650D01*
X-19890Y258318D02*
Y286258D01*
X-4650Y258318D02*
Y286258D01*
X-364441Y275590D02*
Y290830D01*
X-336502Y275590D02*
Y290830D01*
X-364441D02*
X-336502D01*
X-364441Y275590D02*
X-336502D01*
X-364441Y295910D02*
Y311150D01*
X-336502Y295910D02*
Y311150D01*
X-364441D02*
X-336502D01*
X-364441Y295910D02*
X-336502D01*
X-285320Y426974D02*
X-270080D01*
X-285320Y399034D02*
X-270080D01*
Y426974D01*
X-285320Y399034D02*
Y426974D01*
X-35130Y286258D02*
X-19890D01*
X-35130Y258318D02*
X-19890D01*
Y286258D01*
X-35130Y258318D02*
Y286258D01*
X-78310Y235204D02*
Y250444D01*
X-50370Y235204D02*
Y250444D01*
X-78310D02*
X-50370D01*
X-78310Y235204D02*
X-50370D01*
X-285320Y454914D02*
X-270080D01*
X-285320Y426974D02*
X-270080D01*
Y454914D01*
X-285320Y426974D02*
Y454914D01*
X-50370Y258318D02*
X-35130D01*
X-50370Y286258D02*
X-35130D01*
X-50370Y258318D02*
Y286258D01*
X-35130Y258318D02*
Y286258D01*
X-826863Y313690D02*
Y328930D01*
X-854803Y313690D02*
Y328930D01*
Y313690D02*
X-826863D01*
X-854803Y328930D02*
X-826863D01*
Y359410D02*
Y374650D01*
X-854803Y359410D02*
Y374650D01*
Y359410D02*
X-826863D01*
X-854803Y374650D02*
X-826863D01*
Y344170D02*
Y359410D01*
X-854803Y344170D02*
Y359410D01*
Y344170D02*
X-826863D01*
X-854803Y359410D02*
X-826863D01*
Y283210D02*
Y298450D01*
X-854803Y283210D02*
Y298450D01*
Y283210D02*
X-826863D01*
X-854803Y298450D02*
X-826863D01*
Y374650D02*
Y389890D01*
X-854803Y374650D02*
Y389890D01*
Y374650D02*
X-826863D01*
X-854803Y389890D02*
X-826863D01*
Y267970D02*
Y283210D01*
X-854803Y267970D02*
Y283210D01*
Y267970D02*
X-826863D01*
X-854803Y283210D02*
X-826863D01*
Y405130D02*
Y420370D01*
X-854803Y405130D02*
Y420370D01*
Y405130D02*
X-826863D01*
X-854803Y420370D02*
X-826863D01*
Y389890D02*
Y405130D01*
X-854803Y389890D02*
Y405130D01*
Y389890D02*
X-826863D01*
X-854803Y405130D02*
X-826863D01*
Y328930D02*
Y344170D01*
X-854803Y328930D02*
Y344170D01*
Y328930D02*
X-826863D01*
X-854803Y344170D02*
X-826863D01*
Y298450D02*
Y313690D01*
X-854803Y298450D02*
Y313690D01*
Y298450D02*
X-826863D01*
X-854803Y313690D02*
X-826863D01*
X-623140Y259334D02*
Y274574D01*
X-595200Y259334D02*
Y274574D01*
X-623140D02*
X-595200D01*
X-623140Y259334D02*
X-595200D01*
X-623140Y279654D02*
Y294894D01*
X-595200Y279654D02*
Y294894D01*
X-623140D02*
X-595200D01*
X-623140Y279654D02*
X-595200D01*
Y332886D02*
X-579960D01*
X-595200Y304946D02*
X-579960D01*
Y332886D01*
X-595200Y304946D02*
Y332886D01*
X-607646Y244094D02*
Y259334D01*
X-579706Y244094D02*
Y259334D01*
X-607646D02*
X-579706D01*
X-607646Y244094D02*
X-579706D01*
X-517820Y451904D02*
X-502579D01*
X-517820Y479844D02*
X-502579D01*
X-517820Y451904D02*
Y479844D01*
X-502579Y451904D02*
Y479844D01*
X-397420Y451904D02*
X-382179D01*
X-397420Y479844D02*
X-382179D01*
X-397420Y451904D02*
Y479844D01*
X-382179Y451904D02*
Y479844D01*
X-50370Y299104D02*
X-35130D01*
X-50370Y327044D02*
X-35130D01*
X-50370Y299104D02*
Y327044D01*
X-35130Y299104D02*
Y327044D01*
Y286004D02*
X-19890D01*
X-35130Y313944D02*
X-19890D01*
X-35130Y286004D02*
Y313944D01*
X-19890Y286004D02*
Y313944D01*
X-34876Y224790D02*
X-20144D01*
X-34876Y197358D02*
X-20144D01*
Y224790D01*
X-34876Y197358D02*
Y224790D01*
X-377160Y411734D02*
Y426974D01*
X-349220Y411734D02*
Y426974D01*
X-377160D02*
X-349220D01*
X-377160Y411734D02*
X-349220D01*
X-310720Y367684D02*
X-295480D01*
X-310720Y339744D02*
X-295480D01*
Y367684D01*
X-310720Y339744D02*
Y367684D01*
X-308542Y260604D02*
Y275844D01*
X-336482Y260604D02*
Y275844D01*
Y260604D02*
X-308542D01*
X-336482Y275844D02*
X-308542D01*
X-646000Y258464D02*
X-630760D01*
X-646000Y230524D02*
X-630760D01*
Y258464D01*
X-646000Y230524D02*
Y258464D01*
X-495740Y373634D02*
Y388874D01*
X-523680Y373634D02*
Y388874D01*
Y373634D02*
X-495740D01*
X-523680Y388874D02*
X-495740D01*
X-484710Y393954D02*
X-469470D01*
X-484710Y421894D02*
X-469470D01*
X-484710Y393954D02*
Y421894D01*
X-469470Y393954D02*
Y421894D01*
X-551766Y244094D02*
Y259334D01*
X-579706Y244094D02*
Y259334D01*
Y244094D02*
X-551766D01*
X-579706Y259334D02*
X-551766D01*
X-552020Y304927D02*
Y320167D01*
X-579960Y304927D02*
Y320167D01*
Y304927D02*
X-552020D01*
X-579960Y320167D02*
X-552020D01*
X-623140Y294894D02*
Y310134D01*
X-595200Y294894D02*
Y310134D01*
X-623140D02*
X-595200D01*
X-623140Y294894D02*
X-595200D01*
D84*
X-415290Y411014D02*
X-310290D01*
X-415290Y337914D02*
Y411014D01*
Y337914D02*
X-310290D01*
Y411014D01*
X-242500Y523424D02*
X-57500D01*
Y453024D02*
Y523424D01*
Y453024D02*
X-52500D01*
Y258424D02*
Y453024D01*
X-247500Y258424D02*
X-52500D01*
X-247500D02*
Y453024D01*
X-242500D01*
Y523424D01*
X-649820Y224744D02*
Y250744D01*
X-682820D02*
X-649820D01*
X-682820Y224744D02*
Y250744D01*
Y224744D02*
X-649820D01*
X-593400Y303962D02*
X-551100D01*
X-593400Y261662D02*
X-551100D01*
X-593400D02*
Y303962D01*
X-551100Y261662D02*
Y303962D01*
X-364492Y275870D02*
Y310870D01*
X-402491D02*
X-364492D01*
X-402491Y275870D02*
Y310870D01*
Y275870D02*
X-364492D01*
X-336451D02*
Y310870D01*
Y275870D02*
X-298451D01*
Y310870D01*
X-336451D02*
X-298451D01*
X-399250Y451863D02*
Y536063D01*
X-500750D02*
X-399250D01*
X-500750Y451863D02*
Y536063D01*
Y451863D02*
X-399250D01*
X-467280Y394444D02*
Y436644D01*
X-433030D01*
Y394444D02*
Y436644D01*
X-467280Y394444D02*
X-433030D01*
X-841000Y225364D02*
X-59000D01*
Y11364D02*
Y225364D01*
X-841000Y11364D02*
X-59000D01*
X-841000D02*
Y225364D01*
M02*
