G04*
G04 #@! TF.GenerationSoftware,Altium Limited,Altium Designer,23.9.2 (47)*
G04*
G04 Layer_Physical_Order=1*
G04 Layer_Color=255*
%FSLAX44Y44*%
%MOMM*%
G71*
G04*
G04 #@! TF.SameCoordinates,62824387-D865-4AF8-97CC-6DA101F7C082*
G04*
G04*
G04 #@! TF.FilePolarity,Positive*
G04*
G01*
G75*
%ADD14C,0.2540*%
%ADD16R,1.0000X0.9000*%
%ADD17R,0.9000X1.0000*%
G04:AMPARAMS|DCode=18|XSize=1.31mm|YSize=0.62mm|CornerRadius=0.0775mm|HoleSize=0mm|Usage=FLASHONLY|Rotation=270.000|XOffset=0mm|YOffset=0mm|HoleType=Round|Shape=RoundedRectangle|*
%AMROUNDEDRECTD18*
21,1,1.3100,0.4650,0,0,270.0*
21,1,1.1550,0.6200,0,0,270.0*
1,1,0.1550,-0.2325,-0.5775*
1,1,0.1550,-0.2325,0.5775*
1,1,0.1550,0.2325,0.5775*
1,1,0.1550,0.2325,-0.5775*
%
%ADD18ROUNDEDRECTD18*%
%ADD19R,1.5000X0.9000*%
%ADD20R,0.9000X1.5000*%
%ADD21R,0.9000X0.9000*%
%ADD22O,0.7000X0.3000*%
%ADD23R,0.6000X1.4000*%
G04:AMPARAMS|DCode=24|XSize=0.86mm|YSize=0.26mm|CornerRadius=0.0325mm|HoleSize=0mm|Usage=FLASHONLY|Rotation=90.000|XOffset=0mm|YOffset=0mm|HoleType=Round|Shape=RoundedRectangle|*
%AMROUNDEDRECTD24*
21,1,0.8600,0.1950,0,0,90.0*
21,1,0.7950,0.2600,0,0,90.0*
1,1,0.0650,0.0975,0.3975*
1,1,0.0650,0.0975,-0.3975*
1,1,0.0650,-0.0975,-0.3975*
1,1,0.0650,-0.0975,0.3975*
%
%ADD24ROUNDEDRECTD24*%
G04:AMPARAMS|DCode=25|XSize=0.86mm|YSize=0.26mm|CornerRadius=0.0325mm|HoleSize=0mm|Usage=FLASHONLY|Rotation=180.000|XOffset=0mm|YOffset=0mm|HoleType=Round|Shape=RoundedRectangle|*
%AMROUNDEDRECTD25*
21,1,0.8600,0.1950,0,0,180.0*
21,1,0.7950,0.2600,0,0,180.0*
1,1,0.0650,-0.3975,0.0975*
1,1,0.0650,0.3975,0.0975*
1,1,0.0650,0.3975,-0.0975*
1,1,0.0650,-0.3975,-0.0975*
%
%ADD25ROUNDEDRECTD25*%
G04:AMPARAMS|DCode=26|XSize=0.889mm|YSize=0.889mm|CornerRadius=0.2223mm|HoleSize=0mm|Usage=FLASHONLY|Rotation=90.000|XOffset=0mm|YOffset=0mm|HoleType=Round|Shape=RoundedRectangle|*
%AMROUNDEDRECTD26*
21,1,0.8890,0.4445,0,0,90.0*
21,1,0.4445,0.8890,0,0,90.0*
1,1,0.4445,0.2223,0.2223*
1,1,0.4445,0.2223,-0.2223*
1,1,0.4445,-0.2223,-0.2223*
1,1,0.4445,-0.2223,0.2223*
%
%ADD26ROUNDEDRECTD26*%
G04:AMPARAMS|DCode=27|XSize=0.889mm|YSize=0.889mm|CornerRadius=0.2223mm|HoleSize=0mm|Usage=FLASHONLY|Rotation=0.000|XOffset=0mm|YOffset=0mm|HoleType=Round|Shape=RoundedRectangle|*
%AMROUNDEDRECTD27*
21,1,0.8890,0.4445,0,0,0.0*
21,1,0.4445,0.8890,0,0,0.0*
1,1,0.4445,0.2223,-0.2223*
1,1,0.4445,-0.2223,-0.2223*
1,1,0.4445,-0.2223,0.2223*
1,1,0.4445,0.2223,0.2223*
%
%ADD27ROUNDEDRECTD27*%
%ADD28R,1.1000X0.6000*%
G04:AMPARAMS|DCode=29|XSize=1.21mm|YSize=0.59mm|CornerRadius=0.0738mm|HoleSize=0mm|Usage=FLASHONLY|Rotation=90.000|XOffset=0mm|YOffset=0mm|HoleType=Round|Shape=RoundedRectangle|*
%AMROUNDEDRECTD29*
21,1,1.2100,0.4425,0,0,90.0*
21,1,1.0625,0.5900,0,0,90.0*
1,1,0.1475,0.2213,0.5313*
1,1,0.1475,0.2213,-0.5313*
1,1,0.1475,-0.2213,-0.5313*
1,1,0.1475,-0.2213,0.5313*
%
%ADD29ROUNDEDRECTD29*%
%ADD30R,7.7700X7.3500*%
%ADD31R,7.7000X7.3500*%
%ADD61C,0.6350*%
%ADD62C,0.3048*%
%ADD63C,0.5080*%
%ADD64C,0.2542*%
%ADD65R,0.9000X1.3000*%
%ADD66R,1.6800X1.6800*%
%ADD67R,0.6000X1.3000*%
%ADD68R,0.3000X1.3000*%
%ADD69C,0.5842*%
G04:AMPARAMS|DCode=70|XSize=1.524mm|YSize=1.524mm|CornerRadius=0.381mm|HoleSize=0mm|Usage=FLASHONLY|Rotation=270.000|XOffset=0mm|YOffset=0mm|HoleType=Round|Shape=RoundedRectangle|*
%AMROUNDEDRECTD70*
21,1,1.5240,0.7620,0,0,270.0*
21,1,0.7620,1.5240,0,0,270.0*
1,1,0.7620,-0.3810,-0.3810*
1,1,0.7620,-0.3810,0.3810*
1,1,0.7620,0.3810,0.3810*
1,1,0.7620,0.3810,-0.3810*
%
%ADD70ROUNDEDRECTD70*%
%ADD71C,1.5240*%
%ADD72C,0.6500*%
%ADD73O,1.0000X1.8000*%
%ADD74O,1.0000X2.1000*%
%ADD75C,2.3900*%
%ADD76C,0.6000*%
%ADD77C,0.7112*%
%ADD78C,0.7620*%
%ADD79C,4.3500*%
G36*
X-25711Y518124D02*
X-21528Y517120D01*
X-17553Y515473D01*
X-13884Y513225D01*
X-10613Y510431D01*
X-7819Y507160D01*
X-5571Y503491D01*
X-3924Y499516D01*
X-2920Y495333D01*
X-2585Y491070D01*
X-2590Y491044D01*
Y30000D01*
X-2585Y29974D01*
X-2920Y25711D01*
X-3924Y21528D01*
X-5571Y17553D01*
X-7819Y13884D01*
X-10613Y10613D01*
X-13884Y7819D01*
X-17553Y5571D01*
X-21528Y3924D01*
X-25711Y2920D01*
X-29974Y2585D01*
X-30000Y2590D01*
X-870000D01*
X-870026Y2585D01*
X-874289Y2920D01*
X-878473Y3924D01*
X-882447Y5571D01*
X-886116Y7819D01*
X-889387Y10613D01*
X-892181Y13884D01*
X-894429Y17553D01*
X-896076Y21528D01*
X-897080Y25711D01*
X-897415Y29974D01*
X-897410Y30000D01*
Y491044D01*
X-897415Y491070D01*
X-897080Y495333D01*
X-896076Y499516D01*
X-894429Y503491D01*
X-892181Y507160D01*
X-889387Y510431D01*
X-886116Y513225D01*
X-882447Y515473D01*
X-878473Y517120D01*
X-874289Y518124D01*
X-870026Y518460D01*
X-870000Y518454D01*
X-496471D01*
X-496086Y517184D01*
X-497720Y516092D01*
X-499106Y514018D01*
X-499592Y511572D01*
Y508207D01*
X-493200D01*
X-486807D01*
Y511572D01*
X-487293Y514018D01*
X-488679Y516092D01*
X-490313Y517184D01*
X-489928Y518454D01*
X-410071D01*
X-409686Y517184D01*
X-411319Y516093D01*
X-412705Y514019D01*
X-413192Y511572D01*
Y508207D01*
X-406799D01*
X-400406D01*
Y511572D01*
X-400893Y514019D01*
X-402278Y516093D01*
X-403912Y517184D01*
X-403527Y518454D01*
X-241375D01*
Y459024D01*
X-240972Y458052D01*
X-240000Y457649D01*
X-60000D01*
X-59028Y458052D01*
X-58625Y459024D01*
Y518454D01*
X-30000D01*
X-29974Y518460D01*
X-25711Y518124D01*
D02*
G37*
%LPC*%
G36*
X-407434Y506937D02*
X-413192D01*
Y503572D01*
X-412705Y501126D01*
X-411319Y499052D01*
X-409245Y497666D01*
X-407434Y497306D01*
Y506937D01*
D02*
G37*
G36*
X-400406D02*
X-406164D01*
Y497306D01*
X-404352Y497666D01*
X-402278Y499052D01*
X-400893Y501126D01*
X-400406Y503572D01*
Y506937D01*
D02*
G37*
G36*
X-493834Y506937D02*
X-499592D01*
Y503572D01*
X-499106Y501125D01*
X-497720Y499051D01*
X-495646Y497666D01*
X-493834Y497305D01*
Y506937D01*
D02*
G37*
G36*
X-486807D02*
X-492565D01*
Y497305D01*
X-490753Y497666D01*
X-488679Y499051D01*
X-487293Y501125D01*
X-486807Y503572D01*
Y506937D01*
D02*
G37*
G36*
X-401549Y486787D02*
Y486714D01*
X-425750D01*
Y486787D01*
X-429480Y486296D01*
X-432956Y484856D01*
X-435941Y482566D01*
X-438232Y479581D01*
X-439672Y476104D01*
X-440163Y472374D01*
X-440089D01*
Y467764D01*
X-445299D01*
X-445354Y467895D01*
X-445527Y468761D01*
X-446811Y470683D01*
X-448733Y471967D01*
X-450999Y472418D01*
Y472354D01*
X-453999D01*
Y472418D01*
X-456266Y471967D01*
X-458188Y470683D01*
X-459472Y468761D01*
X-459671Y467764D01*
X-464910D01*
Y472374D01*
X-464836D01*
X-465327Y476104D01*
X-466767Y479581D01*
X-469058Y482566D01*
X-472043Y484856D01*
X-475519Y486296D01*
X-479249Y486787D01*
Y486714D01*
X-498450D01*
Y486787D01*
X-502180Y486296D01*
X-505656Y484856D01*
X-508641Y482566D01*
X-510932Y479581D01*
X-511423Y478394D01*
X-516469D01*
Y466854D01*
X-503929D01*
Y478394D01*
X-503929Y478394D01*
X-503929D01*
X-503891Y479648D01*
X-503030Y480308D01*
X-500821Y481223D01*
X-498453Y481535D01*
X-498450Y481534D01*
X-479249D01*
X-479246Y481535D01*
X-476878Y481223D01*
X-474669Y480308D01*
X-472771Y478852D01*
X-471315Y476955D01*
X-470400Y474745D01*
X-470089Y472377D01*
X-470089Y472374D01*
Y467764D01*
X-472737D01*
X-473442Y468820D01*
X-473110Y469621D01*
Y471924D01*
X-473992Y474053D01*
X-475620Y475681D01*
X-477749Y476563D01*
X-480052D01*
X-482180Y475681D01*
X-483809Y474053D01*
X-484690Y471924D01*
Y469621D01*
X-484358Y468820D01*
X-485064Y467764D01*
X-486269Y467764D01*
X-486808Y468811D01*
Y471273D01*
X-487295Y473720D01*
X-488681Y475794D01*
X-490755Y477179D01*
X-492566Y477540D01*
Y465773D01*
Y454007D01*
X-490755Y454367D01*
X-488681Y455753D01*
X-487540Y457461D01*
X-486270Y457075D01*
Y452224D01*
X-482635D01*
Y459994D01*
X-481365D01*
Y452224D01*
X-477884D01*
Y444269D01*
X-478270Y443339D01*
Y441640D01*
X-477884Y440710D01*
Y424706D01*
X-478256Y422837D01*
X-479472Y421017D01*
X-480329Y420444D01*
X-483360D01*
Y419494D01*
X-483440Y419429D01*
X-511148D01*
X-511720Y420285D01*
X-512875Y421056D01*
X-514238Y421327D01*
X-518683D01*
X-520045Y421056D01*
X-521200Y420285D01*
X-521772Y419429D01*
X-577020D01*
Y419444D01*
X-581604Y419084D01*
X-586074Y418010D01*
X-590322Y416251D01*
X-594242Y413848D01*
X-597738Y410862D01*
X-600724Y407366D01*
X-603127Y403446D01*
X-604886Y399198D01*
X-605960Y394728D01*
X-606320Y390144D01*
X-606305D01*
Y308784D01*
X-608190D01*
Y296244D01*
X-596964D01*
X-595995Y295275D01*
X-592506Y289172D01*
X-593242Y287901D01*
X-596650D01*
Y293544D01*
X-608190D01*
Y281004D01*
X-598834D01*
X-598249Y279734D01*
X-598275Y279704D01*
X-654890D01*
Y279778D01*
X-657368Y279286D01*
X-659468Y277882D01*
X-659722Y277503D01*
X-661119Y276924D01*
X-662320Y275723D01*
X-662970Y274153D01*
Y272455D01*
X-662320Y270885D01*
X-661119Y269684D01*
X-659549Y269034D01*
X-657851D01*
X-656281Y269684D01*
X-655080Y270885D01*
X-654430Y272455D01*
Y274153D01*
X-654182Y274524D01*
X-596996D01*
Y274515D01*
X-595201Y274751D01*
X-593528Y275444D01*
X-593471Y275487D01*
X-592201Y274861D01*
Y274337D01*
X-592078Y273714D01*
X-591725Y273187D01*
X-591266Y272880D01*
X-591187Y272807D01*
X-590663Y271497D01*
X-590855Y271209D01*
X-592738Y269951D01*
X-594872Y269527D01*
X-594958Y269544D01*
X-596650D01*
Y273224D01*
X-608190D01*
Y260684D01*
X-596650D01*
Y264364D01*
X-594958D01*
Y264320D01*
X-592113Y264694D01*
X-589462Y265793D01*
X-587186Y267539D01*
X-585439Y269816D01*
X-584341Y272467D01*
X-583063Y272594D01*
X-582576Y272486D01*
X-582351Y271470D01*
Y264938D01*
X-582371D01*
X-582556Y264008D01*
X-583083Y263219D01*
X-583061Y263197D01*
X-585960Y260299D01*
X-585998Y260337D01*
X-586001Y260334D01*
X-586751Y259356D01*
X-587804Y257984D01*
X-592696D01*
Y245444D01*
X-581156D01*
Y257778D01*
X-579455Y259479D01*
X-579172Y259400D01*
X-578280Y258888D01*
X-578256Y257984D01*
X-578355Y256844D01*
X-578327Y256744D01*
X-578260Y256502D01*
X-578260Y256147D01*
X-578256Y256139D01*
Y247092D01*
X-578368Y246810D01*
X-578340Y244977D01*
X-579784Y244072D01*
X-633413Y243613D01*
X-633648Y243514D01*
X-642900D01*
X-643019Y243583D01*
X-643195Y243607D01*
X-643322Y243573D01*
X-643446Y243618D01*
X-650265Y243292D01*
X-650547Y243552D01*
X-651139Y244522D01*
X-651122Y244609D01*
X-655820D01*
Y245244D01*
X-656455D01*
Y248068D01*
X-657820D01*
X-658901Y247853D01*
X-659817Y247241D01*
X-660429Y246325D01*
X-660591Y245514D01*
X-665685D01*
Y237744D01*
Y229974D01*
X-660591D01*
X-660429Y229163D01*
X-659817Y228247D01*
X-658901Y227635D01*
X-657820Y227420D01*
X-656455D01*
Y230244D01*
X-655820D01*
Y230879D01*
X-651122D01*
X-651140Y230968D01*
X-650550Y231936D01*
X-650267Y232198D01*
X-643444Y231872D01*
X-643424Y231879D01*
X-643405Y231871D01*
X-643142Y231974D01*
X-633649D01*
X-633429Y231878D01*
X-578843Y230797D01*
X-91770Y80589D01*
X-91770Y80344D01*
X-90918Y80326D01*
X-90723Y80344D01*
X-90500Y80344D01*
X-90085D01*
X-90057Y80343D01*
X-90052Y80344D01*
X-12230D01*
Y154779D01*
X-12158Y154898D01*
X-12230Y155189D01*
Y156384D01*
X-13178D01*
X-13310Y156464D01*
X-564290Y240555D01*
X-566539Y242804D01*
Y246720D01*
X-566572Y246800D01*
X-566549Y246884D01*
X-566716Y248277D01*
Y256521D01*
X-566639Y256731D01*
X-566643Y256742D01*
X-566640Y256753D01*
X-566926Y261903D01*
X-566871Y262005D01*
X-565726Y262860D01*
X-565707Y262861D01*
X-565385D01*
Y268462D01*
X-564750D01*
Y269097D01*
X-562149D01*
Y271470D01*
X-561925Y272486D01*
X-560909Y272710D01*
X-558535D01*
Y275312D01*
X-557900D01*
Y275947D01*
X-552299D01*
Y276287D01*
X-552332Y276452D01*
X-551674Y277528D01*
X-551439Y277722D01*
X-512750D01*
Y277716D01*
X-510596Y277432D01*
X-509300Y276896D01*
Y276265D01*
X-508650Y274695D01*
X-507449Y273494D01*
X-506513Y273106D01*
X-506813Y271856D01*
X-510471Y272144D01*
Y272084D01*
X-530791D01*
X-531821Y273114D01*
X-533391Y273764D01*
X-535089D01*
X-536659Y273114D01*
X-537860Y271913D01*
X-538510Y270343D01*
Y268645D01*
X-537955Y267305D01*
X-538232Y266682D01*
X-538248Y266657D01*
X-538725Y266144D01*
X-540169D01*
X-541739Y265494D01*
X-542940Y264293D01*
X-543590Y262723D01*
Y261025D01*
X-542940Y259455D01*
X-541739Y258254D01*
X-540169Y257604D01*
X-538471D01*
X-536901Y258254D01*
X-535871Y259284D01*
X-510471D01*
X-510361Y259306D01*
X-506015Y258878D01*
X-501729Y257578D01*
X-497780Y255467D01*
X-494404Y252697D01*
X-494342Y252603D01*
X-480510Y238772D01*
X-480546Y238736D01*
X-475915Y234674D01*
X-470794Y231252D01*
X-465269Y228528D01*
X-459436Y226548D01*
X-453395Y225346D01*
X-447248Y224943D01*
Y224994D01*
X-130950D01*
Y224958D01*
X-126566Y225303D01*
X-122289Y226329D01*
X-118226Y228012D01*
X-114476Y230310D01*
X-111132Y233166D01*
X-108276Y236511D01*
X-105978Y240260D01*
X-104295Y244323D01*
X-103269Y248600D01*
X-102924Y252984D01*
X-102960D01*
Y259654D01*
X-99890D01*
X-99780Y259654D01*
X-98620D01*
X-98510Y259654D01*
X-94988D01*
X-93649Y255240D01*
X-91392Y251018D01*
X-88356Y247318D01*
X-84656Y244282D01*
X-80434Y242025D01*
X-76860Y240941D01*
Y236554D01*
X-65320D01*
Y249094D01*
X-76860D01*
Y247448D01*
X-77880Y246692D01*
X-78432Y246859D01*
X-81749Y248632D01*
X-84656Y251018D01*
X-87042Y253925D01*
X-88815Y257242D01*
X-89237Y258634D01*
X-88481Y259654D01*
X-87080D01*
Y277194D01*
X-98510D01*
X-98620Y277194D01*
X-99780D01*
X-99890Y277194D01*
X-111210D01*
X-111320Y277194D01*
X-112480D01*
X-112590Y277194D01*
X-123910D01*
X-124020Y277194D01*
X-125180D01*
X-125290Y277194D01*
X-136610D01*
X-136720Y277194D01*
X-137880D01*
X-137990Y277194D01*
X-149310D01*
X-149420Y277194D01*
X-150580D01*
X-150690Y277194D01*
X-162010D01*
X-162120Y277194D01*
X-163280D01*
X-163390Y277194D01*
X-174710D01*
X-174820Y277194D01*
X-175980D01*
X-176090Y277194D01*
X-187410D01*
X-187520Y277194D01*
X-188680D01*
X-188790Y277194D01*
X-200110D01*
X-200220Y277194D01*
X-201380D01*
X-201490Y277194D01*
X-206515D01*
Y268424D01*
Y259654D01*
X-201490D01*
X-201380Y259654D01*
X-200220D01*
X-200110Y259654D01*
X-197040D01*
Y258064D01*
X-197018Y257954D01*
X-197446Y253608D01*
X-198746Y249322D01*
X-200857Y245373D01*
X-203698Y241912D01*
X-207159Y239071D01*
X-211108Y236960D01*
X-215394Y235660D01*
X-219740Y235232D01*
X-219850Y235254D01*
X-233186D01*
X-233479Y236489D01*
X-229416Y238172D01*
X-225667Y240470D01*
X-222322Y243326D01*
X-219466Y246670D01*
X-217168Y250420D01*
X-215485Y254483D01*
X-214459Y258760D01*
X-214190Y262174D01*
X-212920Y262124D01*
Y259654D01*
X-207785D01*
Y268424D01*
Y277194D01*
X-212880D01*
X-212920Y277194D01*
X-214089Y277285D01*
X-214150Y278298D01*
Y278384D01*
X-214158Y278422D01*
X-214164Y278520D01*
X-213749Y281666D01*
X-212482Y284725D01*
X-210467Y287351D01*
X-207841Y289366D01*
X-204782Y290633D01*
X-201595Y291053D01*
X-201500Y291034D01*
X-71270D01*
Y287964D01*
X-71270Y287854D01*
Y286694D01*
X-71270Y286584D01*
Y283514D01*
X-74861D01*
X-75891Y284544D01*
X-77461Y285194D01*
X-79159D01*
X-80729Y284544D01*
X-81930Y283343D01*
X-82580Y281773D01*
Y280075D01*
X-81930Y278505D01*
X-80729Y277304D01*
X-79159Y276654D01*
X-77461D01*
X-75891Y277304D01*
X-74861Y278334D01*
X-71270D01*
Y275154D01*
X-53730D01*
Y278334D01*
X-49020D01*
Y273268D01*
X-36480D01*
Y278334D01*
X-33780D01*
Y273268D01*
X-21240D01*
Y284808D01*
X-33780D01*
Y283514D01*
X-36480D01*
Y284808D01*
X-49020D01*
Y283514D01*
X-53730D01*
Y286584D01*
X-53730Y286694D01*
Y287854D01*
X-53730Y287964D01*
Y291034D01*
X-33780D01*
Y287454D01*
X-21240D01*
Y298994D01*
X-33780D01*
Y296214D01*
X-53730D01*
Y299394D01*
X-53730D01*
Y300554D01*
X-53730D01*
Y303734D01*
X-49020D01*
Y300554D01*
X-36480D01*
Y312094D01*
X-49020D01*
Y308914D01*
X-53730D01*
Y311984D01*
X-53730Y312094D01*
Y313254D01*
X-53730Y313364D01*
Y324684D01*
X-53730Y324794D01*
Y325954D01*
X-53730Y326064D01*
Y337384D01*
X-53730Y337494D01*
Y338654D01*
X-53730Y338764D01*
Y350084D01*
X-53730Y350194D01*
Y351354D01*
X-53730Y351464D01*
Y362784D01*
X-53730Y362894D01*
Y364054D01*
X-53730Y364164D01*
Y375484D01*
X-53730Y375594D01*
Y376754D01*
X-53730Y376864D01*
Y388184D01*
X-53730Y388294D01*
Y389454D01*
X-53730Y389564D01*
Y400884D01*
X-53730Y400994D01*
Y402154D01*
X-53730Y402264D01*
Y413584D01*
X-53730Y413694D01*
Y414854D01*
X-53730Y414964D01*
Y426284D01*
X-53730Y426394D01*
Y427554D01*
X-53730Y427664D01*
Y438984D01*
X-53730Y439094D01*
Y440254D01*
X-53730Y440364D01*
Y445389D01*
X-71270D01*
Y440364D01*
X-71270Y440254D01*
Y439094D01*
X-71270Y438984D01*
Y427664D01*
X-71270Y427554D01*
Y426394D01*
X-71270Y426284D01*
Y414964D01*
X-71270Y414854D01*
Y413694D01*
X-71270Y413584D01*
Y410514D01*
X-74861D01*
X-75891Y411544D01*
X-77461Y412194D01*
X-79159D01*
X-80729Y411544D01*
X-81930Y410343D01*
X-82580Y408773D01*
Y407075D01*
X-81930Y405505D01*
X-80729Y404304D01*
X-79159Y403654D01*
X-77461D01*
X-75891Y404304D01*
X-74861Y405334D01*
X-71270D01*
Y402264D01*
X-71270Y402154D01*
Y400994D01*
X-71270Y400884D01*
Y397814D01*
X-74861D01*
X-75891Y398844D01*
X-77461Y399494D01*
X-79159D01*
X-80729Y398844D01*
X-81930Y397643D01*
X-82580Y396073D01*
Y394375D01*
X-81930Y392805D01*
X-80729Y391604D01*
X-79159Y390954D01*
X-77461D01*
X-75891Y391604D01*
X-74861Y392634D01*
X-71270D01*
Y389564D01*
X-71270Y389454D01*
Y388294D01*
X-71270Y388184D01*
Y376864D01*
X-71270Y376754D01*
Y375594D01*
X-71270Y375484D01*
Y364164D01*
X-71270Y364054D01*
Y362894D01*
X-71270Y362784D01*
Y351464D01*
X-71270Y351354D01*
Y350194D01*
X-71270Y350084D01*
Y338764D01*
X-71270Y338654D01*
Y337494D01*
X-71270Y337384D01*
Y326064D01*
X-71270Y325954D01*
Y324794D01*
X-71270Y324684D01*
Y313364D01*
X-71270Y313254D01*
Y312094D01*
X-71270Y311984D01*
Y308914D01*
X-195150D01*
Y308958D01*
X-199933Y308582D01*
X-204598Y307462D01*
X-209030Y305626D01*
X-213121Y303119D01*
X-216769Y300003D01*
X-219885Y296355D01*
X-222392Y292264D01*
X-224228Y287832D01*
X-225348Y283167D01*
X-225724Y278384D01*
X-225680D01*
Y268224D01*
X-225658Y268114D01*
X-226086Y263768D01*
X-227386Y259482D01*
X-229497Y255533D01*
X-232338Y252072D01*
X-235799Y249231D01*
X-239748Y247120D01*
X-244034Y245820D01*
X-248380Y245392D01*
X-248490Y245414D01*
X-257677D01*
X-257970Y246649D01*
X-253907Y248332D01*
X-250158Y250630D01*
X-247940Y252524D01*
X-246371D01*
X-244801Y253174D01*
X-243600Y254375D01*
X-242950Y255945D01*
Y257643D01*
X-243600Y259213D01*
X-244801Y260414D01*
X-246371Y261064D01*
X-248069D01*
X-249639Y260414D01*
X-250840Y259213D01*
X-251490Y257643D01*
Y256322D01*
X-253940Y254311D01*
X-257889Y252200D01*
X-262175Y250900D01*
X-266521Y250472D01*
X-266631Y250494D01*
X-395810D01*
X-395871Y250481D01*
X-398761Y250862D01*
X-401510Y252001D01*
X-403871Y253813D01*
X-405683Y256174D01*
X-406822Y258923D01*
X-407202Y261813D01*
X-407190Y261874D01*
Y289814D01*
X-407198Y289851D01*
X-406846Y292526D01*
X-405799Y295053D01*
X-404133Y297223D01*
X-401963Y298889D01*
X-399436Y299936D01*
X-396762Y300288D01*
X-396724Y300280D01*
X-379262D01*
Y298600D01*
X-365722D01*
Y307140D01*
X-379262D01*
Y305460D01*
X-396724D01*
Y305485D01*
X-399781Y305184D01*
X-402721Y304293D01*
X-405431Y302844D01*
X-407805Y300895D01*
X-409754Y298521D01*
X-411203Y295811D01*
X-412094Y292871D01*
X-412396Y289814D01*
X-412370D01*
Y261874D01*
X-412400D01*
X-412081Y258638D01*
X-411137Y255525D01*
X-409604Y252657D01*
X-407541Y250143D01*
X-405027Y248080D01*
X-402415Y246684D01*
X-402621Y245428D01*
X-402627Y245414D01*
X-435255D01*
X-435286Y245408D01*
X-439619Y245749D01*
X-443876Y246770D01*
X-447921Y248446D01*
X-451653Y250733D01*
X-454958Y253556D01*
X-454976Y253583D01*
X-485599Y284206D01*
X-485573Y284232D01*
X-488918Y287088D01*
X-492667Y289386D01*
X-496730Y291069D01*
X-501007Y292095D01*
X-505391Y292440D01*
Y292404D01*
X-513086D01*
X-513235Y292374D01*
X-516917Y292859D01*
X-520488Y294338D01*
X-522561Y295929D01*
X-523489Y296755D01*
X-523489Y296755D01*
X-526364Y299114D01*
X-529644Y300867D01*
X-533202Y301946D01*
X-536903Y302311D01*
Y302269D01*
X-562614D01*
X-562625Y302287D01*
X-563153Y302639D01*
X-563775Y302763D01*
X-565725D01*
X-565760Y302756D01*
X-566898Y303543D01*
X-566997Y303706D01*
X-566865Y307550D01*
X-566919Y307696D01*
X-566887Y307847D01*
X-566970Y307976D01*
Y316409D01*
X-566161Y317267D01*
X-565010Y316846D01*
Y313182D01*
X-559240D01*
X-553470D01*
Y318047D01*
X-553134Y318554D01*
X-552303Y319066D01*
X-549793Y318026D01*
X-548290Y316873D01*
X-547352Y316072D01*
X-547352Y316072D01*
X-544562Y313783D01*
X-541380Y312082D01*
X-539718Y311578D01*
X-538980Y310473D01*
X-537825Y309702D01*
X-536463Y309431D01*
X-532018D01*
X-530655Y309702D01*
X-529500Y310473D01*
X-529360Y310682D01*
X-522152D01*
Y308944D01*
X-519754D01*
X-518999Y307986D01*
X-518691Y304853D01*
X-517777Y301839D01*
X-517338Y301019D01*
X-517315Y300902D01*
X-517119Y300610D01*
X-516592Y299623D01*
X-516714Y299328D01*
Y297629D01*
X-516064Y296060D01*
X-514863Y294859D01*
X-513293Y294209D01*
X-511594D01*
X-510025Y294859D01*
X-508824Y296060D01*
X-508174Y297629D01*
Y299328D01*
X-508824Y300897D01*
X-510025Y302099D01*
X-511594Y302749D01*
X-512434D01*
X-513438Y305173D01*
X-513767Y307674D01*
X-513027Y308944D01*
X-510612D01*
Y321484D01*
X-512187D01*
Y326908D01*
X-511230Y327664D01*
X-507595D01*
Y335934D01*
X-506325D01*
Y327664D01*
X-502690D01*
X-502690Y327664D01*
X-501730D01*
Y327664D01*
X-501420Y327664D01*
X-493190D01*
Y344204D01*
X-496121D01*
X-496298Y344632D01*
X-498367Y347327D01*
X-501062Y349396D01*
X-504201Y350696D01*
X-507570Y351139D01*
Y351129D01*
X-510620Y350727D01*
X-513462Y349550D01*
X-515903Y347677D01*
X-517776Y345236D01*
X-518204Y344204D01*
X-520730D01*
Y335950D01*
X-520733Y335934D01*
Y321484D01*
X-522152D01*
Y319746D01*
X-529360D01*
X-529500Y319954D01*
X-530655Y320726D01*
X-532018Y320997D01*
X-536463D01*
X-537825Y320726D01*
X-538066Y320565D01*
X-539026Y320963D01*
X-539989Y321702D01*
X-540931Y322493D01*
X-540931Y322493D01*
X-544117Y325107D01*
X-547752Y327050D01*
X-551696Y328246D01*
X-555797Y328650D01*
Y328636D01*
X-561183D01*
X-561279Y328617D01*
X-564320Y328317D01*
X-567336Y327402D01*
X-570116Y325916D01*
X-572553Y323917D01*
X-574552Y321480D01*
X-575976Y318817D01*
X-578510D01*
Y308078D01*
X-578512Y308076D01*
X-578511Y307686D01*
X-578592Y307305D01*
X-578510Y306277D01*
X-579482Y305558D01*
X-579555Y305526D01*
X-579636Y305632D01*
X-579653Y305615D01*
X-581097Y307060D01*
X-581086Y307071D01*
X-581310Y307362D01*
Y317936D01*
X-593850D01*
Y306396D01*
X-586970D01*
X-586780Y305937D01*
X-584800Y303357D01*
X-584760Y303397D01*
X-583315Y301953D01*
X-583325Y301943D01*
X-582606Y300867D01*
X-582354Y299599D01*
X-582351D01*
Y294897D01*
X-583512Y294382D01*
X-589485Y299789D01*
X-589542Y299809D01*
X-591684Y301952D01*
X-591697Y301960D01*
X-593986Y303839D01*
X-596610Y305242D01*
X-596650Y305254D01*
Y308784D01*
X-598535D01*
Y390144D01*
X-598570Y390317D01*
X-598172Y394352D01*
X-596945Y398397D01*
X-594952Y402126D01*
X-592270Y405394D01*
X-589002Y408076D01*
X-585273Y410069D01*
X-581227Y411297D01*
X-577193Y411694D01*
X-577020Y411659D01*
X-521772D01*
X-521200Y410803D01*
X-520045Y410032D01*
X-518683Y409761D01*
X-514238D01*
X-512875Y410032D01*
X-511720Y410803D01*
X-511148Y411659D01*
X-484644D01*
X-483440Y411620D01*
X-483360Y411549D01*
Y408904D01*
X-470820D01*
Y410877D01*
X-469865Y411714D01*
X-469510Y411667D01*
X-469470Y411659D01*
X-457659D01*
Y411636D01*
X-454706Y412025D01*
X-451954Y413165D01*
X-449590Y414979D01*
X-447776Y417342D01*
X-446637Y420095D01*
X-446468Y421376D01*
X-446053Y421996D01*
X-446042Y421998D01*
X-444768D01*
X-444757Y421996D01*
X-444315Y421334D01*
X-443651Y420891D01*
X-442868Y420735D01*
X-438443D01*
X-437659Y420891D01*
X-436995Y421334D01*
X-436552Y421998D01*
X-436396Y422781D01*
Y433406D01*
X-436552Y434190D01*
X-436995Y434854D01*
X-437659Y435298D01*
X-438443Y435453D01*
X-440660D01*
X-445592Y440386D01*
X-445573Y440434D01*
X-445613Y440530D01*
X-445661Y440550D01*
Y445066D01*
X-441408Y449318D01*
X-441401Y449319D01*
X-441371Y449289D01*
X-440254Y450959D01*
X-440003Y452224D01*
X-429394D01*
X-429187Y444212D01*
X-429549Y443339D01*
Y441640D01*
X-428899Y440071D01*
X-427698Y438869D01*
X-426128Y438219D01*
X-424430D01*
X-422860Y438869D01*
X-421659Y440071D01*
X-421009Y441640D01*
Y443339D01*
X-421418Y444327D01*
X-421599Y451314D01*
X-420713Y452224D01*
X-418635D01*
Y459994D01*
X-417365D01*
Y452224D01*
X-413730D01*
Y457073D01*
X-412460Y457458D01*
X-411321Y455753D01*
X-409247Y454368D01*
X-407435Y454007D01*
Y465774D01*
Y477540D01*
X-409247Y477180D01*
X-411321Y475794D01*
X-412706Y473720D01*
X-413193Y471274D01*
Y468812D01*
X-413730Y467764D01*
X-414932Y467764D01*
X-415638Y468820D01*
X-415310Y469611D01*
Y471914D01*
X-416191Y474042D01*
X-417820Y475671D01*
X-419948Y476553D01*
X-422252D01*
X-424380Y475671D01*
X-426008Y474042D01*
X-426890Y471914D01*
Y469611D01*
X-426562Y468820D01*
X-427268Y467764D01*
X-434910D01*
Y472374D01*
X-434911Y472377D01*
X-434599Y474745D01*
X-433684Y476955D01*
X-432228Y478852D01*
X-430330Y480308D01*
X-428121Y481223D01*
X-425753Y481535D01*
X-425750Y481534D01*
X-401549D01*
X-401546Y481535D01*
X-399178Y481223D01*
X-396969Y480308D01*
X-396109Y479648D01*
X-396069Y478394D01*
X-396069Y478394D01*
X-396069Y478394D01*
Y466854D01*
X-383530D01*
Y478394D01*
X-388576D01*
X-389067Y479581D01*
X-391358Y482566D01*
X-394343Y484856D01*
X-397819Y486296D01*
X-401549Y486787D01*
D02*
G37*
G36*
X-27733Y514064D02*
X-32267D01*
X-36715Y513179D01*
X-40904Y511444D01*
X-44674Y508925D01*
X-47881Y505718D01*
X-50400Y501948D01*
X-52135Y497759D01*
X-53020Y493311D01*
Y488777D01*
X-52135Y484329D01*
X-50400Y480140D01*
X-47881Y476370D01*
X-44674Y473163D01*
X-40904Y470644D01*
X-36715Y468909D01*
X-32267Y468024D01*
X-27733D01*
X-23285Y468909D01*
X-19096Y470644D01*
X-15326Y473163D01*
X-12119Y476370D01*
X-9600Y480140D01*
X-7865Y484329D01*
X-6980Y488777D01*
Y493311D01*
X-7865Y497759D01*
X-9600Y501948D01*
X-12119Y505718D01*
X-15326Y508925D01*
X-19096Y511444D01*
X-23285Y513179D01*
X-27733Y514064D01*
D02*
G37*
G36*
X-867733D02*
X-872267D01*
X-876715Y513179D01*
X-880904Y511444D01*
X-884674Y508925D01*
X-887881Y505718D01*
X-890400Y501948D01*
X-892135Y497759D01*
X-893020Y493311D01*
Y488777D01*
X-892135Y484329D01*
X-890400Y480140D01*
X-887881Y476370D01*
X-884674Y473163D01*
X-880904Y470644D01*
X-876715Y468909D01*
X-872267Y468024D01*
X-867733D01*
X-863285Y468909D01*
X-859096Y470644D01*
X-855326Y473163D01*
X-852119Y476370D01*
X-849600Y480140D01*
X-847865Y484329D01*
X-846980Y488777D01*
Y493311D01*
X-847865Y497759D01*
X-849600Y501948D01*
X-852119Y505718D01*
X-855326Y508925D01*
X-859096Y511444D01*
X-863285Y513179D01*
X-867733Y514064D01*
D02*
G37*
G36*
X-406165Y477540D02*
Y466409D01*
X-400407D01*
Y471274D01*
X-400894Y473720D01*
X-402280Y475794D01*
X-404354Y477180D01*
X-406165Y477540D01*
D02*
G37*
G36*
X-493836Y477540D02*
X-495647Y477179D01*
X-497721Y475794D01*
X-499107Y473720D01*
X-499594Y471273D01*
Y466408D01*
X-493836D01*
Y477540D01*
D02*
G37*
G36*
X-341948Y469841D02*
X-343535D01*
Y464693D01*
X-338387D01*
Y466281D01*
X-338658Y467643D01*
X-339430Y468798D01*
X-340585Y469570D01*
X-341948Y469841D01*
D02*
G37*
G36*
X-344805D02*
X-346393D01*
X-347755Y469570D01*
X-348910Y468798D01*
X-349682Y467643D01*
X-349953Y466281D01*
Y464693D01*
X-344805D01*
Y469841D01*
D02*
G37*
G36*
X-383530Y464894D02*
X-389164D01*
Y459759D01*
X-383530D01*
Y464894D01*
D02*
G37*
G36*
X-503929D02*
X-509565D01*
Y459759D01*
X-503929D01*
Y464894D01*
D02*
G37*
G36*
X-390434D02*
X-396069D01*
Y459759D01*
X-390434D01*
Y464894D01*
D02*
G37*
G36*
X-510835D02*
X-516469D01*
Y459759D01*
X-510835D01*
Y464894D01*
D02*
G37*
G36*
X-338387Y463423D02*
X-343535D01*
Y458275D01*
X-341948D01*
X-340585Y458546D01*
X-339430Y459318D01*
X-338658Y460473D01*
X-338387Y461836D01*
Y463423D01*
D02*
G37*
G36*
X-344805D02*
X-349953D01*
Y461836D01*
X-349682Y460473D01*
X-348910Y459318D01*
X-347755Y458546D01*
X-346393Y458275D01*
X-344805D01*
Y463423D01*
D02*
G37*
G36*
X-400407Y465139D02*
X-406165D01*
Y454007D01*
X-404354Y454368D01*
X-402280Y455753D01*
X-400894Y457827D01*
X-400407Y460274D01*
Y465139D01*
D02*
G37*
G36*
X-493836Y465138D02*
X-499594D01*
Y460273D01*
X-499107Y457827D01*
X-497721Y455753D01*
X-495647Y454367D01*
X-493836Y454007D01*
Y465138D01*
D02*
G37*
G36*
X-383530Y458489D02*
X-389164D01*
Y453354D01*
X-383530D01*
Y458489D01*
D02*
G37*
G36*
X-390434D02*
X-396069D01*
Y453354D01*
X-390434D01*
Y458489D01*
D02*
G37*
G36*
X-503929D02*
X-509565D01*
Y453354D01*
X-503929D01*
Y458489D01*
D02*
G37*
G36*
X-510835D02*
X-516469D01*
Y453354D01*
X-510835D01*
Y458489D01*
D02*
G37*
G36*
X-257429Y453356D02*
Y448221D01*
X-251794D01*
Y453356D01*
X-257429D01*
D02*
G37*
G36*
X-53730Y451794D02*
X-61865D01*
Y446659D01*
X-53730D01*
Y451794D01*
D02*
G37*
G36*
X-63135D02*
X-71270D01*
Y446659D01*
X-63135D01*
Y451794D01*
D02*
G37*
G36*
X-228730D02*
X-236865D01*
Y446659D01*
X-228730D01*
Y451794D01*
D02*
G37*
G36*
X-238135D02*
X-246270D01*
Y446659D01*
X-238135D01*
Y451794D01*
D02*
G37*
G36*
X-251794Y446951D02*
X-257429D01*
Y441816D01*
X-251794D01*
Y446951D01*
D02*
G37*
G36*
X-305900Y495426D02*
X-307920D01*
X-309788Y494653D01*
X-311217Y493224D01*
X-311990Y491357D01*
Y489336D01*
X-311217Y487469D01*
X-309788Y486040D01*
X-307920Y485266D01*
X-305900D01*
X-304032Y486040D01*
X-302603Y487469D01*
X-302495Y487730D01*
X-298643Y487351D01*
X-294358Y486051D01*
X-290409Y483940D01*
X-286948Y481099D01*
X-284107Y477637D01*
X-281996Y473688D01*
X-280696Y469403D01*
X-280677Y469211D01*
X-280268Y465057D01*
X-280290Y464946D01*
Y453464D01*
X-283970D01*
Y441924D01*
X-271430D01*
Y453464D01*
X-275110D01*
Y464946D01*
X-275074D01*
X-275419Y469331D01*
X-275621Y470173D01*
X-276445Y473607D01*
X-278128Y477670D01*
X-280426Y481420D01*
X-282272Y483581D01*
X-281462Y484588D01*
X-280249Y483940D01*
X-276788Y481099D01*
X-273947Y477637D01*
X-271836Y473688D01*
X-270536Y469403D01*
X-270108Y465057D01*
X-270130Y464946D01*
Y437806D01*
X-270140D01*
X-269902Y435998D01*
X-269204Y434314D01*
X-268094Y432867D01*
X-266647Y431757D01*
X-264963Y431059D01*
X-264334Y430977D01*
Y428316D01*
X-251794D01*
Y430734D01*
X-246270D01*
Y427664D01*
X-246270Y427554D01*
Y426394D01*
X-246270Y426284D01*
Y423214D01*
X-263020D01*
Y423252D01*
X-263215Y423214D01*
X-271430D01*
Y425524D01*
X-275110D01*
Y428424D01*
X-271430D01*
Y439964D01*
X-283970D01*
Y428424D01*
X-280290D01*
Y425524D01*
X-283970D01*
Y413984D01*
X-271430D01*
Y418034D01*
X-267590D01*
Y283464D01*
X-267568Y283354D01*
X-267996Y279007D01*
X-269296Y274722D01*
X-271407Y270773D01*
X-274248Y267312D01*
X-277709Y264471D01*
X-281658Y262360D01*
X-285944Y261060D01*
X-290290Y260632D01*
X-290400Y260654D01*
X-317966D01*
X-317994Y260684D01*
X-317451Y261954D01*
X-316397D01*
Y267589D01*
X-321532D01*
Y262674D01*
X-322576Y261949D01*
X-323492Y262491D01*
Y274494D01*
X-326672D01*
Y279600D01*
X-321682D01*
Y288140D01*
X-335221D01*
Y279600D01*
X-331852D01*
Y274494D01*
X-335032D01*
Y261954D01*
X-330251D01*
X-330195Y261819D01*
X-328160Y259166D01*
X-325507Y257131D01*
X-322417Y255851D01*
X-319102Y255414D01*
Y255474D01*
X-290400D01*
Y255438D01*
X-286016Y255783D01*
X-281739Y256809D01*
X-277676Y258492D01*
X-273927Y260790D01*
X-270582Y263646D01*
X-267726Y266991D01*
X-265428Y270740D01*
X-263745Y274803D01*
X-262719Y279080D01*
X-262374Y283464D01*
X-262410D01*
Y418034D01*
X-246270D01*
Y414964D01*
X-246270Y414854D01*
Y413694D01*
X-246270Y413584D01*
Y402264D01*
X-246270Y402154D01*
Y400994D01*
X-246270Y400884D01*
Y397814D01*
X-252661D01*
X-253691Y398844D01*
X-255261Y399494D01*
X-256959D01*
X-258529Y398844D01*
X-259730Y397643D01*
X-260380Y396073D01*
Y394375D01*
X-259730Y392805D01*
X-258529Y391604D01*
X-256959Y390954D01*
X-255261D01*
X-253691Y391604D01*
X-252661Y392634D01*
X-246270D01*
Y389564D01*
X-246270Y389454D01*
Y388294D01*
X-246270Y388184D01*
Y385114D01*
X-252661D01*
X-253691Y386144D01*
X-255261Y386794D01*
X-256959D01*
X-258529Y386144D01*
X-259730Y384943D01*
X-260380Y383373D01*
Y381675D01*
X-259730Y380105D01*
X-258529Y378904D01*
X-256959Y378254D01*
X-255261D01*
X-253691Y378904D01*
X-252661Y379934D01*
X-246270D01*
Y376864D01*
X-246270Y376754D01*
Y375594D01*
X-246270Y375484D01*
Y372414D01*
X-252661D01*
X-253691Y373444D01*
X-255261Y374094D01*
X-256959D01*
X-258529Y373444D01*
X-259730Y372243D01*
X-260380Y370673D01*
Y368975D01*
X-259730Y367405D01*
X-258529Y366204D01*
X-256959Y365554D01*
X-255261D01*
X-253691Y366204D01*
X-252661Y367234D01*
X-246270D01*
Y364164D01*
X-246270Y364054D01*
Y362894D01*
X-246270Y362784D01*
Y359714D01*
X-252661D01*
X-253691Y360744D01*
X-255261Y361394D01*
X-256959D01*
X-258529Y360744D01*
X-259730Y359543D01*
X-260380Y357973D01*
Y356275D01*
X-259730Y354705D01*
X-258529Y353504D01*
X-256959Y352854D01*
X-255261D01*
X-253691Y353504D01*
X-252661Y354534D01*
X-246270D01*
Y351464D01*
X-246270Y351354D01*
Y350194D01*
X-246270Y350084D01*
Y347014D01*
X-252661D01*
X-253691Y348044D01*
X-255261Y348694D01*
X-256959D01*
X-258529Y348044D01*
X-259730Y346843D01*
X-260380Y345273D01*
Y343575D01*
X-259730Y342005D01*
X-258529Y340804D01*
X-256959Y340154D01*
X-255261D01*
X-253691Y340804D01*
X-252661Y341834D01*
X-246270D01*
Y338764D01*
X-246270Y338654D01*
Y337494D01*
X-246270Y337384D01*
Y334314D01*
X-252661D01*
X-253691Y335344D01*
X-255261Y335994D01*
X-256959D01*
X-258529Y335344D01*
X-259730Y334143D01*
X-260380Y332573D01*
Y330875D01*
X-259730Y329305D01*
X-258529Y328104D01*
X-256959Y327454D01*
X-255261D01*
X-253691Y328104D01*
X-252661Y329134D01*
X-246270D01*
Y326064D01*
X-246270Y325954D01*
Y324794D01*
X-246270Y324684D01*
Y321614D01*
X-252661D01*
X-253691Y322644D01*
X-255261Y323294D01*
X-256959D01*
X-258529Y322644D01*
X-259730Y321443D01*
X-260380Y319873D01*
Y318175D01*
X-259730Y316605D01*
X-258529Y315404D01*
X-256959Y314754D01*
X-255261D01*
X-253691Y315404D01*
X-252661Y316434D01*
X-246270D01*
Y313364D01*
X-246270Y313254D01*
Y312094D01*
X-246270Y311984D01*
Y308914D01*
X-252661D01*
X-253691Y309944D01*
X-255261Y310594D01*
X-256959D01*
X-258529Y309944D01*
X-259730Y308743D01*
X-260380Y307173D01*
Y305475D01*
X-259730Y303905D01*
X-258529Y302704D01*
X-256959Y302054D01*
X-255261D01*
X-253691Y302704D01*
X-252661Y303734D01*
X-246270D01*
Y300664D01*
X-246270Y300554D01*
Y299394D01*
X-246270Y299284D01*
Y296214D01*
X-252661D01*
X-253691Y297244D01*
X-255261Y297894D01*
X-256959D01*
X-258529Y297244D01*
X-259730Y296043D01*
X-260380Y294473D01*
Y292775D01*
X-259730Y291205D01*
X-258529Y290004D01*
X-256959Y289354D01*
X-255261D01*
X-253691Y290004D01*
X-252661Y291034D01*
X-246270D01*
Y287964D01*
X-246270Y287854D01*
Y286694D01*
X-246270Y286584D01*
Y283514D01*
X-252661D01*
X-253691Y284544D01*
X-255261Y285194D01*
X-256959D01*
X-258529Y284544D01*
X-259730Y283343D01*
X-260380Y281773D01*
Y280075D01*
X-259730Y278505D01*
X-258529Y277304D01*
X-256959Y276654D01*
X-255261D01*
X-253691Y277304D01*
X-252661Y278334D01*
X-246270D01*
Y275154D01*
X-228730D01*
Y286584D01*
X-228730Y286694D01*
Y287854D01*
X-228730Y287964D01*
Y299284D01*
X-228730Y299394D01*
Y300554D01*
X-228730Y300664D01*
Y311984D01*
X-228730Y312094D01*
Y313254D01*
X-228730Y313364D01*
Y324684D01*
X-228730Y324794D01*
Y325954D01*
X-228730Y326064D01*
Y337384D01*
X-228730Y337494D01*
Y338654D01*
X-228730Y338764D01*
Y350084D01*
X-228730Y350194D01*
Y351354D01*
X-228730Y351464D01*
Y362784D01*
X-228730Y362894D01*
Y364054D01*
X-228730Y364164D01*
Y375484D01*
X-228730Y375594D01*
Y376754D01*
X-228730Y376864D01*
Y388184D01*
X-228730Y388294D01*
Y389454D01*
X-228730Y389564D01*
Y400884D01*
X-228730Y400994D01*
Y402154D01*
X-228730Y402264D01*
Y413584D01*
X-228730Y413694D01*
Y414854D01*
X-228730Y414964D01*
Y426284D01*
X-228730Y426394D01*
Y427554D01*
X-228730Y427664D01*
Y438984D01*
X-228730Y439094D01*
Y440254D01*
X-228730Y440364D01*
Y445389D01*
X-246270D01*
Y440364D01*
X-246270Y440254D01*
Y439094D01*
X-246270Y438984D01*
Y435914D01*
X-251794D01*
Y439856D01*
X-264210D01*
X-264781Y440836D01*
X-264210Y441816D01*
X-263680Y441816D01*
X-258699D01*
Y447586D01*
Y453356D01*
X-263680D01*
X-264334Y453356D01*
X-264950Y454371D01*
Y464946D01*
X-264914D01*
X-265259Y469331D01*
X-266285Y473607D01*
X-267968Y477670D01*
X-270266Y481420D01*
X-273122Y484764D01*
X-276467Y487620D01*
X-280216Y489918D01*
X-284279Y491601D01*
X-288556Y492628D01*
X-292940Y492973D01*
Y492936D01*
X-302484D01*
X-302603Y493224D01*
X-304032Y494653D01*
X-305900Y495426D01*
D02*
G37*
G36*
X-290718Y425537D02*
X-292305D01*
Y420389D01*
X-287157D01*
Y421977D01*
X-287428Y423339D01*
X-288200Y424495D01*
X-289355Y425266D01*
X-290718Y425537D01*
D02*
G37*
G36*
X-293575D02*
X-295163D01*
X-296525Y425266D01*
X-297680Y424495D01*
X-298452Y423339D01*
X-298723Y421977D01*
Y420389D01*
X-293575D01*
Y425537D01*
D02*
G37*
G36*
X-364170Y425624D02*
X-369305D01*
Y419989D01*
X-364170D01*
Y425624D01*
D02*
G37*
G36*
X-370575D02*
X-375710D01*
Y419989D01*
X-370575D01*
Y425624D01*
D02*
G37*
G36*
X-287157Y419119D02*
X-292305D01*
Y413971D01*
X-290718D01*
X-289355Y414242D01*
X-288200Y415014D01*
X-287428Y416169D01*
X-287157Y417532D01*
Y419119D01*
D02*
G37*
G36*
X-293575D02*
X-298723D01*
Y417532D01*
X-298452Y416169D01*
X-297680Y415014D01*
X-296525Y414242D01*
X-295163Y413971D01*
X-293575D01*
Y419119D01*
D02*
G37*
G36*
X-364170Y418719D02*
X-369305D01*
Y413084D01*
X-364170D01*
Y418719D01*
D02*
G37*
G36*
X-370575D02*
X-375710D01*
Y413084D01*
X-370575D01*
Y418719D01*
D02*
G37*
G36*
X-438443Y410353D02*
X-442868D01*
X-443651Y410197D01*
X-444315Y409754D01*
X-444757Y409092D01*
X-444768Y409090D01*
X-446042D01*
X-446053Y409092D01*
X-446495Y409754D01*
X-447160Y410197D01*
X-447943Y410353D01*
X-449520D01*
Y402994D01*
X-450790D01*
Y410353D01*
X-452368D01*
X-453151Y410197D01*
X-453815Y409754D01*
X-454257Y409092D01*
X-454268Y409090D01*
X-455542D01*
X-455553Y409092D01*
X-455995Y409754D01*
X-456660Y410197D01*
X-457443Y410353D01*
X-461868D01*
X-462651Y410197D01*
X-463315Y409754D01*
X-463759Y409090D01*
X-463915Y408307D01*
Y397682D01*
X-463759Y396898D01*
X-463315Y396234D01*
X-462651Y395790D01*
X-461868Y395635D01*
X-459654D01*
X-454843Y390824D01*
X-454674Y389624D01*
X-454647Y389257D01*
X-454631Y389179D01*
X-454631Y389179D01*
X-454629Y389166D01*
X-454553Y388395D01*
X-454389Y386737D01*
X-453548Y383962D01*
X-452180Y381404D01*
X-450341Y379162D01*
X-448099Y377323D01*
X-445541Y375956D01*
X-442766Y375114D01*
X-439879Y374829D01*
Y374851D01*
X-386539D01*
Y374827D01*
X-383551Y375121D01*
X-380678Y375993D01*
X-378030Y377408D01*
X-375709Y379313D01*
X-373804Y381634D01*
X-372388Y384282D01*
X-371517Y387156D01*
X-371337Y388980D01*
X-367561Y392756D01*
X-367000Y393596D01*
X-366899Y394104D01*
X-366815D01*
X-366017Y394263D01*
X-365341Y394715D01*
X-364889Y395391D01*
X-364730Y396189D01*
Y407739D01*
X-364889Y408537D01*
X-365341Y409213D01*
X-366017Y409665D01*
X-366815Y409824D01*
X-371465D01*
X-372263Y409665D01*
X-372939Y409213D01*
X-373391Y408537D01*
X-373550Y407739D01*
Y396189D01*
X-373391Y395391D01*
X-372939Y394715D01*
X-372939Y394707D01*
X-374883Y392763D01*
X-375743Y392038D01*
X-376604Y392763D01*
X-378087Y394245D01*
X-378041Y394715D01*
X-377589Y395391D01*
X-377430Y396189D01*
Y407739D01*
X-377589Y408537D01*
X-378041Y409213D01*
X-378717Y409665D01*
X-379515Y409824D01*
X-384165D01*
X-384963Y409665D01*
X-385639Y409213D01*
X-386091Y408537D01*
X-386250Y407739D01*
Y396189D01*
X-386091Y395391D01*
X-385639Y394715D01*
X-384963Y394263D01*
X-384605Y394192D01*
X-384487Y393596D01*
X-383925Y392756D01*
X-380381Y389212D01*
X-380679Y387716D01*
X-382054Y385658D01*
X-384112Y384283D01*
X-386427Y383823D01*
X-386539Y383845D01*
X-411762D01*
X-412423Y384835D01*
X-413600Y385621D01*
X-414987Y385897D01*
X-416375Y385621D01*
X-417552Y384835D01*
X-418213Y383845D01*
X-420830D01*
X-420857Y383839D01*
X-421361Y384048D01*
X-421974Y385064D01*
D01*
X-422467Y387542D01*
X-423871Y389643D01*
X-425971Y391047D01*
X-428450Y391540D01*
X-430928Y391047D01*
X-433028Y389643D01*
X-434432Y387542D01*
X-434925Y385064D01*
X-434925D01*
X-435538Y384048D01*
X-436042Y383839D01*
X-436069Y383845D01*
X-439879D01*
X-439966Y383828D01*
X-442104Y384253D01*
X-443990Y385513D01*
X-445250Y387399D01*
X-445417Y388237D01*
X-445627Y389296D01*
X-445616Y390116D01*
X-445571Y390653D01*
X-445590Y390701D01*
X-440656Y395635D01*
X-438443D01*
X-437659Y395790D01*
X-436995Y396234D01*
X-436552Y396898D01*
X-436396Y397682D01*
Y408307D01*
X-436552Y409090D01*
X-436995Y409754D01*
X-437659Y410197D01*
X-438443Y410353D01*
D02*
G37*
G36*
X-868510Y434594D02*
X-870530D01*
X-872398Y433821D01*
X-873827Y432392D01*
X-874600Y430524D01*
Y428503D01*
X-873827Y426636D01*
X-873405Y426214D01*
Y419447D01*
Y404207D01*
Y388967D01*
Y373727D01*
Y358487D01*
Y343247D01*
Y328007D01*
Y312767D01*
X-873402Y312753D01*
X-873435Y312674D01*
X-873387Y312559D01*
X-873414Y312437D01*
X-872103Y304930D01*
X-872065Y304870D01*
Y297752D01*
X-872110Y297527D01*
X-872178D01*
X-871706Y292729D01*
X-870306Y288115D01*
X-868033Y283862D01*
X-864975Y280135D01*
X-861247Y277077D01*
X-856995Y274804D01*
X-853353Y273699D01*
Y269320D01*
X-841813D01*
Y281860D01*
X-853353D01*
Y280206D01*
X-854373Y279450D01*
X-854993Y279638D01*
X-858341Y281427D01*
X-861275Y283835D01*
X-863683Y286769D01*
X-865472Y290117D01*
X-866574Y293749D01*
X-866750Y295537D01*
X-865524Y296045D01*
X-864975Y295375D01*
X-861247Y292317D01*
X-856995Y290044D01*
X-853353Y288939D01*
Y284560D01*
X-841813D01*
Y297100D01*
X-853353D01*
Y295446D01*
X-854373Y294690D01*
X-854993Y294878D01*
X-858341Y296667D01*
X-861275Y299075D01*
X-863683Y302009D01*
X-865472Y305357D01*
X-865605Y305795D01*
Y309490D01*
X-864335Y310091D01*
X-861247Y307557D01*
X-856995Y305284D01*
X-853353Y304179D01*
Y299800D01*
X-841813D01*
Y312340D01*
X-853353D01*
Y310686D01*
X-854373Y309930D01*
X-854993Y310118D01*
X-858341Y311907D01*
X-861275Y314315D01*
X-863683Y317249D01*
X-865472Y320597D01*
X-865635Y321134D01*
Y324755D01*
X-864365Y325355D01*
X-861247Y322797D01*
X-856995Y320524D01*
X-853353Y319419D01*
Y315040D01*
X-841813D01*
Y327580D01*
X-853353D01*
Y325926D01*
X-854373Y325170D01*
X-854993Y325358D01*
X-858341Y327147D01*
X-861275Y329555D01*
X-863683Y332489D01*
X-865472Y335837D01*
X-865635Y336374D01*
Y339995D01*
X-864365Y340595D01*
X-861247Y338037D01*
X-856995Y335764D01*
X-853353Y334659D01*
Y330280D01*
X-841813D01*
Y342820D01*
X-853353D01*
Y341166D01*
X-854373Y340410D01*
X-854993Y340598D01*
X-858341Y342387D01*
X-861275Y344795D01*
X-863683Y347729D01*
X-865472Y351077D01*
X-865635Y351614D01*
Y355235D01*
X-864365Y355835D01*
X-861247Y353277D01*
X-856995Y351004D01*
X-853353Y349899D01*
Y345520D01*
X-841813D01*
Y358060D01*
X-853353D01*
Y356406D01*
X-854373Y355650D01*
X-854993Y355838D01*
X-858341Y357627D01*
X-861275Y360035D01*
X-863683Y362969D01*
X-865472Y366317D01*
X-865635Y366854D01*
Y370475D01*
X-864365Y371075D01*
X-861247Y368517D01*
X-856995Y366244D01*
X-853353Y365139D01*
Y360760D01*
X-841813D01*
Y373300D01*
X-853353D01*
Y371646D01*
X-854373Y370890D01*
X-854993Y371078D01*
X-858341Y372867D01*
X-861275Y375275D01*
X-863683Y378209D01*
X-865472Y381557D01*
X-865635Y382094D01*
Y385715D01*
X-864365Y386315D01*
X-861247Y383757D01*
X-856995Y381484D01*
X-853353Y380379D01*
Y376000D01*
X-841813D01*
Y388540D01*
X-853353D01*
Y386886D01*
X-854373Y386130D01*
X-854993Y386318D01*
X-858341Y388107D01*
X-861275Y390515D01*
X-863683Y393449D01*
X-865472Y396797D01*
X-865635Y397334D01*
Y400955D01*
X-864365Y401555D01*
X-861247Y398997D01*
X-856995Y396724D01*
X-853353Y395619D01*
Y391240D01*
X-841813D01*
Y403780D01*
X-853353D01*
Y402126D01*
X-854373Y401370D01*
X-854993Y401558D01*
X-858341Y403347D01*
X-861275Y405755D01*
X-863683Y408689D01*
X-865472Y412037D01*
X-865635Y412574D01*
Y413626D01*
X-864487Y414169D01*
X-863533Y413386D01*
X-860179Y411593D01*
X-856540Y410489D01*
X-853353Y410175D01*
Y406480D01*
X-841813D01*
Y419020D01*
X-853353D01*
Y416337D01*
X-854308Y415500D01*
X-856436Y415780D01*
X-859865Y417200D01*
X-862810Y419460D01*
X-865070Y422405D01*
X-865635Y423770D01*
Y426214D01*
X-865213Y426636D01*
X-864440Y428503D01*
Y430524D01*
X-865213Y432392D01*
X-866642Y433821D01*
X-868510Y434594D01*
D02*
G37*
G36*
X-316015Y409824D02*
X-317705D01*
Y402599D01*
X-313930D01*
Y407739D01*
X-314089Y408537D01*
X-314541Y409213D01*
X-315217Y409665D01*
X-316015Y409824D01*
D02*
G37*
G36*
X-318975D02*
X-320665D01*
X-321463Y409665D01*
X-322139Y409213D01*
X-322591Y408537D01*
X-322750Y407739D01*
Y402599D01*
X-318975D01*
Y409824D01*
D02*
G37*
G36*
X-470820Y406944D02*
X-476455D01*
Y401809D01*
X-470820D01*
Y406944D01*
D02*
G37*
G36*
X-477725D02*
X-483360D01*
Y401809D01*
X-477725D01*
Y406944D01*
D02*
G37*
G36*
X-290718Y412037D02*
X-295163D01*
X-296525Y411766D01*
X-297680Y410994D01*
X-298452Y409839D01*
X-298723Y408476D01*
Y404031D01*
X-298452Y402669D01*
X-297680Y401513D01*
X-296525Y400742D01*
X-295163Y400471D01*
X-290718D01*
X-289355Y400742D01*
X-288200Y401513D01*
X-287428Y402669D01*
X-287281Y403405D01*
X-283970D01*
Y400484D01*
X-271430D01*
Y412024D01*
X-283970D01*
Y409103D01*
X-287281D01*
X-287428Y409839D01*
X-288200Y410994D01*
X-289355Y411766D01*
X-290718Y412037D01*
D02*
G37*
G36*
X-769813Y416560D02*
X-772153D01*
X-774415Y415954D01*
X-776442Y414784D01*
X-778097Y413129D01*
X-779267Y411101D01*
X-779873Y408840D01*
Y406500D01*
X-779267Y404239D01*
X-778097Y402211D01*
X-776442Y400556D01*
X-774415Y399386D01*
X-772153Y398780D01*
X-769813D01*
X-767552Y399386D01*
X-765525Y400556D01*
X-763869Y402211D01*
X-762699Y404239D01*
X-762093Y406500D01*
Y408840D01*
X-762699Y411101D01*
X-763869Y413129D01*
X-765525Y414784D01*
X-767552Y415954D01*
X-769813Y416560D01*
D02*
G37*
G36*
X-828313Y419020D02*
X-839853D01*
Y406480D01*
X-828313D01*
Y410160D01*
X-821460D01*
X-821401Y410172D01*
X-819455Y409785D01*
X-818776Y409331D01*
X-817811Y408594D01*
X-817811Y408594D01*
X-815287Y406658D01*
X-812349Y405441D01*
X-809196Y405026D01*
Y405080D01*
X-805373D01*
Y403860D01*
X-804978Y401878D01*
X-803856Y400197D01*
X-802175Y399075D01*
X-800193Y398680D01*
X-792573D01*
X-790591Y399075D01*
X-788911Y400197D01*
X-787788Y401878D01*
X-787394Y403860D01*
Y411480D01*
X-787788Y413462D01*
X-788911Y415142D01*
X-790591Y416265D01*
X-792573Y416660D01*
X-800193D01*
X-802175Y416265D01*
X-803856Y415142D01*
X-804978Y413462D01*
X-805373Y411480D01*
Y410260D01*
X-809196D01*
Y410278D01*
X-810990Y410514D01*
X-812662Y411206D01*
X-814080Y412295D01*
X-814082Y412323D01*
Y412323D01*
X-816243Y413981D01*
X-818759Y415024D01*
X-821460Y415379D01*
Y415340D01*
X-828313D01*
Y419020D01*
D02*
G37*
G36*
X-470820Y400539D02*
X-476455D01*
Y395404D01*
X-470820D01*
Y400539D01*
D02*
G37*
G36*
X-477725D02*
X-483360D01*
Y395404D01*
X-477725D01*
Y400539D01*
D02*
G37*
G36*
X-313930Y401329D02*
X-317705D01*
Y394104D01*
X-316015D01*
X-315217Y394263D01*
X-314541Y394715D01*
X-314089Y395391D01*
X-313930Y396189D01*
Y401329D01*
D02*
G37*
G36*
X-318975D02*
X-322750D01*
Y396189D01*
X-322591Y395391D01*
X-322139Y394715D01*
X-321463Y394263D01*
X-320665Y394104D01*
X-318975D01*
Y401329D01*
D02*
G37*
G36*
X-330191Y419814D02*
X-331889D01*
X-333459Y419164D01*
X-334660Y417963D01*
X-335310Y416393D01*
Y414695D01*
X-334660Y413125D01*
X-333630Y412095D01*
Y409771D01*
X-334163Y409665D01*
X-334839Y409213D01*
X-335291Y408537D01*
X-335450Y407739D01*
Y396189D01*
X-335291Y395391D01*
X-334839Y394715D01*
X-334163Y394263D01*
X-333365Y394104D01*
X-328715D01*
X-327917Y394263D01*
X-327241Y394715D01*
X-326789Y395391D01*
X-326630Y396189D01*
Y407739D01*
X-326789Y408537D01*
X-327241Y409213D01*
X-327917Y409665D01*
X-328450Y409771D01*
Y412095D01*
X-327420Y413125D01*
X-326770Y414695D01*
Y416393D01*
X-327420Y417963D01*
X-328621Y419164D01*
X-330191Y419814D01*
D02*
G37*
G36*
X-342891D02*
X-344589D01*
X-346159Y419164D01*
X-347360Y417963D01*
X-348010Y416393D01*
Y414695D01*
X-347360Y413125D01*
X-346330Y412095D01*
Y409771D01*
X-346863Y409665D01*
X-347539Y409213D01*
X-347991Y408537D01*
X-348150Y407739D01*
Y396189D01*
X-347991Y395391D01*
X-347539Y394715D01*
X-346863Y394263D01*
X-346065Y394104D01*
X-341415D01*
X-340617Y394263D01*
X-339941Y394715D01*
X-339489Y395391D01*
X-339330Y396189D01*
Y407739D01*
X-339489Y408537D01*
X-339941Y409213D01*
X-340617Y409665D01*
X-341150Y409771D01*
Y412095D01*
X-340120Y413125D01*
X-339470Y414695D01*
Y416393D01*
X-340120Y417963D01*
X-341321Y419164D01*
X-342891Y419814D01*
D02*
G37*
G36*
X-350670Y425624D02*
X-362210D01*
Y413084D01*
X-360325D01*
Y409086D01*
X-360691Y408537D01*
X-360850Y407739D01*
Y396189D01*
X-360691Y395391D01*
X-360239Y394715D01*
X-359563Y394263D01*
X-358765Y394104D01*
X-354115D01*
X-353317Y394263D01*
X-352641Y394715D01*
X-352189Y395391D01*
X-352030Y396189D01*
Y407739D01*
X-352189Y408537D01*
X-352555Y409086D01*
Y413084D01*
X-350670D01*
Y425624D01*
D02*
G37*
G36*
X-392215Y409824D02*
X-396865D01*
X-397663Y409665D01*
X-398339Y409213D01*
X-398791Y408537D01*
X-398950Y407739D01*
Y396189D01*
X-398791Y395391D01*
X-398339Y394715D01*
X-397663Y394263D01*
X-396865Y394104D01*
X-392215D01*
X-391417Y394263D01*
X-390741Y394715D01*
X-390289Y395391D01*
X-390130Y396189D01*
Y407739D01*
X-390289Y408537D01*
X-390741Y409213D01*
X-391417Y409665D01*
X-392215Y409824D01*
D02*
G37*
G36*
X-404915D02*
X-409565D01*
X-410363Y409665D01*
X-411039Y409213D01*
X-411491Y408537D01*
X-411650Y407739D01*
Y396189D01*
X-411491Y395391D01*
X-411039Y394715D01*
X-410363Y394263D01*
X-409565Y394104D01*
X-404915D01*
X-404117Y394263D01*
X-403441Y394715D01*
X-402989Y395391D01*
X-402830Y396189D01*
Y407739D01*
X-402989Y408537D01*
X-403441Y409213D01*
X-404117Y409665D01*
X-404915Y409824D01*
D02*
G37*
G36*
X-145230Y388594D02*
X-150365D01*
Y383459D01*
X-145230D01*
Y388594D01*
D02*
G37*
G36*
X-151635D02*
X-156770D01*
Y383459D01*
X-151635D01*
Y388594D01*
D02*
G37*
G36*
X-159230D02*
X-164365D01*
Y383459D01*
X-159230D01*
Y388594D01*
D02*
G37*
G36*
X-165635D02*
X-170770D01*
Y383459D01*
X-165635D01*
Y388594D01*
D02*
G37*
G36*
X-173230D02*
X-178365D01*
Y383459D01*
X-173230D01*
Y388594D01*
D02*
G37*
G36*
X-179635D02*
X-184770D01*
Y383459D01*
X-179635D01*
Y388594D01*
D02*
G37*
G36*
X-497190Y387524D02*
X-502325D01*
Y381889D01*
X-497190D01*
Y387524D01*
D02*
G37*
G36*
X-503595D02*
X-508730D01*
Y381889D01*
X-503595D01*
Y387524D01*
D02*
G37*
G36*
X-145230Y382189D02*
X-150365D01*
Y377054D01*
X-145230D01*
Y382189D01*
D02*
G37*
G36*
X-151635D02*
X-156770D01*
Y377054D01*
X-151635D01*
Y382189D01*
D02*
G37*
G36*
X-159230D02*
X-164365D01*
Y377054D01*
X-159230D01*
Y382189D01*
D02*
G37*
G36*
X-165635D02*
X-170770D01*
Y377054D01*
X-165635D01*
Y382189D01*
D02*
G37*
G36*
X-173230D02*
X-178365D01*
Y377054D01*
X-173230D01*
Y382189D01*
D02*
G37*
G36*
X-179635D02*
X-184770D01*
Y377054D01*
X-179635D01*
Y382189D01*
D02*
G37*
G36*
X-497190Y380619D02*
X-502325D01*
Y374984D01*
X-497190D01*
Y380619D01*
D02*
G37*
G36*
X-503595D02*
X-508730D01*
Y374984D01*
X-503595D01*
Y380619D01*
D02*
G37*
G36*
X-145230Y374594D02*
X-150365D01*
Y369459D01*
X-145230D01*
Y374594D01*
D02*
G37*
G36*
X-151635D02*
X-156770D01*
Y369459D01*
X-151635D01*
Y374594D01*
D02*
G37*
G36*
X-159230D02*
X-164365D01*
Y369459D01*
X-159230D01*
Y374594D01*
D02*
G37*
G36*
X-165635D02*
X-170770D01*
Y369459D01*
X-165635D01*
Y374594D01*
D02*
G37*
G36*
X-173230D02*
X-178365D01*
Y369459D01*
X-173230D01*
Y374594D01*
D02*
G37*
G36*
X-179635D02*
X-184770D01*
Y369459D01*
X-179635D01*
Y374594D01*
D02*
G37*
G36*
X-145230Y368189D02*
X-150365D01*
Y363054D01*
X-145230D01*
Y368189D01*
D02*
G37*
G36*
X-151635D02*
X-156770D01*
Y363054D01*
X-151635D01*
Y368189D01*
D02*
G37*
G36*
X-159230D02*
X-164365D01*
Y363054D01*
X-159230D01*
Y368189D01*
D02*
G37*
G36*
X-165635D02*
X-170770D01*
Y363054D01*
X-165635D01*
Y368189D01*
D02*
G37*
G36*
X-173230D02*
X-178365D01*
Y363054D01*
X-173230D01*
Y368189D01*
D02*
G37*
G36*
X-179635D02*
X-184770D01*
Y363054D01*
X-179635D01*
Y368189D01*
D02*
G37*
G36*
X-296830Y366234D02*
X-302465D01*
Y361099D01*
X-296830D01*
Y366234D01*
D02*
G37*
G36*
X-303735D02*
X-309370D01*
Y361099D01*
X-303735D01*
Y366234D01*
D02*
G37*
G36*
X-145230Y360594D02*
X-150365D01*
Y355459D01*
X-145230D01*
Y360594D01*
D02*
G37*
G36*
X-151635D02*
X-156770D01*
Y355459D01*
X-151635D01*
Y360594D01*
D02*
G37*
G36*
X-159230D02*
X-164365D01*
Y355459D01*
X-159230D01*
Y360594D01*
D02*
G37*
G36*
X-165635D02*
X-170770D01*
Y355459D01*
X-165635D01*
Y360594D01*
D02*
G37*
G36*
X-173230D02*
X-178365D01*
Y355459D01*
X-173230D01*
Y360594D01*
D02*
G37*
G36*
X-179635D02*
X-184770D01*
Y355459D01*
X-179635D01*
Y360594D01*
D02*
G37*
G36*
X-296830Y359829D02*
X-302465D01*
Y354694D01*
X-296830D01*
Y359829D01*
D02*
G37*
G36*
X-303735D02*
X-309370D01*
Y354694D01*
X-303735D01*
Y359829D01*
D02*
G37*
G36*
X-493190Y369204D02*
X-501730D01*
Y352664D01*
X-493190D01*
Y369204D01*
D02*
G37*
G36*
X-145230Y354189D02*
X-150365D01*
Y349054D01*
X-145230D01*
Y354189D01*
D02*
G37*
G36*
X-151635D02*
X-156770D01*
Y349054D01*
X-151635D01*
Y354189D01*
D02*
G37*
G36*
X-159230D02*
X-164365D01*
Y349054D01*
X-159230D01*
Y354189D01*
D02*
G37*
G36*
X-165635D02*
X-170770D01*
Y349054D01*
X-165635D01*
Y354189D01*
D02*
G37*
G36*
X-173230D02*
X-178365D01*
Y349054D01*
X-173230D01*
Y354189D01*
D02*
G37*
G36*
X-179635D02*
X-184770D01*
Y349054D01*
X-179635D01*
Y354189D01*
D02*
G37*
G36*
X-328715Y354824D02*
X-333365D01*
X-334163Y354665D01*
X-334839Y354213D01*
X-335291Y353537D01*
X-335450Y352739D01*
Y341189D01*
X-335291Y340391D01*
X-334839Y339715D01*
X-334163Y339263D01*
X-333365Y339104D01*
X-328715D01*
X-327917Y339263D01*
X-327241Y339715D01*
X-326789Y340391D01*
X-326630Y341189D01*
Y352739D01*
X-326789Y353537D01*
X-327241Y354213D01*
X-327917Y354665D01*
X-328715Y354824D01*
D02*
G37*
G36*
X-366815D02*
X-371465D01*
X-372263Y354665D01*
X-372939Y354213D01*
X-373391Y353537D01*
X-373550Y352739D01*
Y341189D01*
X-373391Y340391D01*
X-372939Y339715D01*
X-372263Y339263D01*
X-371465Y339104D01*
X-366815D01*
X-366017Y339263D01*
X-365341Y339715D01*
X-364889Y340391D01*
X-364730Y341189D01*
Y352739D01*
X-364889Y353537D01*
X-365341Y354213D01*
X-366017Y354665D01*
X-366815Y354824D01*
D02*
G37*
G36*
X-379515D02*
X-384165D01*
X-384963Y354665D01*
X-385639Y354213D01*
X-386091Y353537D01*
X-386250Y352739D01*
Y341189D01*
X-386091Y340391D01*
X-385639Y339715D01*
X-384963Y339263D01*
X-384165Y339104D01*
X-379515D01*
X-378717Y339263D01*
X-378041Y339715D01*
X-377589Y340391D01*
X-377430Y341189D01*
Y352739D01*
X-377589Y353537D01*
X-378041Y354213D01*
X-378717Y354665D01*
X-379515Y354824D01*
D02*
G37*
G36*
X-392215D02*
X-396865D01*
X-397663Y354665D01*
X-398339Y354213D01*
X-398791Y353537D01*
X-398950Y352739D01*
Y341189D01*
X-398791Y340391D01*
X-398339Y339715D01*
X-397663Y339263D01*
X-396865Y339104D01*
X-392215D01*
X-391417Y339263D01*
X-390741Y339715D01*
X-390289Y340391D01*
X-390130Y341189D01*
Y352739D01*
X-390289Y353537D01*
X-390741Y354213D01*
X-391417Y354665D01*
X-392215Y354824D01*
D02*
G37*
G36*
X-404915D02*
X-409565D01*
X-410363Y354665D01*
X-411039Y354213D01*
X-411491Y353537D01*
X-411650Y352739D01*
Y341189D01*
X-411491Y340391D01*
X-411039Y339715D01*
X-410363Y339263D01*
X-409565Y339104D01*
X-404915D01*
X-404117Y339263D01*
X-403441Y339715D01*
X-402989Y340391D01*
X-402830Y341189D01*
Y352739D01*
X-402989Y353537D01*
X-403441Y354213D01*
X-404117Y354665D01*
X-404915Y354824D01*
D02*
G37*
G36*
X-769813Y340360D02*
X-770348D01*
Y332105D01*
X-762093D01*
Y332640D01*
X-762699Y334901D01*
X-763869Y336928D01*
X-765525Y338584D01*
X-767552Y339754D01*
X-769813Y340360D01*
D02*
G37*
G36*
X-771618D02*
X-772153D01*
X-774415Y339754D01*
X-776442Y338584D01*
X-778097Y336928D01*
X-779267Y334901D01*
X-779873Y332640D01*
Y332105D01*
X-771618D01*
Y340360D01*
D02*
G37*
G36*
X-316015Y354824D02*
X-320665D01*
X-321463Y354665D01*
X-322139Y354213D01*
X-322591Y353537D01*
X-322750Y352739D01*
Y341189D01*
X-322591Y340391D01*
X-322139Y339715D01*
X-321463Y339263D01*
X-320665Y339104D01*
X-316015D01*
X-315217Y339263D01*
X-314541Y339715D01*
X-314089Y340391D01*
X-313930Y341189D01*
Y343079D01*
X-309370D01*
Y341194D01*
X-296830D01*
Y343102D01*
X-295560Y344216D01*
X-294462Y344071D01*
X-292331Y343189D01*
X-290500Y341784D01*
X-289095Y339953D01*
X-288213Y337822D01*
X-287913Y335545D01*
X-287922Y335534D01*
X-287922D01*
X-287922Y335534D01*
X-288180Y333578D01*
X-288935Y331755D01*
X-290136Y330190D01*
X-291701Y328989D01*
X-293524Y328234D01*
X-295480Y327976D01*
Y327964D01*
X-300010D01*
X-300711Y328664D01*
X-302280Y329314D01*
X-303979D01*
X-305548Y328664D01*
X-306749Y327463D01*
X-307399Y325894D01*
Y324195D01*
X-306749Y322625D01*
X-305548Y321424D01*
X-303979Y320774D01*
X-302280D01*
X-300711Y321424D01*
X-299510Y322625D01*
X-299444Y322784D01*
X-295480D01*
Y322724D01*
X-292165Y323161D01*
X-289075Y324441D01*
X-286422Y326476D01*
X-284387Y329129D01*
X-283107Y332219D01*
X-282670Y335534D01*
X-282659D01*
X-283140Y339181D01*
X-284547Y342579D01*
X-286786Y345498D01*
X-289705Y347737D01*
X-293103Y349144D01*
X-296750Y349624D01*
X-296830Y350861D01*
Y352734D01*
X-309370D01*
Y350849D01*
X-313930D01*
Y352739D01*
X-314089Y353537D01*
X-314541Y354213D01*
X-315217Y354665D01*
X-316015Y354824D01*
D02*
G37*
G36*
X-581310Y331436D02*
X-586945D01*
Y326301D01*
X-581310D01*
Y331436D01*
D02*
G37*
G36*
X-588215D02*
X-593850D01*
Y326301D01*
X-588215D01*
Y331436D01*
D02*
G37*
G36*
X-26500Y349504D02*
X-28521D01*
X-30388Y348731D01*
X-31817Y347302D01*
X-32590Y345434D01*
Y343414D01*
X-31817Y341546D01*
X-30388Y340117D01*
X-30100Y339998D01*
Y334827D01*
X-30501Y331782D01*
X-31767Y328723D01*
X-33783Y326097D01*
X-35210Y325002D01*
X-36480Y325594D01*
Y325594D01*
X-49020D01*
Y314054D01*
X-36480D01*
Y318386D01*
X-35913Y318558D01*
X-32824Y320209D01*
X-31370Y321403D01*
X-30100Y320802D01*
Y312494D01*
X-33780D01*
Y300954D01*
X-21240D01*
Y312494D01*
X-24920D01*
Y334696D01*
X-24884Y335064D01*
X-24920D01*
Y339998D01*
X-24632Y340117D01*
X-23203Y341546D01*
X-22430Y343414D01*
Y345434D01*
X-23203Y347302D01*
X-24632Y348731D01*
X-26500Y349504D01*
D02*
G37*
G36*
X-762093Y330835D02*
X-770348D01*
Y322580D01*
X-769813D01*
X-767552Y323186D01*
X-765525Y324356D01*
X-763869Y326011D01*
X-762699Y328038D01*
X-762093Y330300D01*
Y330835D01*
D02*
G37*
G36*
X-771618D02*
X-779873D01*
Y330300D01*
X-779267Y328038D01*
X-778097Y326011D01*
X-776442Y324356D01*
X-774415Y323186D01*
X-772153Y322580D01*
X-771618D01*
Y330835D01*
D02*
G37*
G36*
X-828313Y342820D02*
X-839853D01*
Y330280D01*
X-828313D01*
Y333960D01*
X-808647D01*
X-808498Y333990D01*
X-805951Y333655D01*
X-805273Y332640D01*
Y330300D01*
X-804667Y328038D01*
X-803497Y326011D01*
X-801842Y324356D01*
X-799815Y323186D01*
X-797553Y322580D01*
X-795213D01*
X-792952Y323186D01*
X-790925Y324356D01*
X-789269Y326011D01*
X-788099Y328038D01*
X-787493Y330300D01*
Y332640D01*
X-788099Y334901D01*
X-789269Y336928D01*
X-790925Y338584D01*
X-792952Y339754D01*
X-795213Y340360D01*
X-797553D01*
X-799815Y339754D01*
X-801842Y338584D01*
X-802351Y338075D01*
X-804749Y338802D01*
X-808647Y339186D01*
Y339140D01*
X-828313D01*
Y342820D01*
D02*
G37*
G36*
X-574703Y408819D02*
X-576724D01*
X-578591Y408045D01*
X-580020Y406616D01*
X-580793Y404749D01*
Y402728D01*
X-580020Y400861D01*
X-578591Y399432D01*
X-576724Y398658D01*
X-575651D01*
X-575449Y398493D01*
X-571997Y396648D01*
X-568251Y395512D01*
X-564355Y395128D01*
Y395149D01*
X-548442D01*
X-547870Y394294D01*
X-546715Y393522D01*
X-545353Y393251D01*
X-540908D01*
X-539545Y393522D01*
X-538390Y394294D01*
X-537818Y395149D01*
X-534240D01*
X-534037Y395190D01*
X-530626Y394741D01*
X-527259Y393346D01*
X-524367Y391127D01*
X-522493Y388685D01*
X-522230Y387524D01*
X-522230Y387524D01*
Y374984D01*
X-520345D01*
Y369204D01*
X-520730D01*
Y352664D01*
X-512190D01*
Y369204D01*
X-512575D01*
Y374984D01*
X-510690D01*
Y387524D01*
X-510690D01*
X-511174Y388505D01*
X-510551Y389315D01*
X-508190Y391127D01*
X-505441Y392266D01*
X-502551Y392646D01*
X-502490Y392634D01*
X-501220D01*
Y392633D01*
X-498136Y392329D01*
X-495172Y391430D01*
X-492439Y389969D01*
X-490044Y388004D01*
X-490043Y388005D01*
X-433021Y330982D01*
X-433047Y330956D01*
X-429702Y328100D01*
X-425953Y325802D01*
X-421890Y324119D01*
X-417613Y323093D01*
X-413229Y322748D01*
Y322784D01*
X-377935D01*
X-377869Y322625D01*
X-376668Y321424D01*
X-375099Y320774D01*
X-373400D01*
X-371831Y321424D01*
X-370630Y322625D01*
X-369979Y324195D01*
Y325894D01*
X-370630Y327463D01*
X-371831Y328664D01*
X-373400Y329314D01*
X-375099D01*
X-376668Y328664D01*
X-377368Y327964D01*
X-413229D01*
X-413339Y327942D01*
X-417685Y328370D01*
X-421971Y329670D01*
X-425920Y331781D01*
X-429296Y334551D01*
X-429358Y334645D01*
X-486381Y391667D01*
X-486344Y391703D01*
X-489532Y394320D01*
X-493169Y396264D01*
X-497116Y397461D01*
X-501220Y397865D01*
Y397814D01*
X-502490D01*
Y397844D01*
X-505727Y397525D01*
X-508839Y396581D01*
X-511707Y395048D01*
X-514221Y392985D01*
X-514591Y392534D01*
X-515855Y392658D01*
X-516202Y393307D01*
X-518900Y396594D01*
X-522187Y399292D01*
X-525938Y401297D01*
X-530008Y402532D01*
X-534240Y402948D01*
Y402919D01*
X-537818D01*
X-538390Y403774D01*
X-539545Y404546D01*
X-540908Y404817D01*
X-545353D01*
X-546715Y404546D01*
X-547870Y403774D01*
X-548442Y402919D01*
X-564355D01*
X-564514Y402887D01*
X-567521Y403283D01*
X-570470Y404505D01*
X-570633Y404630D01*
Y404749D01*
X-571407Y406616D01*
X-572836Y408045D01*
X-574703Y408819D01*
D02*
G37*
G36*
X-581310Y325031D02*
X-586945D01*
Y319896D01*
X-581310D01*
Y325031D01*
D02*
G37*
G36*
X-588215D02*
X-593850D01*
Y319896D01*
X-588215D01*
Y325031D01*
D02*
G37*
G36*
X-497112Y321484D02*
X-502247D01*
Y315849D01*
X-497112D01*
Y321484D01*
D02*
G37*
G36*
X-503517D02*
X-508652D01*
Y315849D01*
X-503517D01*
Y321484D01*
D02*
G37*
G36*
X-497112Y314579D02*
X-502247D01*
Y308944D01*
X-497112D01*
Y314579D01*
D02*
G37*
G36*
X-503517D02*
X-508652D01*
Y308944D01*
X-503517D01*
Y314579D01*
D02*
G37*
G36*
X-553470Y311912D02*
X-558605D01*
Y306277D01*
X-553470D01*
Y311912D01*
D02*
G37*
G36*
X-559875D02*
X-565010D01*
Y306277D01*
X-559875D01*
Y311912D01*
D02*
G37*
G36*
X-610150Y308784D02*
X-615285D01*
Y303149D01*
X-610150D01*
Y308784D01*
D02*
G37*
G36*
X-616555D02*
X-621690D01*
Y303149D01*
X-616555D01*
Y308784D01*
D02*
G37*
G36*
X-341415Y354824D02*
X-346065D01*
X-346863Y354665D01*
X-347539Y354213D01*
X-347991Y353537D01*
X-348150Y352739D01*
Y341189D01*
X-347991Y340391D01*
X-347539Y339715D01*
X-346863Y339263D01*
X-346583Y339207D01*
Y327278D01*
X-346623D01*
X-346267Y323668D01*
X-345214Y320197D01*
X-343504Y316998D01*
X-341203Y314194D01*
X-338399Y311893D01*
X-335200Y310183D01*
X-331729Y309130D01*
X-328120Y308775D01*
Y308814D01*
X-302719D01*
X-302607Y308837D01*
X-300291Y308376D01*
X-298233Y307001D01*
X-296858Y304942D01*
X-296397Y302626D01*
X-296419Y302514D01*
X-296395Y302389D01*
X-296872Y299987D01*
X-298304Y297844D01*
X-299086Y297322D01*
X-299681Y297640D01*
Y297640D01*
X-313221D01*
Y295960D01*
X-345543D01*
X-345571Y295990D01*
X-345024Y297260D01*
X-337952D01*
Y298985D01*
X-335221D01*
Y298600D01*
X-321682D01*
Y307140D01*
X-335221D01*
Y306755D01*
X-337952D01*
Y309800D01*
X-349492D01*
Y303606D01*
X-349507Y303530D01*
X-349520D01*
X-349492Y303389D01*
Y297260D01*
X-347119D01*
Y297260D01*
X-348009Y297260D01*
X-347118Y297239D01*
X-347036Y295990D01*
X-348039Y295858D01*
X-350127Y295583D01*
X-353216Y294303D01*
X-355869Y292268D01*
X-357905Y289615D01*
X-357961Y289480D01*
X-362991D01*
Y276940D01*
X-351451D01*
Y288811D01*
X-350558Y289497D01*
X-350470Y289540D01*
X-349492Y288820D01*
Y276940D01*
X-349492D01*
X-349061Y276066D01*
X-349705Y275227D01*
X-351938Y273513D01*
X-354539Y272436D01*
X-357284Y272075D01*
X-357329Y272084D01*
X-358116D01*
X-358187Y272069D01*
X-361172Y272462D01*
X-364021Y273642D01*
X-366466Y275519D01*
X-368343Y277965D01*
X-368583Y278544D01*
X-367878Y279600D01*
X-365722D01*
Y288140D01*
X-379262D01*
Y279600D01*
X-374497D01*
X-373820Y277365D01*
X-372249Y274426D01*
X-370135Y271851D01*
X-367559Y269737D01*
X-364620Y268166D01*
X-361432Y267199D01*
X-358582Y266918D01*
X-358116Y266872D01*
X-357329Y266877D01*
D01*
X-356868Y266923D01*
X-354213Y267184D01*
X-351216Y268093D01*
X-348454Y269569D01*
X-346034Y271556D01*
X-344047Y273977D01*
X-342571Y276739D01*
X-342510Y276940D01*
X-337952D01*
Y289480D01*
X-345160D01*
X-345704Y290750D01*
X-345675Y290780D01*
X-313221D01*
Y289100D01*
X-299681D01*
Y291231D01*
X-297081Y292308D01*
X-294640Y294181D01*
X-292768Y296622D01*
X-291590Y299464D01*
X-291189Y302514D01*
X-291191D01*
X-291584Y305498D01*
X-292735Y308278D01*
X-294568Y310666D01*
X-296955Y312498D01*
X-299736Y313650D01*
X-302719Y314043D01*
Y313994D01*
X-328120D01*
X-328231Y313972D01*
X-331567Y314411D01*
X-334780Y315742D01*
X-337539Y317859D01*
X-339656Y320617D01*
X-340986Y323830D01*
X-341426Y327167D01*
X-341404Y327278D01*
Y339106D01*
X-340617Y339263D01*
X-339941Y339715D01*
X-339489Y340391D01*
X-339330Y341189D01*
Y352739D01*
X-339489Y353537D01*
X-339941Y354213D01*
X-340617Y354665D01*
X-341415Y354824D01*
D02*
G37*
G36*
X-828313Y327580D02*
X-839853D01*
Y315040D01*
X-828313D01*
Y318720D01*
X-825963D01*
X-825859Y318741D01*
X-822584Y318310D01*
X-819436Y317006D01*
X-816815Y314995D01*
X-816756Y314907D01*
X-811656Y309806D01*
X-811695Y309768D01*
X-808413Y307075D01*
X-805273Y305396D01*
Y304900D01*
X-804667Y302638D01*
X-803497Y300611D01*
X-801842Y298956D01*
X-799815Y297786D01*
X-797553Y297180D01*
X-795213D01*
X-792952Y297786D01*
X-790925Y298956D01*
X-789269Y300611D01*
X-788099Y302638D01*
X-787493Y304900D01*
Y307240D01*
X-788099Y309501D01*
X-789269Y311528D01*
X-790925Y313184D01*
X-792952Y314354D01*
X-795213Y314960D01*
X-797553D01*
X-799815Y314354D01*
X-801842Y313184D01*
X-803497Y311528D01*
X-804016Y310629D01*
X-805506Y311425D01*
X-807990Y313464D01*
X-807994Y313469D01*
X-813094Y318569D01*
X-813067Y318596D01*
X-815831Y320864D01*
X-818984Y322550D01*
X-822405Y323587D01*
X-825963Y323938D01*
Y323900D01*
X-828313D01*
Y327580D01*
D02*
G37*
G36*
X-610150Y301879D02*
X-615285D01*
Y296244D01*
X-610150D01*
Y301879D01*
D02*
G37*
G36*
X-616555D02*
X-621690D01*
Y296244D01*
X-616555D01*
Y301879D01*
D02*
G37*
G36*
X-354115Y354824D02*
X-358765D01*
X-359563Y354665D01*
X-360239Y354213D01*
X-360691Y353537D01*
X-360850Y352739D01*
Y341189D01*
X-360691Y340391D01*
X-360239Y339715D01*
X-359563Y339263D01*
X-359283Y339207D01*
Y309800D01*
X-362991D01*
Y297262D01*
X-363353Y296985D01*
X-365175Y296230D01*
X-367132Y295972D01*
Y295960D01*
X-387721D01*
Y297640D01*
X-401261D01*
Y289100D01*
X-387721D01*
Y290780D01*
X-367132D01*
Y290720D01*
X-363816Y291157D01*
X-360727Y292437D01*
X-358074Y294472D01*
X-356038Y297125D01*
X-355982Y297260D01*
X-351451D01*
Y309800D01*
X-354104D01*
Y339106D01*
X-353317Y339263D01*
X-352641Y339715D01*
X-352189Y340391D01*
X-352030Y341189D01*
Y352739D01*
X-352189Y353537D01*
X-352641Y354213D01*
X-353317Y354665D01*
X-354115Y354824D01*
D02*
G37*
G36*
X-769813Y314960D02*
X-772153D01*
X-774415Y314354D01*
X-776442Y313184D01*
X-778097Y311528D01*
X-779267Y309501D01*
X-779873Y307240D01*
Y304900D01*
X-779267Y302638D01*
X-778832Y301884D01*
X-778837Y301879D01*
X-778899Y301785D01*
X-782275Y299015D01*
X-786225Y296904D01*
X-790510Y295604D01*
X-794856Y295176D01*
X-794966Y295198D01*
X-797800D01*
X-797910Y295176D01*
X-802256Y295604D01*
X-806542Y296904D01*
X-810491Y299015D01*
X-813167Y301211D01*
X-814068Y302101D01*
X-814068Y302101D01*
X-817492Y304911D01*
X-821398Y306999D01*
X-825637Y308285D01*
X-828313Y308548D01*
Y312340D01*
X-839853D01*
Y299800D01*
X-828313D01*
Y302370D01*
X-827372Y303223D01*
X-826658Y303153D01*
X-823401Y302165D01*
X-820399Y300560D01*
X-818538Y299034D01*
X-817618Y298190D01*
X-817618Y298190D01*
X-814274Y295334D01*
X-810524Y293036D01*
X-806461Y291353D01*
X-802184Y290327D01*
X-800720Y290211D01*
X-800568Y289979D01*
X-800964Y288291D01*
X-801842Y287784D01*
X-803497Y286129D01*
X-804667Y284101D01*
X-804893Y283260D01*
X-805219D01*
X-805255Y283253D01*
X-807918Y283603D01*
X-810434Y284645D01*
X-811606Y285544D01*
X-812538Y286359D01*
X-812538Y286359D01*
X-816226Y289386D01*
X-820434Y291635D01*
X-824999Y293020D01*
X-828313Y293346D01*
Y297100D01*
X-839853D01*
Y284560D01*
X-828313D01*
Y287168D01*
X-827372Y288021D01*
X-826020Y287888D01*
X-822436Y286801D01*
X-819133Y285035D01*
X-817198Y283447D01*
X-816266Y282631D01*
X-816266Y282631D01*
X-813899Y280688D01*
X-811198Y279244D01*
X-808267Y278355D01*
X-805219Y278055D01*
X-804562Y277057D01*
X-803497Y275211D01*
X-801842Y273556D01*
X-799815Y272386D01*
X-797553Y271780D01*
X-795213D01*
X-792952Y272386D01*
X-790925Y273556D01*
X-789269Y275211D01*
X-788099Y277239D01*
X-787493Y279500D01*
Y281840D01*
X-788099Y284101D01*
X-789269Y286129D01*
X-790925Y287784D01*
X-791802Y288291D01*
X-792198Y289979D01*
X-792046Y290211D01*
X-790582Y290327D01*
X-786305Y291353D01*
X-782242Y293036D01*
X-778493Y295334D01*
X-775148Y298190D01*
X-774416Y297787D01*
X-774415Y297786D01*
X-774083Y297697D01*
X-772153Y297180D01*
X-769813D01*
X-767552Y297786D01*
X-765525Y298956D01*
X-763869Y300611D01*
X-762699Y302638D01*
X-762093Y304900D01*
Y307240D01*
X-762699Y309501D01*
X-763869Y311528D01*
X-765525Y313184D01*
X-767552Y314354D01*
X-769813Y314960D01*
D02*
G37*
G36*
X-610150Y293544D02*
X-615285D01*
Y287909D01*
X-610150D01*
Y293544D01*
D02*
G37*
G36*
X-616555D02*
X-621690D01*
Y287909D01*
X-616555D01*
Y293544D01*
D02*
G37*
G36*
X-610150Y286639D02*
X-615285D01*
Y281004D01*
X-610150D01*
Y286639D01*
D02*
G37*
G36*
X-616555D02*
X-621690D01*
Y281004D01*
X-616555D01*
Y286639D01*
D02*
G37*
G36*
X-10048Y284821D02*
X-11635D01*
Y279673D01*
X-6487D01*
Y281261D01*
X-6758Y282623D01*
X-7530Y283778D01*
X-8685Y284550D01*
X-10048Y284821D01*
D02*
G37*
G36*
X-12905D02*
X-14492D01*
X-15855Y284550D01*
X-17011Y283778D01*
X-17782Y282623D01*
X-18053Y281261D01*
Y279673D01*
X-12905D01*
Y284821D01*
D02*
G37*
G36*
X-6487Y278403D02*
X-11635D01*
Y273255D01*
X-10048D01*
X-8685Y273526D01*
X-7530Y274298D01*
X-6758Y275453D01*
X-6487Y276815D01*
Y278403D01*
D02*
G37*
G36*
X-12905D02*
X-18053D01*
Y276815D01*
X-17782Y275453D01*
X-17011Y274298D01*
X-15855Y273526D01*
X-14492Y273255D01*
X-12905D01*
Y278403D01*
D02*
G37*
G36*
X-552299Y274677D02*
X-557265D01*
Y272710D01*
X-553925D01*
X-553303Y272834D01*
X-552775Y273187D01*
X-552423Y273714D01*
X-552299Y274337D01*
Y274677D01*
D02*
G37*
G36*
X-309992Y274494D02*
X-315127D01*
Y268859D01*
X-309992D01*
Y274494D01*
D02*
G37*
G36*
X-316397D02*
X-321532D01*
Y268859D01*
X-316397D01*
Y274494D01*
D02*
G37*
G36*
X-10048Y271321D02*
X-14492D01*
X-15855Y271050D01*
X-17011Y270278D01*
X-17782Y269123D01*
X-17980Y268128D01*
X-21240D01*
Y271308D01*
X-33780D01*
Y259768D01*
X-21240D01*
Y262948D01*
X-17980D01*
X-17782Y261953D01*
X-17011Y260798D01*
X-15855Y260026D01*
X-14492Y259755D01*
X-10048D01*
X-8685Y260026D01*
X-7530Y260798D01*
X-6758Y261953D01*
X-6487Y263316D01*
Y267761D01*
X-6758Y269123D01*
X-7530Y270278D01*
X-8685Y271050D01*
X-10048Y271321D01*
D02*
G37*
G36*
X-610150Y273224D02*
X-615285D01*
Y267589D01*
X-610150D01*
Y273224D01*
D02*
G37*
G36*
X-616555D02*
X-621690D01*
Y267589D01*
X-616555D01*
Y273224D01*
D02*
G37*
G36*
X-769813Y289560D02*
X-772153D01*
X-774415Y288954D01*
X-776442Y287784D01*
X-778097Y286129D01*
X-779267Y284101D01*
X-779873Y281840D01*
Y279500D01*
X-779267Y277239D01*
X-778097Y275211D01*
X-776561Y273675D01*
X-778837Y271399D01*
X-778899Y271305D01*
X-782275Y268535D01*
X-786225Y266424D01*
X-790510Y265124D01*
X-794856Y264696D01*
X-794966Y264718D01*
X-797800D01*
X-797910Y264696D01*
X-802256Y265124D01*
X-806542Y266424D01*
X-810491Y268535D01*
X-813167Y270731D01*
X-814068Y271621D01*
X-814068Y271621D01*
X-817492Y274431D01*
X-821398Y276519D01*
X-825637Y277805D01*
X-828313Y278068D01*
Y281860D01*
X-839853D01*
Y269320D01*
X-828313D01*
Y271890D01*
X-827372Y272743D01*
X-826658Y272673D01*
X-823401Y271685D01*
X-820399Y270081D01*
X-818538Y268554D01*
X-817618Y267710D01*
X-817618Y267710D01*
X-814274Y264854D01*
X-810524Y262556D01*
X-806461Y260873D01*
X-802184Y259847D01*
X-797800Y259502D01*
Y259538D01*
X-794966D01*
Y259502D01*
X-790582Y259847D01*
X-786305Y260873D01*
X-782242Y262556D01*
X-778493Y264854D01*
X-775148Y267710D01*
X-775174Y267736D01*
X-771131Y271780D01*
X-769813D01*
X-767552Y272386D01*
X-765525Y273556D01*
X-763869Y275211D01*
X-762699Y277239D01*
X-762093Y279500D01*
Y281840D01*
X-762699Y284101D01*
X-763869Y286129D01*
X-765525Y287784D01*
X-767552Y288954D01*
X-769813Y289560D01*
D02*
G37*
G36*
X-562149Y267827D02*
X-564115D01*
Y262861D01*
X-563775D01*
X-563153Y262984D01*
X-562625Y263337D01*
X-562273Y263864D01*
X-562149Y264487D01*
Y267827D01*
D02*
G37*
G36*
X-309992Y267589D02*
X-315127D01*
Y261954D01*
X-309992D01*
Y267589D01*
D02*
G37*
G36*
X-610150Y266319D02*
X-615285D01*
Y260684D01*
X-610150D01*
Y266319D01*
D02*
G37*
G36*
X-616555D02*
X-621690D01*
Y260684D01*
X-616555D01*
Y266319D01*
D02*
G37*
G36*
X-594656Y257984D02*
X-599791D01*
Y252349D01*
X-594656D01*
Y257984D01*
D02*
G37*
G36*
X-553216D02*
X-558351D01*
Y252349D01*
X-553216D01*
Y257984D01*
D02*
G37*
G36*
X-559621D02*
X-564756D01*
Y252349D01*
X-559621D01*
Y257984D01*
D02*
G37*
G36*
X-601061D02*
X-606196D01*
Y252349D01*
X-601061D01*
Y257984D01*
D02*
G37*
G36*
X-632110Y257014D02*
X-637745D01*
Y251879D01*
X-632110D01*
Y257014D01*
D02*
G37*
G36*
X-639015D02*
X-644650D01*
Y251879D01*
X-639015D01*
Y257014D01*
D02*
G37*
G36*
X-36480Y271308D02*
X-49020D01*
Y259768D01*
X-44949D01*
Y257861D01*
X-44974D01*
X-44675Y255593D01*
X-43800Y253480D01*
X-42408Y251665D01*
X-40593Y250273D01*
X-38480Y249398D01*
X-36212Y249099D01*
Y249124D01*
X-15719D01*
X-14689Y248094D01*
X-13119Y247444D01*
X-11421D01*
X-9851Y248094D01*
X-8650Y249295D01*
X-8000Y250865D01*
Y252563D01*
X-8650Y254133D01*
X-9851Y255334D01*
X-11421Y255984D01*
X-13119D01*
X-14689Y255334D01*
X-15719Y254304D01*
X-36212D01*
Y254313D01*
X-37570Y254583D01*
X-38721Y255352D01*
X-39490Y256503D01*
X-39760Y257861D01*
X-39769D01*
Y259768D01*
X-36480D01*
Y271308D01*
D02*
G37*
G36*
X-653820Y248068D02*
X-655185D01*
Y245879D01*
X-651122D01*
X-651211Y246325D01*
X-651823Y247241D01*
X-652739Y247853D01*
X-653820Y248068D01*
D02*
G37*
G36*
X-632110Y250609D02*
X-637745D01*
Y245474D01*
X-632110D01*
Y250609D01*
D02*
G37*
G36*
X-639015D02*
X-644650D01*
Y245474D01*
X-639015D01*
Y250609D01*
D02*
G37*
G36*
X-553216Y251079D02*
X-558351D01*
Y245444D01*
X-553216D01*
Y251079D01*
D02*
G37*
G36*
X-559621D02*
X-564756D01*
Y245444D01*
X-559621D01*
Y251079D01*
D02*
G37*
G36*
X-594656D02*
X-599791D01*
Y245444D01*
X-594656D01*
Y251079D01*
D02*
G37*
G36*
X-601061D02*
X-606196D01*
Y245444D01*
X-601061D01*
Y251079D01*
D02*
G37*
G36*
X-828313Y403780D02*
X-839853D01*
Y391240D01*
X-828313D01*
Y391240D01*
X-828115Y391438D01*
X-800921Y391382D01*
X-800582Y390111D01*
X-801842Y389384D01*
X-803497Y387729D01*
X-804667Y385701D01*
X-804893Y384860D01*
X-828313D01*
Y388540D01*
X-839853D01*
Y376000D01*
X-828313D01*
Y379680D01*
X-804893D01*
X-804667Y378839D01*
X-803497Y376811D01*
X-801842Y375156D01*
X-799815Y373986D01*
X-797553Y373380D01*
X-795213D01*
X-792952Y373986D01*
X-790925Y375156D01*
X-789269Y376811D01*
X-788099Y378839D01*
X-787493Y381100D01*
Y383440D01*
X-788099Y385701D01*
X-789269Y387729D01*
X-790925Y389384D01*
X-792128Y390079D01*
X-791733Y391307D01*
X-791222Y391265D01*
X-788354Y390983D01*
X-784395Y389782D01*
X-780747Y387832D01*
X-778908Y386323D01*
X-779267Y385701D01*
X-779873Y383440D01*
Y381100D01*
X-779267Y378839D01*
X-778097Y376811D01*
X-776442Y375156D01*
X-774415Y373986D01*
X-772153Y373380D01*
X-769813D01*
X-767552Y373986D01*
X-766797Y374422D01*
X-712548Y320173D01*
X-712402Y320075D01*
X-708373Y315358D01*
X-705041Y309921D01*
X-702601Y304029D01*
X-701112Y297828D01*
X-700625Y291644D01*
X-700660Y291471D01*
Y291333D01*
X-701541Y290744D01*
X-702312Y289589D01*
X-702583Y288227D01*
Y283782D01*
X-702312Y282419D01*
X-701541Y281264D01*
X-700385Y280492D01*
X-699390Y280294D01*
Y250454D01*
X-699426D01*
X-699083Y246974D01*
X-698068Y243629D01*
X-696420Y240545D01*
X-694202Y237842D01*
X-691499Y235624D01*
X-688655Y234104D01*
X-688761Y233115D01*
X-688873Y232834D01*
X-689180D01*
X-689290Y232812D01*
X-693636Y233240D01*
X-697922Y234540D01*
X-701871Y236651D01*
X-705332Y239492D01*
X-708173Y242953D01*
X-710284Y246902D01*
X-711584Y251187D01*
X-712012Y255534D01*
X-711990Y255644D01*
Y280294D01*
X-710995Y280492D01*
X-709840Y281264D01*
X-709068Y282419D01*
X-708797Y283782D01*
Y288227D01*
X-709068Y289589D01*
X-709840Y290744D01*
X-710995Y291516D01*
X-712357Y291787D01*
X-713269D01*
X-713569Y295600D01*
X-714595Y299876D01*
X-716278Y303939D01*
X-718576Y307689D01*
X-721432Y311033D01*
X-721458Y311008D01*
X-763135Y352684D01*
X-762699Y353438D01*
X-762093Y355700D01*
Y358040D01*
X-762699Y360301D01*
X-763869Y362328D01*
X-765525Y363984D01*
X-767552Y365154D01*
X-769813Y365760D01*
X-772153D01*
X-774415Y365154D01*
X-775240Y364678D01*
X-777463Y366576D01*
X-781213Y368874D01*
X-785276Y370557D01*
X-789553Y371584D01*
X-793937Y371929D01*
Y371892D01*
X-828313D01*
Y373300D01*
X-839853D01*
Y360760D01*
X-828313D01*
Y366713D01*
X-798904D01*
X-798737Y365443D01*
X-799815Y365154D01*
X-801842Y363984D01*
X-803497Y362328D01*
X-804667Y360301D01*
X-804893Y359460D01*
X-808031D01*
Y359507D01*
X-810958Y359121D01*
X-813685Y357992D01*
X-816028Y356194D01*
X-816028Y356194D01*
X-816989Y355449D01*
X-817952Y354805D01*
X-820194Y354360D01*
X-820295Y354380D01*
X-828313D01*
Y358060D01*
X-839853D01*
Y345520D01*
X-828313D01*
Y349200D01*
X-820295D01*
Y349153D01*
X-817368Y349538D01*
X-814641Y350668D01*
X-812299Y352466D01*
X-812299Y352466D01*
X-811337Y353211D01*
X-810374Y353854D01*
X-808133Y354300D01*
X-808031Y354280D01*
X-804893D01*
X-804667Y353438D01*
X-803497Y351411D01*
X-801842Y349756D01*
X-799815Y348586D01*
X-797553Y347980D01*
X-795213D01*
X-792952Y348586D01*
X-790925Y349756D01*
X-789269Y351411D01*
X-788099Y353438D01*
X-787493Y355700D01*
Y358040D01*
X-788099Y360301D01*
X-789269Y362328D01*
X-790925Y363984D01*
X-792661Y364986D01*
X-792907Y365953D01*
X-792879Y366450D01*
X-792670Y366621D01*
X-789480Y366307D01*
X-785195Y365007D01*
X-781246Y362896D01*
X-778887Y360960D01*
X-779267Y360301D01*
X-779873Y358040D01*
Y355700D01*
X-779267Y353438D01*
X-778097Y351411D01*
X-776442Y349756D01*
X-774415Y348586D01*
X-772153Y347980D01*
X-769813D01*
X-767552Y348586D01*
X-766797Y349021D01*
X-725121Y307345D01*
X-725027Y307283D01*
X-722257Y303907D01*
X-720146Y299958D01*
X-718846Y295672D01*
X-718420Y291346D01*
X-719321Y290744D01*
X-720092Y289589D01*
X-720363Y288227D01*
Y283782D01*
X-720092Y282419D01*
X-719321Y281264D01*
X-718165Y280492D01*
X-717170Y280294D01*
Y255644D01*
X-717206D01*
X-716861Y251260D01*
X-715835Y246983D01*
X-714152Y242920D01*
X-711854Y239170D01*
X-708998Y235826D01*
X-705654Y232970D01*
X-701904Y230672D01*
X-697841Y228989D01*
X-693564Y227963D01*
X-689180Y227618D01*
Y227654D01*
X-679930D01*
X-679901Y227635D01*
X-678820Y227420D01*
X-674820D01*
X-673739Y227635D01*
X-672823Y228247D01*
X-672211Y229163D01*
X-672049Y229974D01*
X-666955D01*
Y237744D01*
Y245514D01*
X-672049D01*
X-672211Y246325D01*
X-672823Y247241D01*
X-673739Y247853D01*
X-674820Y248068D01*
X-678820D01*
X-679839Y247866D01*
X-681588Y248214D01*
X-683314Y249366D01*
X-684467Y251092D01*
X-684638Y251955D01*
X-684846Y253127D01*
X-684652Y254317D01*
X-684416Y255499D01*
X-683073Y257511D01*
X-681062Y258854D01*
X-679758Y259114D01*
X-678899Y258254D01*
X-677329Y257604D01*
X-675631D01*
X-674061Y258254D01*
X-672860Y259455D01*
X-672210Y261025D01*
Y262723D01*
X-672860Y264293D01*
X-674061Y265494D01*
X-675631Y266144D01*
X-677329D01*
X-678899Y265494D01*
X-680062Y264331D01*
X-681636Y264123D01*
X-684381Y262986D01*
X-686739Y261177D01*
X-688548Y258819D01*
X-689686Y256074D01*
X-690074Y253127D01*
X-690066Y253127D01*
X-689708Y250406D01*
X-688658Y247871D01*
X-686987Y245693D01*
X-684810Y244023D01*
X-682274Y242972D01*
X-681890Y242922D01*
X-681273Y241560D01*
X-681429Y241325D01*
X-681518Y240879D01*
X-676820D01*
Y239609D01*
X-681518D01*
X-681429Y239163D01*
X-681390Y239104D01*
X-681452Y238705D01*
X-682092Y237869D01*
X-684864Y238234D01*
X-687916Y239498D01*
X-690536Y241508D01*
X-692546Y244128D01*
X-693810Y247180D01*
X-694229Y250360D01*
X-694210Y250454D01*
Y280294D01*
X-693215Y280492D01*
X-692060Y281264D01*
X-691288Y282419D01*
X-691017Y283782D01*
Y288227D01*
X-691288Y289589D01*
X-692060Y290744D01*
X-693215Y291516D01*
X-694577Y291787D01*
X-695453D01*
X-695824Y297452D01*
X-696993Y303330D01*
X-698920Y309005D01*
X-701570Y314380D01*
X-704900Y319363D01*
X-708852Y323869D01*
X-708886Y323835D01*
X-708886Y323835D01*
X-763135Y378084D01*
X-762699Y378839D01*
X-762093Y381100D01*
Y383440D01*
X-762699Y385701D01*
X-763869Y387729D01*
X-765525Y389384D01*
X-767552Y390554D01*
X-769813Y391160D01*
X-772153D01*
X-774415Y390554D01*
X-775261Y390066D01*
X-777840Y392183D01*
X-782393Y394616D01*
X-787333Y396115D01*
X-791196Y396495D01*
X-792423Y396616D01*
X-792447Y396618D01*
X-793717Y396546D01*
X-828313Y396618D01*
Y403780D01*
D02*
G37*
G36*
X-651122Y229609D02*
X-655185D01*
Y227420D01*
X-653820D01*
X-652739Y227635D01*
X-651823Y228247D01*
X-651211Y229163D01*
X-651122Y229609D01*
D02*
G37*
G36*
X-51820Y249094D02*
X-63360D01*
Y236554D01*
X-51820D01*
Y239251D01*
X-50879Y240104D01*
X-48132Y239834D01*
X-43922Y238557D01*
X-40042Y236483D01*
X-36642Y233692D01*
X-33851Y230292D01*
X-31777Y226412D01*
X-31232Y224614D01*
X-31988Y223594D01*
X-33780D01*
Y212054D01*
X-21240D01*
Y223594D01*
X-25573D01*
X-26237Y226361D01*
X-27569Y229578D01*
X-27582Y229638D01*
X-27615Y229689D01*
X-27896Y230366D01*
X-30161Y234062D01*
X-32976Y237358D01*
X-36272Y240173D01*
X-39968Y242438D01*
X-43973Y244097D01*
X-48189Y245109D01*
X-51820Y245395D01*
Y249094D01*
D02*
G37*
G36*
X-21240Y210094D02*
X-26875D01*
Y204959D01*
X-21240D01*
Y210094D01*
D02*
G37*
G36*
X-28145D02*
X-33780D01*
Y204959D01*
X-28145D01*
Y210094D01*
D02*
G37*
G36*
X-21240Y203689D02*
X-26875D01*
Y198554D01*
X-21240D01*
Y203689D01*
D02*
G37*
G36*
X-28145D02*
X-33780D01*
Y198554D01*
X-28145D01*
Y203689D01*
D02*
G37*
G36*
X-807880Y156384D02*
X-847365D01*
Y118999D01*
X-807880D01*
Y156384D01*
D02*
G37*
G36*
X-848635D02*
X-888120D01*
Y118999D01*
X-848635D01*
Y156384D01*
D02*
G37*
G36*
X-807880Y117729D02*
X-847365D01*
Y80344D01*
X-807880D01*
Y117729D01*
D02*
G37*
G36*
X-848635D02*
X-888120D01*
Y80344D01*
X-848635D01*
Y117729D01*
D02*
G37*
G36*
X-89686Y52904D02*
X-93514D01*
X-97212Y51913D01*
X-100528Y49999D01*
X-103235Y47292D01*
X-105149Y43976D01*
X-106140Y40278D01*
Y36450D01*
X-105149Y32752D01*
X-103235Y29436D01*
X-100528Y26729D01*
X-97212Y24815D01*
X-93514Y23824D01*
X-89686D01*
X-85988Y24815D01*
X-82672Y26729D01*
X-79965Y29436D01*
X-78051Y32752D01*
X-77060Y36450D01*
Y40278D01*
X-78051Y43976D01*
X-79965Y47292D01*
X-82672Y49999D01*
X-85988Y51913D01*
X-89686Y52904D01*
D02*
G37*
G36*
X-27733Y53020D02*
X-32267D01*
X-36715Y52135D01*
X-40904Y50400D01*
X-44674Y47881D01*
X-47881Y44674D01*
X-50400Y40904D01*
X-52135Y36715D01*
X-53020Y32267D01*
Y27733D01*
X-52135Y23285D01*
X-50400Y19096D01*
X-47881Y15326D01*
X-44674Y12119D01*
X-40904Y9600D01*
X-36715Y7865D01*
X-32267Y6980D01*
X-27733D01*
X-23285Y7865D01*
X-19096Y9600D01*
X-15326Y12119D01*
X-12119Y15326D01*
X-9600Y19096D01*
X-7865Y23285D01*
X-6980Y27733D01*
Y32267D01*
X-7865Y36715D01*
X-9600Y40904D01*
X-12119Y44674D01*
X-15326Y47881D01*
X-19096Y50400D01*
X-23285Y52135D01*
X-27733Y53020D01*
D02*
G37*
G36*
X-867733D02*
X-872267D01*
X-876715Y52135D01*
X-880904Y50400D01*
X-884674Y47881D01*
X-887881Y44674D01*
X-890400Y40904D01*
X-892135Y36715D01*
X-893020Y32267D01*
Y27733D01*
X-892135Y23285D01*
X-890400Y19096D01*
X-887881Y15326D01*
X-884674Y12119D01*
X-880904Y9600D01*
X-876715Y7865D01*
X-872267Y6980D01*
X-867733D01*
X-863285Y7865D01*
X-859096Y9600D01*
X-855326Y12119D01*
X-852119Y15326D01*
X-849600Y19096D01*
X-847865Y23285D01*
X-846980Y27733D01*
Y32267D01*
X-847865Y36715D01*
X-849600Y40904D01*
X-852119Y44674D01*
X-855326Y47881D01*
X-859096Y50400D01*
X-863285Y52135D01*
X-867733Y53020D01*
D02*
G37*
%LPD*%
G36*
X-459472Y451227D02*
X-458939Y450429D01*
X-458833Y450182D01*
X-457104Y447658D01*
X-456919Y447477D01*
X-456096Y446404D01*
X-456096Y446404D01*
X-455190Y445518D01*
X-454726Y445038D01*
X-454738Y445010D01*
X-454697Y444912D01*
X-454650Y444893D01*
Y440454D01*
X-459651Y435453D01*
X-461868D01*
X-462651Y435298D01*
X-463315Y434854D01*
X-463759Y434190D01*
X-463915Y433406D01*
Y422781D01*
X-463759Y421998D01*
X-463315Y421334D01*
X-462651Y420891D01*
X-461868Y420735D01*
X-459028D01*
X-458475Y419465D01*
X-458508Y419429D01*
X-469470D01*
Y419432D01*
X-469924Y419620D01*
X-470111Y420074D01*
X-470115D01*
Y424683D01*
X-470075Y424984D01*
X-470115D01*
Y440710D01*
X-469730Y441640D01*
Y443339D01*
X-470115Y444269D01*
Y452224D01*
X-459671D01*
X-459472Y451227D01*
D02*
G37*
G36*
X-195150Y303734D02*
X-71270D01*
Y300554D01*
X-71270D01*
Y299394D01*
X-71270D01*
Y296214D01*
X-201500D01*
Y296250D01*
X-204986Y295907D01*
X-208337Y294890D01*
X-211426Y293239D01*
X-214133Y291017D01*
X-216355Y288310D01*
X-218006Y285221D01*
X-218465Y283707D01*
X-219817Y283626D01*
X-219907Y283832D01*
X-218612Y288102D01*
X-216265Y292493D01*
X-213107Y296341D01*
X-209259Y299499D01*
X-204868Y301846D01*
X-200104Y303291D01*
X-195301Y303764D01*
X-195150Y303734D01*
D02*
G37*
G36*
X-568238Y307598D02*
X-568460Y301192D01*
X-568453Y293194D01*
Y293128D01*
X-568504Y293005D01*
X-568597Y292912D01*
X-568720Y292861D01*
X-568786Y292861D01*
X-568786Y292861D01*
X-575717D01*
X-575784Y292861D01*
X-575906Y292911D01*
X-576000Y293005D01*
X-576050Y293127D01*
X-576050Y293194D01*
X-576050Y293194D01*
X-576054Y301119D01*
X-577240Y307554D01*
X-574432Y308729D01*
X-570816Y309372D01*
X-568238Y307598D01*
D02*
G37*
G36*
X-582396Y291516D02*
Y291019D01*
X-582776Y290099D01*
X-583480Y289396D01*
X-584399Y289015D01*
X-590639D01*
X-590705Y289028D01*
X-590768Y289054D01*
X-590824Y289092D01*
X-590848Y289116D01*
Y289116D01*
X-590947Y289215D01*
X-594890Y296112D01*
X-590407Y298770D01*
X-582396Y291516D01*
D02*
G37*
G36*
X-533334Y296660D02*
X-530008Y295283D01*
X-528144Y293852D01*
X-527214Y293030D01*
X-527214Y293030D01*
X-524186Y290545D01*
X-521617Y289172D01*
X-521935Y287901D01*
X-538867D01*
X-538964Y288079D01*
X-539197Y289172D01*
X-537466Y290500D01*
X-537489Y290523D01*
X-536927Y291363D01*
X-536730Y292354D01*
X-536927Y293345D01*
X-537489Y294185D01*
X-538329Y294747D01*
X-539320Y294944D01*
X-540126Y294783D01*
X-540311Y294747D01*
X-541151Y294185D01*
X-542143Y293514D01*
X-542570Y293228D01*
X-544233Y292898D01*
X-544250Y292901D01*
X-553868D01*
X-553925Y292913D01*
X-557265D01*
Y290312D01*
X-558535D01*
Y292913D01*
X-560909D01*
X-561925Y293137D01*
X-562149Y294153D01*
Y297090D01*
X-536903D01*
X-536780Y297114D01*
X-533334Y296660D01*
D02*
G37*
G36*
X-568783Y272763D02*
X-568717Y272763D01*
X-568595Y272712D01*
X-568501Y272618D01*
X-568451Y272495D01*
X-568451Y272429D01*
X-568450Y272429D01*
X-568447Y264504D01*
X-568012Y256676D01*
X-569546Y255016D01*
X-576404Y255270D01*
X-576991Y256676D01*
X-576041Y264431D01*
X-576048Y272429D01*
Y272495D01*
X-575997Y272618D01*
X-575903Y272712D01*
X-575781Y272762D01*
X-575714Y272762D01*
X-575714Y272763D01*
X-568783Y272763D01*
D02*
G37*
G36*
X-108140Y252984D02*
X-108118Y252874D01*
X-108546Y248528D01*
X-109846Y244242D01*
X-111957Y240293D01*
X-114798Y236832D01*
X-118259Y233991D01*
X-122208Y231880D01*
X-126494Y230580D01*
X-130840Y230152D01*
X-130950Y230174D01*
X-210896D01*
X-211189Y231409D01*
X-207126Y233092D01*
X-203377Y235390D01*
X-200032Y238246D01*
X-197176Y241590D01*
X-194878Y245340D01*
X-193195Y249403D01*
X-192169Y253680D01*
X-191824Y258064D01*
X-191860D01*
Y259654D01*
X-188790D01*
X-188680Y259654D01*
X-187520D01*
X-187410Y259654D01*
X-176090D01*
X-175980Y259654D01*
X-174820D01*
X-174710Y259654D01*
X-163390D01*
X-163280Y259654D01*
X-162120D01*
X-162010Y259654D01*
X-150690D01*
X-150580Y259654D01*
X-149420D01*
X-149310Y259654D01*
X-137990D01*
X-137880Y259654D01*
X-136720D01*
X-136610Y259654D01*
X-125290D01*
X-125180Y259654D01*
X-124020D01*
X-123910Y259654D01*
X-112590D01*
X-112480Y259654D01*
X-111320D01*
X-111210Y259654D01*
X-108140D01*
Y252984D01*
D02*
G37*
G36*
X-643204Y242221D02*
X-643379Y233245D01*
X-653801Y233743D01*
X-658089D01*
X-658656Y233978D01*
X-659090Y234412D01*
X-659324Y234979D01*
Y235285D01*
Y240238D01*
Y240538D01*
X-659095Y241093D01*
X-658670Y241518D01*
X-658114Y241748D01*
X-653800D01*
Y241747D01*
X-643380Y242245D01*
X-643204Y242221D01*
D02*
G37*
G36*
X-496649Y285518D02*
X-492700Y283407D01*
X-489324Y280637D01*
X-489262Y280543D01*
X-458639Y249920D01*
X-458676Y249883D01*
X-454724Y246508D01*
X-450292Y243792D01*
X-447887Y242796D01*
X-448281Y241584D01*
X-449697Y241924D01*
X-454480Y243906D01*
X-458894Y246611D01*
X-461870Y249152D01*
X-462814Y249991D01*
X-462814D01*
X-463695Y250872D01*
X-492527Y279704D01*
X-492501Y279729D01*
X-495845Y282586D01*
X-499595Y284883D01*
X-500032Y285065D01*
X-500315Y285281D01*
X-500510Y285362D01*
X-500082Y286560D01*
X-496649Y285518D01*
D02*
G37*
G36*
X-499628Y278905D02*
X-496252Y276134D01*
X-496189Y276041D01*
X-467375Y247226D01*
X-466525Y246280D01*
X-466525Y246280D01*
X-461964Y242385D01*
X-456851Y239252D01*
X-457352Y238093D01*
X-460423Y239365D01*
X-465519Y242488D01*
X-469954Y246276D01*
X-470036Y246398D01*
X-485291Y261654D01*
X-485249Y261696D01*
X-489505Y265332D01*
X-494277Y268256D01*
X-499448Y270398D01*
X-504346Y271574D01*
X-504196Y272844D01*
X-504181D01*
X-502611Y273494D01*
X-501410Y274695D01*
X-500760Y276265D01*
Y277963D01*
X-500817Y278100D01*
X-499817Y279006D01*
X-499628Y278905D01*
D02*
G37*
G36*
X-505708Y266546D02*
X-501062Y265431D01*
X-496648Y263602D01*
X-492575Y261106D01*
X-488988Y258042D01*
X-488954Y257991D01*
X-473698Y242736D01*
X-473728Y242706D01*
X-469473Y238974D01*
X-464766Y235829D01*
X-460656Y233802D01*
X-461143Y232626D01*
X-463272Y233349D01*
X-468185Y235771D01*
X-472739Y238814D01*
X-476821Y242395D01*
X-476848Y242434D01*
X-490679Y256266D01*
X-490653Y256292D01*
X-493997Y259148D01*
X-497747Y261446D01*
X-501810Y263129D01*
X-506087Y264155D01*
X-510471Y264500D01*
Y264464D01*
X-531907D01*
X-532160Y265734D01*
X-531821Y265874D01*
X-530791Y266904D01*
X-510471D01*
X-510411Y266916D01*
X-505708Y266546D01*
D02*
G37*
G36*
X-568145Y248648D02*
X-567914Y246720D01*
Y242235D01*
X-564943Y239264D01*
X-13517Y155105D01*
X-28780Y120904D01*
X-87200Y82804D01*
X-90513Y81639D01*
X-578623Y232167D01*
X-633401Y233252D01*
Y242239D01*
X-579383Y242700D01*
X-576953Y244223D01*
X-576993Y246831D01*
X-575787Y248652D01*
X-568145Y248648D01*
D02*
G37*
G36*
X-866980Y305054D02*
X-870748D01*
Y305166D01*
X-872060Y312674D01*
X-866980D01*
Y305054D01*
D02*
G37*
D14*
X-267540Y437806D02*
G03*
X-263155Y433421I4385J0D01*
G01*
X-514922Y301894D02*
G03*
X-512444Y298479I11986J6093D01*
G01*
X-516382Y307987D02*
G03*
X-514922Y301894I13446J0D01*
G01*
X-42359Y257861D02*
G03*
X-36212Y251714I6147J0D01*
G01*
X-42359Y265147D02*
G03*
X-42750Y265538I-391J0D01*
G01*
X-285320Y335534D02*
G03*
X-296750Y346964I-11430J0D01*
G01*
X-295480Y325374D02*
G03*
X-285320Y335534I0J10160D01*
G01*
X-431189Y332813D02*
G03*
X-413229Y325374I17960J17960D01*
G01*
X-488212Y389836D02*
G03*
X-501220Y395224I-13008J-13008D01*
G01*
X-502490D02*
G03*
X-516460Y381254I0J-13970D01*
G01*
X-42750Y319824D02*
G03*
X-27510Y335064I0J15240D01*
G01*
X-267540Y464946D02*
G03*
X-292940Y490346I-25400J0D01*
G01*
X-278147Y469692D02*
G03*
X-303100Y490346I-24953J-4746D01*
G01*
X-277700Y464946D02*
G03*
X-278147Y469692I-25400J0D01*
G01*
X-869475Y311366D02*
G03*
X-847583Y290830I21892J1401D01*
G01*
X-869520Y328007D02*
G03*
X-847583Y306070I21937J0D01*
G01*
X-869520Y297527D02*
G03*
X-847583Y275590I21937J0D01*
G01*
X-869520Y429514D02*
G03*
X-852756Y412750I16764J0D01*
G01*
X-869520Y373727D02*
G03*
X-847583Y351790I21937J0D01*
G01*
X-869520Y388967D02*
G03*
X-847583Y367030I21937J0D01*
G01*
X-869520Y404207D02*
G03*
X-847583Y382270I21937J0D01*
G01*
X-869520Y419447D02*
G03*
X-847583Y397510I21937J0D01*
G01*
X-869520Y358487D02*
G03*
X-847583Y336550I21937J0D01*
G01*
X-869520Y343247D02*
G03*
X-847583Y321310I21937J0D01*
G01*
X-266631Y247904D02*
G03*
X-248671Y255343I0J25400D01*
G01*
X-219850Y232664D02*
G03*
X-194450Y258064I0J25400D01*
G01*
X-242140Y237744D02*
G03*
X-216740Y263144I0J25400D01*
G01*
X-248490Y242824D02*
G03*
X-223090Y268224I0J25400D01*
G01*
X-27510Y278784D02*
G03*
X-29650Y280924I-2140J0D01*
G01*
X-396724Y302870D02*
G03*
X-409780Y289814I0J-13056D01*
G01*
Y261874D02*
G03*
X-395810Y247904I13970J0D01*
G01*
X-130950Y227584D02*
G03*
X-105550Y252984I0J25400D01*
G01*
X-195150Y306324D02*
G03*
X-223090Y278384I0J-27940D01*
G01*
X-525350Y294894D02*
G03*
X-536903Y299679I-11553J-11553D01*
G01*
X-487430Y282374D02*
G03*
X-505391Y289814I-17960J-17960D01*
G01*
X-525350Y294894D02*
G03*
X-513086Y289814I12264J12264D01*
G01*
X-456807Y251751D02*
G03*
X-435255Y242824I21553J21553D01*
G01*
X-492510Y254435D02*
G03*
X-510471Y261874I-17960J-17960D01*
G01*
X-678689D02*
G03*
X-687436Y253127I0J-8747D01*
G01*
X-687436Y253127D02*
G03*
X-679553Y245244I7883J0D01*
G01*
X-478679Y240603D02*
G03*
X-447248Y227584I31431J31431D01*
G01*
X-487122Y259823D02*
G03*
X-510471Y269494I-23349J-23349D01*
G01*
X-589276Y280312D02*
G03*
X-593930Y278384I0J-6582D01*
G01*
X-596996Y277114D02*
G03*
X-593930Y278384I0J4336D01*
G01*
X-654890Y277114D02*
G03*
X-658700Y273304I0J-3810D01*
G01*
X-471867Y244567D02*
G03*
X-443130Y232664I28737J28737D01*
G01*
X-27510Y293224D02*
G03*
X-27910Y293624I-400J0D01*
G01*
X-201500D02*
G03*
X-216740Y278384I0J-15240D01*
G01*
X-504786Y284169D02*
G03*
X-512319Y285312I-7533J-24257D01*
G01*
X-501221Y282759D02*
G03*
X-503010Y283618I-3809J-5645D01*
G01*
X-494358Y277872D02*
G03*
X-501220Y282759I-17960J-17960D01*
G01*
X-464645Y248159D02*
G03*
X-439501Y237744I25145J25145D01*
G01*
X-329262Y268224D02*
G03*
X-319102Y258064I10160J0D01*
G01*
X-263020Y420624D02*
G03*
X-265000Y418644I0J-1980D01*
G01*
X-290400Y258064D02*
G03*
X-265000Y283464I0J25400D01*
G01*
X-29974Y228647D02*
G03*
X-52510Y242824I-22536J-10823D01*
G01*
X-27510Y217824D02*
G03*
X-29974Y228647I-25000J0D01*
G01*
X-12632Y268078D02*
G03*
X-12270Y268228I0J512D01*
G01*
X-541885Y290725D02*
G03*
X-539320Y292354I-2365J6559D01*
G01*
X-544250Y290312D02*
G03*
X-541885Y290725I0J6973D01*
G01*
X-505030Y277114D02*
G03*
X-512750Y280312I-7720J-7720D01*
G01*
X-584131Y258465D02*
G03*
X-586926Y251714I6755J-6751D01*
G01*
X-584129Y258467D02*
G03*
X-584131Y258465I6753J-6753D01*
G01*
X-328451Y283870D02*
G03*
X-329262Y283060I0J-811D01*
G01*
X-815941Y269748D02*
G03*
X-830045Y275590I-14104J-14104D01*
G01*
X-794966Y262128D02*
G03*
X-777006Y269567I0J25400D01*
G01*
X-815761D02*
G03*
X-797800Y262128I17960J17960D01*
G01*
X-814417Y284480D02*
G03*
X-829747Y290830I-15330J-15330D01*
G01*
X-814417Y284480D02*
G03*
X-805219Y280670I9198J9198D01*
G01*
X-71260Y243234D02*
G03*
X-71090Y242824I580J0D01*
G01*
X-92850Y264584D02*
G03*
X-71090Y242824I21760J0D01*
G01*
X-775736Y387022D02*
G03*
X-792428Y393954I-16734J-16734D01*
G01*
X-696800Y250454D02*
G03*
X-681590Y235244I15210J0D01*
G01*
X-698070Y291471D02*
G03*
X-710717Y322004I-43180J0D01*
G01*
X-698070Y289070D02*
G03*
X-696800Y286004I4336J0D01*
G01*
X-775976Y361863D02*
G03*
X-793937Y369303I-17960J-17960D01*
G01*
X-714580Y255644D02*
G03*
X-689180Y230244I25400J0D01*
G01*
X-715850Y291216D02*
G03*
X-723289Y309176I-25400J0D01*
G01*
X-715850Y289070D02*
G03*
X-714580Y286004I4336J0D01*
G01*
X-792428Y393954D02*
G03*
X-792449Y393954I-42J-23666D01*
G01*
X-815941Y410464D02*
G03*
X-821460Y412750I-5519J-5519D01*
G01*
X-815941Y410464D02*
G03*
X-809196Y407670I6745J6745D01*
G01*
X-814925Y316738D02*
G03*
X-825963Y321310I-11038J-11038D01*
G01*
X-809825Y311638D02*
G03*
X-796383Y306070I13442J13442D01*
G01*
Y331470D02*
G03*
X-808647Y336550I-12264J-12264D01*
G01*
X-815941Y300228D02*
G03*
X-830045Y306070I-14104J-14104D01*
G01*
X-794966Y292608D02*
G03*
X-777006Y300047I0J25400D01*
G01*
X-815761D02*
G03*
X-797800Y292608I17960J17960D01*
G01*
X-808031Y356870D02*
G03*
X-814163Y354330I0J-8672D01*
G01*
X-820295Y351790D02*
G03*
X-814163Y354330I0J8672D01*
G01*
X-425750Y484124D02*
G03*
X-437500Y472374I0J-11750D01*
G01*
X-453999Y469764D02*
G03*
X-456305Y468813I0J-3270D01*
G01*
X-447500Y465441D02*
G03*
X-447551Y465949I-2540J0D01*
G01*
X-448694Y468813D02*
G03*
X-450999Y469764I-2305J-2319D01*
G01*
X-448680Y468799D02*
G03*
X-448694Y468813I-2319J-2305D01*
G01*
X-447796Y467148D02*
G03*
X-448680Y468799I-3204J-654D01*
G01*
X-456319D02*
G03*
X-457243Y466907I2319J-2305D01*
G01*
X-456305Y468813D02*
G03*
X-456319Y468799I2305J-2319D01*
G01*
X-389799Y472374D02*
G03*
X-401549Y484124I-11750J0D01*
G01*
X-581230Y261366D02*
G03*
X-579750Y264938I-3572J3572D01*
G01*
X-585802Y312166D02*
G03*
X-582928Y305228I9811J0D01*
G01*
X-579750Y299599D02*
G03*
X-581484Y303784I-5919J0D01*
G01*
X-602670Y287274D02*
G03*
X-597933Y285312I4737J4737D01*
G01*
X-594958Y266954D02*
G03*
X-586600Y275312I0J8358D01*
G01*
X-367132Y293370D02*
G03*
X-356972Y303530I0J10160D01*
G01*
X-356972D02*
G03*
X-356693Y303808I-0J278D01*
G01*
X-346811Y293370D02*
G03*
X-356972Y283210I0J-10160D01*
G01*
X-357329Y269494D02*
G03*
X-343971Y282852I0J13358D01*
G01*
X-372491Y283870D02*
G03*
X-358116Y269494I14376J0D01*
G01*
X-343993Y327278D02*
G03*
X-328120Y311404I15874J0D01*
G01*
X-302973Y293370D02*
G03*
X-293829Y302514I0J9144D01*
G01*
D02*
G03*
X-302719Y311404I-8890J0D01*
G01*
X-449728Y449082D02*
G03*
X-450114Y449503I-4872J-4072D01*
G01*
X-443239Y451149D02*
G03*
X-442500Y452941I-1800J1792D01*
G01*
X-452270Y452711D02*
G03*
X-451530Y450919I2540J0D01*
G01*
X-448250Y446619D02*
G03*
X-448830Y448008I-2529J-240D01*
G01*
X-448250Y440434D02*
G03*
X-447510Y438642I2540J0D01*
G01*
X-457270Y453494D02*
G03*
X-456697Y451646I3270J0D01*
G01*
X-454968Y449122D02*
G03*
X-454241Y448242I5238J3589D01*
G01*
X-452060Y445010D02*
G03*
X-452804Y446806I-2540J0D01*
G01*
X-498450Y484124D02*
G03*
X-510200Y472374I0J-11750D01*
G01*
X-467500D02*
G03*
X-479249Y484124I-11750J0D01*
G01*
X-252476Y433324D02*
X-237500D01*
X-263155Y433421D02*
X-252476D01*
X-267540Y437806D02*
Y464946D01*
X-252476Y433324D02*
Y433421D01*
X-516382Y307987D02*
Y315214D01*
X-534240Y269494D02*
X-510471D01*
X-42359Y257861D02*
Y265147D01*
X-36212Y251714D02*
X-12270D01*
X-302799Y325374D02*
X-295480D01*
X-303129Y325044D02*
X-302799Y325374D01*
X-413229D02*
X-374579D01*
X-374249Y325044D01*
X-303100Y346964D02*
X-296750D01*
X-488212Y389836D02*
X-431189Y332813D01*
X-502490Y395224D02*
X-501220D01*
X-27510Y306724D02*
Y335064D01*
Y344424D01*
X-277700Y447694D02*
Y464946D01*
X-256110Y395224D02*
X-237500D01*
X-256110Y382524D02*
X-237500D01*
X-303100Y490346D02*
X-292940D01*
X-306910D02*
X-303100D01*
X-869520Y312767D02*
X-869475D01*
Y311366D02*
Y312767D01*
Y297709D02*
Y311366D01*
X-852756Y412750D02*
X-847583D01*
X-62500Y280924D02*
X-29650D01*
X-248671Y255343D02*
X-247220Y256794D01*
X-395810Y247904D02*
X-266631D01*
X-78310Y280924D02*
X-62500D01*
X-194450Y258064D02*
Y268424D01*
X-443130Y232664D02*
X-219850D01*
X-216740Y263144D02*
Y278384D01*
X-439501Y237744D02*
X-242140D01*
X-435255Y242824D02*
X-248490D01*
X-223090Y268224D02*
Y278384D01*
X-396724Y302870D02*
X-372491D01*
X-409780Y261874D02*
Y289814D01*
X-447248Y227584D02*
X-130950D01*
X-105550Y252984D02*
Y268424D01*
X-195150Y306324D02*
X-62500D01*
X-564720Y299679D02*
X-536903D01*
X-487430Y282374D02*
X-456807Y251751D01*
X-513086Y289814D02*
X-505391D01*
X-539320Y261874D02*
X-510471D01*
X-492510Y254435D02*
X-478679Y240603D01*
X-678689Y261874D02*
X-676480D01*
X-679553Y245244D02*
X-676820D01*
X-589276Y280312D02*
X-586600D01*
X-487122Y259823D02*
X-471867Y244567D01*
X-654890Y277114D02*
X-596996D01*
X-62500Y293624D02*
X-27910D01*
X-201500D02*
X-62500D01*
X-557900Y285312D02*
X-512319D01*
X-494358Y277872D02*
X-464645Y248159D01*
X-62500Y306324D02*
X-42750D01*
X-564750Y297162D02*
X-564720Y299679D01*
X-504786Y284169D02*
X-503010Y283618D01*
X-394492Y293370D02*
X-367132D01*
X-319102Y258064D02*
X-290400D01*
X-265000Y283464D02*
Y418644D01*
X-263020Y420624D02*
X-237500D01*
X-277700D02*
X-263020D01*
X-277700D02*
Y434194D01*
Y419754D02*
Y420624D01*
X-57590Y242824D02*
X-52510D01*
X-27510Y265538D02*
X-12270D01*
X-557900Y290312D02*
X-544250D01*
X-557900Y280312D02*
X-512750D01*
X-584131Y258465D02*
X-584129Y258467D01*
X-581230Y261366D01*
X-329262Y268224D02*
Y283060D01*
X-815941Y269748D02*
X-815761Y269567D01*
X-834083Y275590D02*
X-830045D01*
X-777006Y269567D02*
X-770983Y275590D01*
X-797800Y262128D02*
X-794966D01*
X-834083Y290830D02*
X-829747D01*
X-805219Y280670D02*
X-796383D01*
X-256110Y293624D02*
X-237500D01*
X-256110Y280924D02*
X-237500D01*
X-92850Y264584D02*
Y268424D01*
X-775736Y387023D02*
X-770983Y382270D01*
X-681590Y235244D02*
X-676820D01*
X-696800Y250454D02*
Y286004D01*
X-698070Y289070D02*
Y291471D01*
X-834379Y369303D02*
X-793937D01*
X-775976Y361863D02*
X-770983Y356870D01*
X-689180Y230244D02*
X-676820D01*
X-714580Y255644D02*
Y286004D01*
X-770983Y356870D02*
X-723289Y309176D01*
X-715850Y289070D02*
Y291216D01*
X-831107Y394034D02*
X-792449Y393954D01*
X-834083Y397510D02*
X-831107Y394034D01*
X-256110Y357124D02*
X-237500D01*
X-835158Y369940D02*
X-834379D01*
X-770983Y382270D02*
X-710717Y322004D01*
X-834083Y412750D02*
X-821460D01*
X-809196Y407670D02*
X-796383D01*
X-814925Y316738D02*
X-809825Y311638D01*
X-834083Y321310D02*
X-825963D01*
X-834083Y336550D02*
X-808647D01*
X-777006Y300047D02*
X-770983Y306070D01*
X-815941Y300228D02*
X-815761Y300047D01*
X-834083Y306070D02*
X-830045D01*
X-797800Y292608D02*
X-794966D01*
X-808031Y356870D02*
X-796383D01*
X-834083Y351790D02*
X-820295D01*
X-256110Y319024D02*
X-237500D01*
X-256110Y331724D02*
X-237500D01*
X-256110Y306324D02*
X-237500D01*
X-256110Y344424D02*
X-237500D01*
X-256110Y369824D02*
X-237500D01*
X-331040Y407244D02*
Y415544D01*
X-834083Y382270D02*
X-796383D01*
X-437500Y459994D02*
Y472374D01*
X-425750Y484124D02*
X-401549D01*
X-453999Y469764D02*
X-450999D01*
X-447796Y467148D02*
X-447729Y466824D01*
X-447551Y465949D01*
X-447500Y459994D02*
Y465441D01*
X-457270Y466701D02*
X-457243Y466907D01*
X-457458Y465224D02*
X-457270Y466701D01*
X-457500Y464764D02*
X-457458Y465224D01*
X-457500Y459994D02*
Y464764D01*
X-579750Y264938D02*
Y268462D01*
X-582928Y305228D02*
X-581484Y303784D01*
X-579750Y297162D02*
Y299599D01*
X-597933Y285312D02*
X-586600D01*
X-602670Y266954D02*
X-594958D01*
X-78310Y395224D02*
X-62500D01*
X-78310Y407924D02*
X-62500D01*
X-343740Y401964D02*
Y415544D01*
X-331040Y401964D02*
X-331040Y407244D01*
X-356693Y303808D02*
Y347409D01*
X-343971Y282852D02*
Y283210D01*
X-358116Y269494D02*
X-357329D01*
X-343993Y327278D02*
Y347409D01*
X-306451Y293370D02*
X-302973D01*
X-346811D02*
X-306451D01*
X-328120Y311404D02*
X-302719D01*
X-449728Y449082D02*
X-448830Y448008D01*
X-442500Y452941D02*
Y459994D01*
X-451530Y450919D02*
X-450114Y449503D01*
X-452270Y452711D02*
Y454764D01*
X-452500Y459994D02*
X-452270Y454764D01*
X-448010Y446379D02*
X-443239Y451149D01*
X-448250Y446138D02*
X-448010Y446379D01*
X-448250Y440434D02*
Y446138D01*
X-441743Y432874D02*
X-440655Y428094D01*
X-447510Y438642D02*
X-441743Y432874D01*
X-457500Y459994D02*
X-457270Y454764D01*
Y453494D02*
Y454764D01*
X-454241Y448242D02*
X-452804Y446806D01*
X-456697Y451646D02*
X-454968Y449122D01*
X-452060Y439381D02*
Y445010D01*
X-458568Y432874D02*
X-452060Y439381D01*
X-459655Y428094D02*
X-458568Y432874D01*
X-498450Y484124D02*
X-479249D01*
X-467500Y459994D02*
Y472374D01*
D16*
X-258064Y447586D02*
D03*
Y434086D02*
D03*
X-277700Y406254D02*
D03*
Y419754D02*
D03*
X-27510Y265538D02*
D03*
Y279038D02*
D03*
X-277700Y434194D02*
D03*
Y447694D02*
D03*
X-42750Y279038D02*
D03*
Y265538D02*
D03*
X-587580Y312166D02*
D03*
Y325666D02*
D03*
X-510200Y472624D02*
D03*
Y459124D02*
D03*
X-389799Y472624D02*
D03*
Y459124D02*
D03*
X-42750Y319824D02*
D03*
Y306324D02*
D03*
X-27510Y306724D02*
D03*
Y293224D02*
D03*
Y217824D02*
D03*
Y204324D02*
D03*
X-303100Y360464D02*
D03*
Y346964D02*
D03*
X-638380Y251244D02*
D03*
Y237744D02*
D03*
X-477090Y401174D02*
D03*
Y414674D02*
D03*
D17*
X-502882Y315214D02*
D03*
X-516382D02*
D03*
X-343722Y283210D02*
D03*
X-357221D02*
D03*
X-343722Y303530D02*
D03*
X-357221D02*
D03*
X-57590Y242824D02*
D03*
X-71090D02*
D03*
X-847583Y321310D02*
D03*
X-834083D02*
D03*
X-847583Y367030D02*
D03*
X-834083D02*
D03*
X-847583Y351790D02*
D03*
X-834083D02*
D03*
X-847583Y290830D02*
D03*
X-834083D02*
D03*
X-847583Y382270D02*
D03*
X-834083D02*
D03*
X-847583Y275590D02*
D03*
X-834083D02*
D03*
X-847583Y412750D02*
D03*
X-834083D02*
D03*
X-847583Y397510D02*
D03*
X-834083D02*
D03*
X-847583Y336550D02*
D03*
X-834083D02*
D03*
X-847583Y306070D02*
D03*
X-834083D02*
D03*
X-602420Y266954D02*
D03*
X-615920D02*
D03*
X-602420Y287274D02*
D03*
X-615920D02*
D03*
X-586926Y251714D02*
D03*
X-600426D02*
D03*
X-369940Y419354D02*
D03*
X-356440D02*
D03*
X-315762Y268224D02*
D03*
X-329262D02*
D03*
X-502960Y381254D02*
D03*
X-516460D02*
D03*
X-558986Y251714D02*
D03*
X-572486D02*
D03*
X-559240Y312547D02*
D03*
X-572740D02*
D03*
X-615920Y302514D02*
D03*
X-602420D02*
D03*
D18*
X-318340Y401964D02*
D03*
X-331040D02*
D03*
X-343740D02*
D03*
X-356440D02*
D03*
X-369140D02*
D03*
X-381840D02*
D03*
X-394540D02*
D03*
X-407240D02*
D03*
Y346964D02*
D03*
X-394540D02*
D03*
X-381840D02*
D03*
X-369140D02*
D03*
X-356440D02*
D03*
X-343740D02*
D03*
X-331040D02*
D03*
X-318340D02*
D03*
D19*
X-237500Y446024D02*
D03*
Y433324D02*
D03*
Y420624D02*
D03*
Y407924D02*
D03*
Y395224D02*
D03*
Y382524D02*
D03*
Y369824D02*
D03*
Y357124D02*
D03*
Y344424D02*
D03*
Y331724D02*
D03*
Y319024D02*
D03*
Y306324D02*
D03*
Y293624D02*
D03*
Y280924D02*
D03*
X-62500D02*
D03*
Y293624D02*
D03*
Y306324D02*
D03*
Y319024D02*
D03*
Y331724D02*
D03*
Y344424D02*
D03*
Y357124D02*
D03*
Y369824D02*
D03*
Y382524D02*
D03*
Y395224D02*
D03*
Y407924D02*
D03*
Y420624D02*
D03*
Y433324D02*
D03*
Y446024D02*
D03*
D20*
X-207150Y268424D02*
D03*
X-194450D02*
D03*
X-181750D02*
D03*
X-169050D02*
D03*
X-156350D02*
D03*
X-143650D02*
D03*
X-130950D02*
D03*
X-118250D02*
D03*
X-105550D02*
D03*
X-92850D02*
D03*
D21*
X-179000Y382824D02*
D03*
X-165000D02*
D03*
X-151000D02*
D03*
X-179000Y368824D02*
D03*
X-165000D02*
D03*
X-151000D02*
D03*
X-179000Y354824D02*
D03*
X-165000D02*
D03*
X-151000D02*
D03*
D22*
X-676820Y230244D02*
D03*
Y235244D02*
D03*
Y240244D02*
D03*
Y245244D02*
D03*
X-655820D02*
D03*
Y240244D02*
D03*
Y235244D02*
D03*
Y230244D02*
D03*
D23*
X-516460Y335934D02*
D03*
X-506960D02*
D03*
X-497460D02*
D03*
Y360934D02*
D03*
X-516460D02*
D03*
D24*
X-579750Y297162D02*
D03*
X-574750D02*
D03*
X-569750D02*
D03*
X-564750D02*
D03*
Y268462D02*
D03*
X-569750D02*
D03*
X-574750D02*
D03*
X-579750D02*
D03*
D25*
X-586600Y275312D02*
D03*
Y280312D02*
D03*
Y285312D02*
D03*
Y290312D02*
D03*
X-557900D02*
D03*
Y285312D02*
D03*
Y280312D02*
D03*
Y275312D02*
D03*
D26*
X-714580Y286004D02*
D03*
X-543130Y399034D02*
D03*
X-516460Y415544D02*
D03*
X-344170Y464058D02*
D03*
X-534240Y315214D02*
D03*
D27*
X-696800Y286004D02*
D03*
X-572340Y236474D02*
D03*
X-292940Y419754D02*
D03*
Y406254D02*
D03*
X-12270Y279038D02*
D03*
Y265538D02*
D03*
D28*
X-394492Y293370D02*
D03*
X-372491Y302870D02*
D03*
Y283870D02*
D03*
X-306451Y293370D02*
D03*
X-328451Y283870D02*
D03*
Y302870D02*
D03*
D29*
X-459655Y428094D02*
D03*
X-450155D02*
D03*
X-440655D02*
D03*
Y402994D02*
D03*
X-450155D02*
D03*
X-459655D02*
D03*
D30*
X-848000Y118364D02*
D03*
D31*
X-52000D02*
D03*
D61*
X-544146Y319278D02*
G03*
X-555797Y324104I-11651J-11651D01*
G01*
X-544146Y319278D02*
G03*
X-534335Y315214I9811J9811D01*
G01*
X-561183Y324104D02*
G03*
X-572740Y312547I0J-11557D01*
G01*
X-534335Y315214D02*
X-534240D01*
X-516460D01*
X-561183Y324104D02*
X-555797D01*
D62*
X-507570Y348234D02*
G03*
X-516460Y339344I0J-8890D01*
G01*
X-497460Y338124D02*
G03*
X-507570Y348234I-10110J0D01*
G01*
X-516460Y335934D02*
Y339344D01*
X-292940Y406254D02*
X-277700D01*
X-497460Y335934D02*
Y338124D01*
D63*
X-516460Y381254D02*
G03*
X-534240Y399034I-17780J0D01*
G01*
X-573912Y402186D02*
G03*
X-564355Y399034I9556J12910D01*
G01*
X-577020Y415544D02*
G03*
X-602420Y390144I0J-25400D01*
G01*
X-575713Y403739D02*
G03*
X-573912Y402186I11358J11358D01*
G01*
X-594431Y299205D02*
G03*
X-602420Y302514I-7989J-7989D01*
G01*
X-425540Y453494D02*
G03*
X-425538Y453368I4540J0D01*
G01*
X-483440Y415544D02*
G03*
X-474000Y424984I0J9440D01*
G01*
Y420074D02*
G03*
X-469470Y415544I4530J0D01*
G01*
X-457659D02*
G03*
X-450155Y423048I0J7504D01*
G01*
X-345622Y303530D02*
G03*
X-344962Y302870I660J0D01*
G01*
X-516460Y360934D02*
Y381254D01*
X-577020Y415544D02*
X-516460D01*
X-869520Y312767D02*
Y328007D01*
Y419447D02*
Y429514D01*
Y404207D02*
Y419447D01*
Y388967D02*
Y404207D01*
Y373727D02*
Y388967D01*
Y358487D02*
Y373727D01*
Y343247D02*
Y358487D01*
Y328007D02*
Y343247D01*
X-543130Y399034D02*
X-534240D01*
X-564355D02*
X-543130D01*
X-594431Y299205D02*
X-586824Y291598D01*
X-602420Y302514D02*
Y390144D01*
X-425540Y453494D02*
Y456034D01*
X-425538Y453368D02*
X-425257Y442490D01*
X-426000Y459994D02*
X-425540Y456034D01*
X-474000Y442489D02*
Y459994D01*
Y424984D02*
Y442489D01*
X-469470Y415544D02*
X-457659D01*
X-474000Y420074D02*
Y424984D01*
X-516460Y415544D02*
X-483440D01*
X-450155Y423048D02*
Y428094D01*
X-318340Y346964D02*
X-303100D01*
X-356440Y401964D02*
Y419354D01*
X-344962Y302870D02*
X-330102D01*
D64*
X-447510Y392445D02*
G03*
X-448249Y390653I1803J-1792D01*
G01*
X-452056Y389257D02*
G03*
X-439879Y377442I12176J367D01*
G01*
X-447999Y387591D02*
G03*
X-439879Y381254I8119J2033D01*
G01*
X-452061Y389624D02*
G03*
X-452056Y389257I12182J0D01*
G01*
X-436069Y381254D02*
G03*
X-432259Y385064I0J3810D01*
G01*
X-424640D02*
G03*
X-432259Y385064I-3810J0D01*
G01*
X-448249Y389624D02*
G03*
X-447999Y387591I8370J0D01*
G01*
X-386539Y377442D02*
G03*
X-373837Y390144I0J12702D01*
G01*
X-452061Y390653D02*
G03*
X-452801Y392445I-2542J0D01*
G01*
X-386539Y381254D02*
G03*
X-377649Y390144I0J8890D01*
G01*
X-424640Y385064D02*
G03*
X-420830Y381254I3810J0D01*
G01*
X-417020D02*
G03*
X-416003Y382270I0J1016D01*
G01*
X-413971D02*
G03*
X-416003Y382270I-1016J0D01*
G01*
X-413971D02*
G03*
X-412956Y381254I1016J0D01*
G01*
X-447510Y392445D02*
X-447510Y392445D01*
X-441740Y398215D02*
X-440655Y402994D01*
X-439879Y377442D02*
X-386539D01*
X-448249Y389624D02*
Y390653D01*
X-439879Y381254D02*
X-436069D01*
X-447510Y392445D02*
X-441740Y398215D01*
X-459655Y402994D02*
X-458571Y398215D01*
X-452801Y392445D01*
X-452061Y389624D02*
Y390653D01*
X-382093Y394588D02*
X-377649Y390144D01*
X-382093Y394588D02*
Y402409D01*
X-373837Y390144D02*
X-369393Y394588D01*
Y402409D01*
X-420830Y381254D02*
X-417020D01*
X-412956D02*
X-386539D01*
D65*
X-666320Y237744D02*
D03*
D66*
X-572250Y282812D02*
D03*
D67*
X-418000Y459994D02*
D03*
X-426000D02*
D03*
X-482000D02*
D03*
X-474000D02*
D03*
D68*
X-467500D02*
D03*
X-462500D02*
D03*
X-457500D02*
D03*
X-452500D02*
D03*
X-447500D02*
D03*
X-442500D02*
D03*
X-437500D02*
D03*
X-432500D02*
D03*
D69*
X-516460Y315652D02*
Y335934D01*
D70*
X-796383Y407670D02*
D03*
D71*
Y382270D02*
D03*
Y356870D02*
D03*
Y331470D02*
D03*
Y306070D02*
D03*
Y280670D02*
D03*
X-770983D02*
D03*
Y306070D02*
D03*
Y331470D02*
D03*
Y356870D02*
D03*
Y382270D02*
D03*
Y407670D02*
D03*
D72*
X-478900Y470773D02*
D03*
X-421100Y470763D02*
D03*
D73*
X-493199Y507572D02*
D03*
X-406799Y507572D02*
D03*
D74*
X-493201Y465773D02*
D03*
X-406800Y465774D02*
D03*
D75*
X-91600Y38364D02*
D03*
D76*
X-512444Y298479D02*
D03*
X-577330Y277732D02*
D03*
Y287892D02*
D03*
X-567170D02*
D03*
Y277732D02*
D03*
X-534240Y269494D02*
D03*
X-12270Y251714D02*
D03*
X-303129Y325044D02*
D03*
X-374249D02*
D03*
X-256110Y395224D02*
D03*
Y382524D02*
D03*
X-78310Y280924D02*
D03*
X-247220Y256794D02*
D03*
X-539320Y261874D02*
D03*
X-676480D02*
D03*
X-658700Y273304D02*
D03*
X-539320Y292354D02*
D03*
X-505030Y277114D02*
D03*
X-256110Y293624D02*
D03*
Y280924D02*
D03*
Y357124D02*
D03*
Y331724D02*
D03*
Y369824D02*
D03*
Y344424D02*
D03*
Y306324D02*
D03*
Y319024D02*
D03*
X-331040Y415544D02*
D03*
X-425279Y442489D02*
D03*
X-474000Y442489D02*
D03*
X-78310Y395224D02*
D03*
Y407924D02*
D03*
X-343740Y415544D02*
D03*
D77*
X-284558Y295656D02*
D03*
X-387936Y264414D02*
D03*
X-445086Y280416D02*
D03*
X-452706Y503936D02*
D03*
X-42750Y387350D02*
D03*
X-539874Y455335D02*
D03*
X-557354Y495046D02*
D03*
X-21160Y452374D02*
D03*
X-89486Y424942D02*
D03*
X-70050Y185046D02*
D03*
Y58046D02*
D03*
X-101800Y375546D02*
D03*
X-133550Y58046D02*
D03*
X-165300Y248546D02*
D03*
X-197050Y58046D02*
D03*
X-260550D02*
D03*
X-324050Y439046D02*
D03*
Y58046D02*
D03*
X-387550Y439046D02*
D03*
Y58046D02*
D03*
X-451050D02*
D03*
X-514550Y185046D02*
D03*
Y58046D02*
D03*
X-578050Y185046D02*
D03*
Y58046D02*
D03*
X-641550Y439046D02*
D03*
Y185046D02*
D03*
Y58046D02*
D03*
X-705050Y439046D02*
D03*
Y185046D02*
D03*
Y58046D02*
D03*
X-768550Y185046D02*
D03*
Y58046D02*
D03*
X-800300Y248546D02*
D03*
X-832050Y185046D02*
D03*
X-800300Y121546D02*
D03*
X-832050Y58046D02*
D03*
D78*
X-27510Y344424D02*
D03*
X-306910Y490346D02*
D03*
X-869520Y429514D02*
D03*
X-575713Y403739D02*
D03*
D79*
X-870000Y30000D02*
D03*
X-30000D02*
D03*
Y491044D02*
D03*
X-870000D02*
D03*
M02*
