G04*
G04 #@! TF.GenerationSoftware,Altium Limited,Altium Designer,23.9.2 (47)*
G04*
G04 Layer_Color=255*
%FSLAX44Y44*%
%MOMM*%
G71*
G04*
G04 #@! TF.SameCoordinates,62824387-D865-4AF8-97CC-6DA101F7C082*
G04*
G04*
G04 #@! TF.FilePolarity,Positive*
G04*
G01*
G75*
%ADD16R,1.0000X0.9000*%
%ADD17R,0.9000X1.0000*%
G04:AMPARAMS|DCode=18|XSize=1.31mm|YSize=0.62mm|CornerRadius=0.0775mm|HoleSize=0mm|Usage=FLASHONLY|Rotation=270.000|XOffset=0mm|YOffset=0mm|HoleType=Round|Shape=RoundedRectangle|*
%AMROUNDEDRECTD18*
21,1,1.3100,0.4650,0,0,270.0*
21,1,1.1550,0.6200,0,0,270.0*
1,1,0.1550,-0.2325,-0.5775*
1,1,0.1550,-0.2325,0.5775*
1,1,0.1550,0.2325,0.5775*
1,1,0.1550,0.2325,-0.5775*
%
%ADD18ROUNDEDRECTD18*%
%ADD19R,1.5000X0.9000*%
%ADD20R,0.9000X1.5000*%
%ADD21R,0.9000X0.9000*%
%ADD22O,0.7000X0.3000*%
%ADD23R,0.6000X1.4000*%
G04:AMPARAMS|DCode=24|XSize=0.86mm|YSize=0.26mm|CornerRadius=0.0325mm|HoleSize=0mm|Usage=FLASHONLY|Rotation=90.000|XOffset=0mm|YOffset=0mm|HoleType=Round|Shape=RoundedRectangle|*
%AMROUNDEDRECTD24*
21,1,0.8600,0.1950,0,0,90.0*
21,1,0.7950,0.2600,0,0,90.0*
1,1,0.0650,0.0975,0.3975*
1,1,0.0650,0.0975,-0.3975*
1,1,0.0650,-0.0975,-0.3975*
1,1,0.0650,-0.0975,0.3975*
%
%ADD24ROUNDEDRECTD24*%
G04:AMPARAMS|DCode=25|XSize=0.86mm|YSize=0.26mm|CornerRadius=0.0325mm|HoleSize=0mm|Usage=FLASHONLY|Rotation=180.000|XOffset=0mm|YOffset=0mm|HoleType=Round|Shape=RoundedRectangle|*
%AMROUNDEDRECTD25*
21,1,0.8600,0.1950,0,0,180.0*
21,1,0.7950,0.2600,0,0,180.0*
1,1,0.0650,-0.3975,0.0975*
1,1,0.0650,0.3975,0.0975*
1,1,0.0650,0.3975,-0.0975*
1,1,0.0650,-0.3975,-0.0975*
%
%ADD25ROUNDEDRECTD25*%
G04:AMPARAMS|DCode=26|XSize=0.889mm|YSize=0.889mm|CornerRadius=0.2223mm|HoleSize=0mm|Usage=FLASHONLY|Rotation=90.000|XOffset=0mm|YOffset=0mm|HoleType=Round|Shape=RoundedRectangle|*
%AMROUNDEDRECTD26*
21,1,0.8890,0.4445,0,0,90.0*
21,1,0.4445,0.8890,0,0,90.0*
1,1,0.4445,0.2223,0.2223*
1,1,0.4445,0.2223,-0.2223*
1,1,0.4445,-0.2223,-0.2223*
1,1,0.4445,-0.2223,0.2223*
%
%ADD26ROUNDEDRECTD26*%
G04:AMPARAMS|DCode=27|XSize=0.889mm|YSize=0.889mm|CornerRadius=0.2223mm|HoleSize=0mm|Usage=FLASHONLY|Rotation=0.000|XOffset=0mm|YOffset=0mm|HoleType=Round|Shape=RoundedRectangle|*
%AMROUNDEDRECTD27*
21,1,0.8890,0.4445,0,0,0.0*
21,1,0.4445,0.8890,0,0,0.0*
1,1,0.4445,0.2223,-0.2223*
1,1,0.4445,-0.2223,-0.2223*
1,1,0.4445,-0.2223,0.2223*
1,1,0.4445,0.2223,0.2223*
%
%ADD27ROUNDEDRECTD27*%
%ADD28R,1.1000X0.6000*%
G04:AMPARAMS|DCode=29|XSize=1.21mm|YSize=0.59mm|CornerRadius=0.0738mm|HoleSize=0mm|Usage=FLASHONLY|Rotation=90.000|XOffset=0mm|YOffset=0mm|HoleType=Round|Shape=RoundedRectangle|*
%AMROUNDEDRECTD29*
21,1,1.2100,0.4425,0,0,90.0*
21,1,1.0625,0.5900,0,0,90.0*
1,1,0.1475,0.2213,0.5313*
1,1,0.1475,0.2213,-0.5313*
1,1,0.1475,-0.2213,-0.5313*
1,1,0.1475,-0.2213,0.5313*
%
%ADD29ROUNDEDRECTD29*%
%ADD30R,7.7700X7.3500*%
%ADD31R,7.7000X7.3500*%
%ADD65R,0.9000X1.3000*%
%ADD66R,1.6800X1.6800*%
%ADD67R,0.6000X1.3000*%
%ADD68R,0.3000X1.3000*%
G04:AMPARAMS|DCode=70|XSize=1.524mm|YSize=1.524mm|CornerRadius=0.381mm|HoleSize=0mm|Usage=FLASHONLY|Rotation=270.000|XOffset=0mm|YOffset=0mm|HoleType=Round|Shape=RoundedRectangle|*
%AMROUNDEDRECTD70*
21,1,1.5240,0.7620,0,0,270.0*
21,1,0.7620,1.5240,0,0,270.0*
1,1,0.7620,-0.3810,-0.3810*
1,1,0.7620,-0.3810,0.3810*
1,1,0.7620,0.3810,0.3810*
1,1,0.7620,0.3810,-0.3810*
%
%ADD70ROUNDEDRECTD70*%
%ADD71C,1.5240*%
%ADD72C,0.6500*%
%ADD73O,1.0000X1.8000*%
%ADD74O,1.0000X2.1000*%
%ADD75C,2.3900*%
D16*
X-258064Y447586D02*
D03*
Y434086D02*
D03*
X-277700Y406254D02*
D03*
Y419754D02*
D03*
X-27510Y265538D02*
D03*
Y279038D02*
D03*
X-277700Y434194D02*
D03*
Y447694D02*
D03*
X-42750Y279038D02*
D03*
Y265538D02*
D03*
X-587580Y312166D02*
D03*
Y325666D02*
D03*
X-510200Y472624D02*
D03*
Y459124D02*
D03*
X-389799Y472624D02*
D03*
Y459124D02*
D03*
X-42750Y319824D02*
D03*
Y306324D02*
D03*
X-27510Y306724D02*
D03*
Y293224D02*
D03*
Y217824D02*
D03*
Y204324D02*
D03*
X-303100Y360464D02*
D03*
Y346964D02*
D03*
X-638380Y251244D02*
D03*
Y237744D02*
D03*
X-477090Y401174D02*
D03*
Y414674D02*
D03*
D17*
X-502882Y315214D02*
D03*
X-516382D02*
D03*
X-343722Y283210D02*
D03*
X-357221D02*
D03*
X-343722Y303530D02*
D03*
X-357221D02*
D03*
X-57590Y242824D02*
D03*
X-71090D02*
D03*
X-847583Y321310D02*
D03*
X-834083D02*
D03*
X-847583Y367030D02*
D03*
X-834083D02*
D03*
X-847583Y351790D02*
D03*
X-834083D02*
D03*
X-847583Y290830D02*
D03*
X-834083D02*
D03*
X-847583Y382270D02*
D03*
X-834083D02*
D03*
X-847583Y275590D02*
D03*
X-834083D02*
D03*
X-847583Y412750D02*
D03*
X-834083D02*
D03*
X-847583Y397510D02*
D03*
X-834083D02*
D03*
X-847583Y336550D02*
D03*
X-834083D02*
D03*
X-847583Y306070D02*
D03*
X-834083D02*
D03*
X-602420Y266954D02*
D03*
X-615920D02*
D03*
X-602420Y287274D02*
D03*
X-615920D02*
D03*
X-586926Y251714D02*
D03*
X-600426D02*
D03*
X-369940Y419354D02*
D03*
X-356440D02*
D03*
X-315762Y268224D02*
D03*
X-329262D02*
D03*
X-502960Y381254D02*
D03*
X-516460D02*
D03*
X-558986Y251714D02*
D03*
X-572486D02*
D03*
X-559240Y312547D02*
D03*
X-572740D02*
D03*
X-615920Y302514D02*
D03*
X-602420D02*
D03*
D18*
X-318340Y401964D02*
D03*
X-331040D02*
D03*
X-343740D02*
D03*
X-356440D02*
D03*
X-369140D02*
D03*
X-381840D02*
D03*
X-394540D02*
D03*
X-407240D02*
D03*
Y346964D02*
D03*
X-394540D02*
D03*
X-381840D02*
D03*
X-369140D02*
D03*
X-356440D02*
D03*
X-343740D02*
D03*
X-331040D02*
D03*
X-318340D02*
D03*
D19*
X-237500Y446024D02*
D03*
Y433324D02*
D03*
Y420624D02*
D03*
Y407924D02*
D03*
Y395224D02*
D03*
Y382524D02*
D03*
Y369824D02*
D03*
Y357124D02*
D03*
Y344424D02*
D03*
Y331724D02*
D03*
Y319024D02*
D03*
Y306324D02*
D03*
Y293624D02*
D03*
Y280924D02*
D03*
X-62500D02*
D03*
Y293624D02*
D03*
Y306324D02*
D03*
Y319024D02*
D03*
Y331724D02*
D03*
Y344424D02*
D03*
Y357124D02*
D03*
Y369824D02*
D03*
Y382524D02*
D03*
Y395224D02*
D03*
Y407924D02*
D03*
Y420624D02*
D03*
Y433324D02*
D03*
Y446024D02*
D03*
D20*
X-207150Y268424D02*
D03*
X-194450D02*
D03*
X-181750D02*
D03*
X-169050D02*
D03*
X-156350D02*
D03*
X-143650D02*
D03*
X-130950D02*
D03*
X-118250D02*
D03*
X-105550D02*
D03*
X-92850D02*
D03*
D21*
X-179000Y382824D02*
D03*
X-165000D02*
D03*
X-151000D02*
D03*
X-179000Y368824D02*
D03*
X-165000D02*
D03*
X-151000D02*
D03*
X-179000Y354824D02*
D03*
X-165000D02*
D03*
X-151000D02*
D03*
D22*
X-676820Y230244D02*
D03*
Y235244D02*
D03*
Y240244D02*
D03*
Y245244D02*
D03*
X-655820D02*
D03*
Y240244D02*
D03*
Y235244D02*
D03*
Y230244D02*
D03*
D23*
X-516460Y335934D02*
D03*
X-506960D02*
D03*
X-497460D02*
D03*
Y360934D02*
D03*
X-516460D02*
D03*
D24*
X-579750Y297162D02*
D03*
X-574750D02*
D03*
X-569750D02*
D03*
X-564750D02*
D03*
Y268462D02*
D03*
X-569750D02*
D03*
X-574750D02*
D03*
X-579750D02*
D03*
D25*
X-586600Y275312D02*
D03*
Y280312D02*
D03*
Y285312D02*
D03*
Y290312D02*
D03*
X-557900D02*
D03*
Y285312D02*
D03*
Y280312D02*
D03*
Y275312D02*
D03*
D26*
X-714580Y286004D02*
D03*
X-543130Y399034D02*
D03*
X-516460Y415544D02*
D03*
X-344170Y464058D02*
D03*
X-534240Y315214D02*
D03*
D27*
X-696800Y286004D02*
D03*
X-572340Y236474D02*
D03*
X-292940Y419754D02*
D03*
Y406254D02*
D03*
X-12270Y279038D02*
D03*
Y265538D02*
D03*
D28*
X-394492Y293370D02*
D03*
X-372491Y302870D02*
D03*
Y283870D02*
D03*
X-306451Y293370D02*
D03*
X-328451Y283870D02*
D03*
Y302870D02*
D03*
D29*
X-459655Y428094D02*
D03*
X-450155D02*
D03*
X-440655D02*
D03*
Y402994D02*
D03*
X-450155D02*
D03*
X-459655D02*
D03*
D30*
X-848000Y118364D02*
D03*
D31*
X-52000D02*
D03*
D65*
X-666320Y237744D02*
D03*
D66*
X-572250Y282812D02*
D03*
D67*
X-418000Y459994D02*
D03*
X-426000D02*
D03*
X-482000D02*
D03*
X-474000D02*
D03*
D68*
X-467500D02*
D03*
X-462500D02*
D03*
X-457500D02*
D03*
X-452500D02*
D03*
X-447500D02*
D03*
X-442500D02*
D03*
X-437500D02*
D03*
X-432500D02*
D03*
D70*
X-796383Y407670D02*
D03*
D71*
Y382270D02*
D03*
Y356870D02*
D03*
Y331470D02*
D03*
Y306070D02*
D03*
Y280670D02*
D03*
X-770983D02*
D03*
Y306070D02*
D03*
Y331470D02*
D03*
Y356870D02*
D03*
Y382270D02*
D03*
Y407670D02*
D03*
D72*
X-478900Y470773D02*
D03*
X-421100Y470763D02*
D03*
D73*
X-493199Y507572D02*
D03*
X-406799Y507572D02*
D03*
D74*
X-493201Y465773D02*
D03*
X-406800Y465774D02*
D03*
D75*
X-91600Y38364D02*
D03*
M02*
