G04*
G04 #@! TF.GenerationSoftware,Altium Limited,Altium Designer,23.9.2 (47)*
G04*
G04 Layer_Color=128*
%FSLAX44Y44*%
%MOMM*%
G71*
G04*
G04 #@! TF.SameCoordinates,62824387-D865-4AF8-97CC-6DA101F7C082*
G04*
G04*
G04 #@! TF.FilePolarity,Positive*
G04*
G01*
G75*
%ADD13C,0.1270*%
D13*
X-800193Y407670D02*
X-792573D01*
X-796383Y403860D02*
Y411480D01*
X-800193Y382270D02*
X-792573D01*
X-796383Y378460D02*
Y386080D01*
X-800193Y356870D02*
X-792573D01*
X-796383Y353060D02*
Y360680D01*
X-800193Y331470D02*
X-792573D01*
X-796383Y327660D02*
Y335280D01*
X-800193Y306070D02*
X-792573D01*
X-796383Y302260D02*
Y309880D01*
X-800193Y280670D02*
X-792573D01*
X-796383Y276860D02*
Y284480D01*
X-774793Y280670D02*
X-767173D01*
X-770983Y276860D02*
Y284480D01*
X-774793Y306070D02*
X-767173D01*
X-770983Y302260D02*
Y309880D01*
X-774793Y331470D02*
X-767173D01*
X-770983Y327660D02*
Y335280D01*
X-774793Y356870D02*
X-767173D01*
X-770983Y353060D02*
Y360680D01*
X-774793Y382270D02*
X-767173D01*
X-770983Y378460D02*
Y386080D01*
X-774793Y407670D02*
X-767173D01*
X-770983Y403860D02*
Y411480D01*
X-482150Y470773D02*
X-475650D01*
X-478900Y467523D02*
Y474023D01*
X-424350Y470763D02*
X-417850D01*
X-421100Y467513D02*
Y474012D01*
X-496199Y507572D02*
X-490200D01*
X-493199Y504572D02*
Y510572D01*
X-409799Y507572D02*
X-403799D01*
X-406799Y504572D02*
Y510572D01*
X-496201Y465773D02*
X-490201D01*
X-493201Y462773D02*
Y468773D01*
X-409800Y465774D02*
X-403800D01*
X-406800Y462774D02*
Y468774D01*
X-103600Y38364D02*
X-79600D01*
X-91600Y26364D02*
Y50364D01*
X-513944Y298479D02*
X-510944D01*
X-512444Y296979D02*
Y299979D01*
X-578854Y277732D02*
X-575806D01*
X-577330Y276208D02*
Y279256D01*
X-578854Y287892D02*
X-575806D01*
X-577330Y286368D02*
Y289416D01*
X-568694Y287892D02*
X-565646D01*
X-567170Y286368D02*
Y289416D01*
X-568694Y277732D02*
X-565646D01*
X-567170Y276208D02*
Y279256D01*
X-286058Y295656D02*
X-283058D01*
X-284558Y294156D02*
Y297156D01*
X-389436Y264414D02*
X-386436D01*
X-387936Y262914D02*
Y265914D01*
X-446586Y280416D02*
X-443586D01*
X-445086Y278916D02*
Y281916D01*
X-454206Y503936D02*
X-451206D01*
X-452706Y502436D02*
Y505436D01*
X-44250Y387350D02*
X-41250D01*
X-42750Y385850D02*
Y388850D01*
X-541374Y455335D02*
X-538374D01*
X-539874Y453835D02*
Y456835D01*
X-558854Y495046D02*
X-555854D01*
X-557354Y493546D02*
Y496546D01*
X-22660Y452374D02*
X-19660D01*
X-21160Y450874D02*
Y453874D01*
X-90986Y424942D02*
X-87986D01*
X-89486Y423442D02*
Y426442D01*
X-71550Y185046D02*
X-68550D01*
X-70050Y183546D02*
Y186546D01*
X-71550Y58046D02*
X-68550D01*
X-70050Y56546D02*
Y59546D01*
X-103300Y375546D02*
X-100300D01*
X-101800Y374046D02*
Y377046D01*
X-135050Y58046D02*
X-132050D01*
X-133550Y56546D02*
Y59546D01*
X-166800Y248546D02*
X-163800D01*
X-165300Y247046D02*
Y250046D01*
X-198550Y58046D02*
X-195550D01*
X-197050Y56546D02*
Y59546D01*
X-262050Y58046D02*
X-259050D01*
X-260550Y56546D02*
Y59546D01*
X-325550Y439046D02*
X-322550D01*
X-324050Y437546D02*
Y440546D01*
X-325550Y58046D02*
X-322550D01*
X-324050Y56546D02*
Y59546D01*
X-389050Y439046D02*
X-386050D01*
X-387550Y437546D02*
Y440546D01*
X-389050Y58046D02*
X-386050D01*
X-387550Y56546D02*
Y59546D01*
X-452550Y58046D02*
X-449550D01*
X-451050Y56546D02*
Y59546D01*
X-516050Y185046D02*
X-513050D01*
X-514550Y183546D02*
Y186546D01*
X-516050Y58046D02*
X-513050D01*
X-514550Y56546D02*
Y59546D01*
X-579550Y185046D02*
X-576550D01*
X-578050Y183546D02*
Y186546D01*
X-579550Y58046D02*
X-576550D01*
X-578050Y56546D02*
Y59546D01*
X-643050Y439046D02*
X-640050D01*
X-641550Y437546D02*
Y440546D01*
X-643050Y185046D02*
X-640050D01*
X-641550Y183546D02*
Y186546D01*
X-643050Y58046D02*
X-640050D01*
X-641550Y56546D02*
Y59546D01*
X-706550Y439046D02*
X-703550D01*
X-705050Y437546D02*
Y440546D01*
X-706550Y185046D02*
X-703550D01*
X-705050Y183546D02*
Y186546D01*
X-706550Y58046D02*
X-703550D01*
X-705050Y56546D02*
Y59546D01*
X-770050Y185046D02*
X-767050D01*
X-768550Y183546D02*
Y186546D01*
X-770050Y58046D02*
X-767050D01*
X-768550Y56546D02*
Y59546D01*
X-801800Y248546D02*
X-798800D01*
X-800300Y247046D02*
Y250046D01*
X-833550Y185046D02*
X-830550D01*
X-832050Y183546D02*
Y186546D01*
X-801800Y121546D02*
X-798800D01*
X-800300Y120046D02*
Y123046D01*
X-833550Y58046D02*
X-830550D01*
X-832050Y56546D02*
Y59546D01*
X-535740Y269494D02*
X-532740D01*
X-534240Y267994D02*
Y270994D01*
X-13770Y251714D02*
X-10770D01*
X-12270Y250214D02*
Y253214D01*
X-304629Y325044D02*
X-301629D01*
X-303129Y323544D02*
Y326544D01*
X-375749Y325044D02*
X-372749D01*
X-374249Y323544D02*
Y326544D01*
X-29288Y344424D02*
X-25732D01*
X-27510Y342646D02*
Y346202D01*
X-257610Y395224D02*
X-254610D01*
X-256110Y393724D02*
Y396724D01*
X-257610Y382524D02*
X-254610D01*
X-256110Y381024D02*
Y384024D01*
X-308688Y490346D02*
X-305132D01*
X-306910Y488568D02*
Y492124D01*
X-871298Y429514D02*
X-867742D01*
X-869520Y427736D02*
Y431292D01*
X-577491Y403739D02*
X-573935D01*
X-575713Y401960D02*
Y405517D01*
X-79810Y280924D02*
X-76810D01*
X-78310Y279424D02*
Y282424D01*
X-248720Y256794D02*
X-245720D01*
X-247220Y255294D02*
Y258294D01*
X-540820Y261874D02*
X-537820D01*
X-539320Y260374D02*
Y263374D01*
X-677980Y261874D02*
X-674980D01*
X-676480Y260374D02*
Y263374D01*
X-660200Y273304D02*
X-657200D01*
X-658700Y271804D02*
Y274804D01*
X-540820Y292354D02*
X-537820D01*
X-539320Y290854D02*
Y293854D01*
X-506530Y277114D02*
X-503530D01*
X-505030Y275614D02*
Y278614D01*
X-257610Y293624D02*
X-254610D01*
X-256110Y292124D02*
Y295124D01*
X-257610Y280924D02*
X-254610D01*
X-256110Y279424D02*
Y282424D01*
X-257610Y357124D02*
X-254610D01*
X-256110Y355624D02*
Y358624D01*
X-257610Y331724D02*
X-254610D01*
X-256110Y330224D02*
Y333224D01*
X-257610Y369824D02*
X-254610D01*
X-256110Y368324D02*
Y371324D01*
X-257610Y344424D02*
X-254610D01*
X-256110Y342924D02*
Y345924D01*
X-257610Y306324D02*
X-254610D01*
X-256110Y304824D02*
Y307824D01*
X-257610Y319024D02*
X-254610D01*
X-256110Y317524D02*
Y320524D01*
X-332540Y415544D02*
X-329540D01*
X-331040Y414044D02*
Y417044D01*
X-426779Y442489D02*
X-423779D01*
X-425279Y440989D02*
Y443989D01*
X-475500Y442489D02*
X-472500D01*
X-474000Y440989D02*
Y443989D01*
X-79810Y395224D02*
X-76810D01*
X-78310Y393724D02*
Y396724D01*
X-79810Y407924D02*
X-76810D01*
X-78310Y406424D02*
Y409424D01*
X-345240Y415544D02*
X-342240D01*
X-343740Y414044D02*
Y417044D01*
X-882500Y30000D02*
X-857500D01*
X-870000Y17500D02*
Y42500D01*
X-42500Y30000D02*
X-17500D01*
X-30000Y17500D02*
Y42500D01*
X-42500Y491044D02*
X-17500D01*
X-30000Y478544D02*
Y503544D01*
X-882500Y491044D02*
X-857500D01*
X-870000Y478544D02*
Y503544D01*
M02*
