G04*
G04 #@! TF.GenerationSoftware,Altium Limited,Altium Designer,23.9.2 (47)*
G04*
G04 Layer_Color=16711935*
%FSLAX44Y44*%
%MOMM*%
G71*
G04*
G04 #@! TF.SameCoordinates,62824387-D865-4AF8-97CC-6DA101F7C082*
G04*
G04*
G04 #@! TF.FilePolarity,Positive*
G04*
G01*
G75*
%ADD11C,0.2000*%
%ADD13C,0.1270*%
%ADD14C,0.2540*%
%ADD81C,0.1000*%
D11*
X-317340Y415104D02*
G03*
X-317340Y415104I-1000J0D01*
G01*
X-248060Y446002D02*
G03*
X-248060Y446002I-1000J0D01*
G01*
X-515460Y325080D02*
G03*
X-515460Y325080I-1000J0D01*
G01*
X-578616Y260460D02*
G03*
X-578616Y260460I-1000J0D01*
G01*
X-414710Y448633D02*
G03*
X-414710Y448633I-1000J0D01*
G01*
X-458605Y392788D02*
G03*
X-458605Y392788I-1000J0D01*
G01*
D13*
X-312790Y354964D02*
Y393964D01*
X-412790Y354964D02*
Y393964D01*
X-312790D01*
X-412790Y354964D02*
X-312790D01*
X-240000Y520924D02*
X-60000D01*
Y459024D02*
Y520924D01*
Y265924D02*
Y459024D01*
X-240000Y265924D02*
X-60000D01*
X-240000D02*
Y459024D01*
Y520924D01*
Y459024D02*
X-60000D01*
X-587250Y267812D02*
X-557250D01*
X-587250Y297812D02*
X-557250D01*
X-587250Y267812D02*
Y297812D01*
X-557250Y267812D02*
Y297812D01*
X-405300Y460063D02*
Y533563D01*
X-494700D02*
X-405300D01*
X-494700Y460063D02*
Y533563D01*
Y460063D02*
X-405300D01*
X-504700Y528663D02*
X-395300D01*
X-464780Y407419D02*
X-435530D01*
Y423669D01*
X-464780D02*
X-435530D01*
X-464780Y407419D02*
Y423669D01*
X-838500Y222864D02*
X-61500D01*
Y13864D02*
Y222864D01*
X-838500Y13864D02*
X-61500D01*
X-838500D02*
Y222864D01*
D14*
X-806543Y417830D02*
X-760823D01*
X-806543Y270510D02*
X-760823D01*
Y417830D01*
X-806543Y270510D02*
Y417830D01*
X-210000Y483424D02*
Y495274D01*
X-204075Y501198D01*
X-198151Y495274D01*
Y483424D01*
Y492311D01*
X-210000D01*
X-192226Y483424D02*
Y501198D01*
X-180376Y483424D01*
Y501198D01*
X-174452D02*
X-162602D01*
X-168527D01*
Y483424D01*
X-144828Y501198D02*
X-156677D01*
Y483424D01*
X-144828D01*
X-156677Y492311D02*
X-150752D01*
X-138903Y483424D02*
Y501198D01*
X-127053Y483424D01*
Y501198D01*
X-121129Y483424D02*
Y501198D01*
X-109279Y483424D01*
Y501198D01*
X-103355Y483424D02*
Y495274D01*
X-97430Y501198D01*
X-91505Y495274D01*
Y483424D01*
Y492311D01*
X-103355D01*
X-862750Y120901D02*
X-850900D01*
X-49950Y119631D02*
X-38101D01*
X-44025Y125556D02*
Y113706D01*
D81*
X-262814Y449586D02*
X-253314D01*
X-262814Y432086D02*
X-253314D01*
Y449586D01*
X-262814Y432086D02*
Y449586D01*
X-500882Y310464D02*
Y319964D01*
X-518382Y310464D02*
Y319964D01*
Y310464D02*
X-500882D01*
X-518382Y319964D02*
X-500882D01*
X-288190Y404254D02*
Y421754D01*
X-297690Y404254D02*
Y421754D01*
X-288190D01*
X-297690Y404254D02*
X-288190D01*
X-7520Y263538D02*
Y281038D01*
X-17020Y263538D02*
Y281038D01*
X-7520D01*
X-17020Y263538D02*
X-7520D01*
X-359221Y278460D02*
X-341721D01*
X-359221Y287960D02*
X-341721D01*
Y278460D02*
Y287960D01*
X-359221Y278460D02*
Y287960D01*
Y298780D02*
X-341721D01*
X-359221Y308280D02*
X-341721D01*
Y298780D02*
Y308280D01*
X-359221Y298780D02*
Y308280D01*
X-282450Y404254D02*
Y421754D01*
X-272950Y404254D02*
Y421754D01*
X-282450Y404254D02*
X-272950D01*
X-282450Y421754D02*
X-272950D01*
X-32260Y263538D02*
Y281038D01*
X-22760Y263538D02*
Y281038D01*
X-32260Y263538D02*
X-22760D01*
X-32260Y281038D02*
X-22760D01*
X-73090Y238074D02*
X-55590D01*
X-73090Y247574D02*
X-55590D01*
Y238074D02*
Y247574D01*
X-73090Y238074D02*
Y247574D01*
X-282450Y432194D02*
Y449694D01*
X-272950Y432194D02*
Y449694D01*
X-282450Y432194D02*
X-272950D01*
X-282450Y449694D02*
X-272950D01*
X-38000Y263538D02*
Y281038D01*
X-47500Y263538D02*
Y281038D01*
X-38000D01*
X-47500Y263538D02*
X-38000D01*
X-849583Y326060D02*
X-832083D01*
X-849583Y316560D02*
X-832083D01*
X-849583D02*
Y326060D01*
X-832083Y316560D02*
Y326060D01*
X-849583Y371780D02*
X-832083D01*
X-849583Y362280D02*
X-832083D01*
X-849583D02*
Y371780D01*
X-832083Y362280D02*
Y371780D01*
X-849583Y356540D02*
X-832083D01*
X-849583Y347040D02*
X-832083D01*
X-849583D02*
Y356540D01*
X-832083Y347040D02*
Y356540D01*
X-849583Y295580D02*
X-832083D01*
X-849583Y286080D02*
X-832083D01*
X-849583D02*
Y295580D01*
X-832083Y286080D02*
Y295580D01*
X-849583Y387020D02*
X-832083D01*
X-849583Y377520D02*
X-832083D01*
X-849583D02*
Y387020D01*
X-832083Y377520D02*
Y387020D01*
X-849583Y280340D02*
X-832083D01*
X-849583Y270840D02*
X-832083D01*
X-849583D02*
Y280340D01*
X-832083Y270840D02*
Y280340D01*
X-849583Y417500D02*
X-832083D01*
X-849583Y408000D02*
X-832083D01*
X-849583D02*
Y417500D01*
X-832083Y408000D02*
Y417500D01*
X-849583Y402260D02*
X-832083D01*
X-849583Y392760D02*
X-832083D01*
X-849583D02*
Y402260D01*
X-832083Y392760D02*
Y402260D01*
X-849583Y341300D02*
X-832083D01*
X-849583Y331800D02*
X-832083D01*
X-849583D02*
Y341300D01*
X-832083Y331800D02*
Y341300D01*
X-849583Y310820D02*
X-832083D01*
X-849583Y301320D02*
X-832083D01*
X-849583D02*
Y310820D01*
X-832083Y301320D02*
Y310820D01*
X-617920Y262204D02*
X-600420D01*
X-617920Y271704D02*
X-600420D01*
Y262204D02*
Y271704D01*
X-617920Y262204D02*
Y271704D01*
Y282524D02*
X-600420D01*
X-617920Y292024D02*
X-600420D01*
Y282524D02*
Y292024D01*
X-617920Y282524D02*
Y292024D01*
X-592330Y310166D02*
Y327666D01*
X-582830Y310166D02*
Y327666D01*
X-592330Y310166D02*
X-582830D01*
X-592330Y327666D02*
X-582830D01*
X-602426Y246964D02*
X-584926D01*
X-602426Y256464D02*
X-584926D01*
Y246964D02*
Y256464D01*
X-602426Y246964D02*
Y256464D01*
X-505449Y457124D02*
Y474624D01*
X-514949Y457124D02*
Y474624D01*
X-505449D01*
X-514949Y457124D02*
X-505449D01*
X-385050D02*
Y474624D01*
X-394549Y457124D02*
Y474624D01*
X-385050D01*
X-394549Y457124D02*
X-385050D01*
X-38000Y304324D02*
Y321824D01*
X-47500Y304324D02*
Y321824D01*
X-38000D01*
X-47500Y304324D02*
X-38000D01*
X-22760Y291224D02*
Y308724D01*
X-32260Y291224D02*
Y308724D01*
X-22760D01*
X-32260Y291224D02*
X-22760D01*
X-386492Y278870D02*
X-376992Y288370D01*
Y278870D02*
Y307870D01*
X-389991D02*
X-376992D01*
X-389991Y278870D02*
Y307870D01*
Y278870D02*
X-376992D01*
X-323951Y298370D02*
X-314452Y307870D01*
X-323951Y278870D02*
Y307870D01*
Y278870D02*
X-310951D01*
Y307870D01*
X-323951D02*
X-310951D01*
X-32260Y219824D02*
X-22760D01*
X-32260Y202324D02*
X-22760D01*
Y219824D01*
X-32260Y202324D02*
Y219824D01*
X-371940Y414604D02*
Y424104D01*
X-354440Y414604D02*
Y424104D01*
X-371940D02*
X-354440D01*
X-371940Y414604D02*
X-354440D01*
X-307850Y362464D02*
X-298350D01*
X-307850Y344964D02*
X-298350D01*
Y362464D01*
X-307850Y344964D02*
Y362464D01*
X-313762Y263474D02*
Y272974D01*
X-331262Y263474D02*
Y272974D01*
Y263474D02*
X-313762D01*
X-331262Y272974D02*
X-313762D01*
X-643130Y253244D02*
X-633630D01*
X-643130Y235744D02*
X-633630D01*
Y253244D01*
X-643130Y235744D02*
Y253244D01*
X-500960Y376504D02*
Y386004D01*
X-518460Y376504D02*
Y386004D01*
Y376504D02*
X-500960D01*
X-518460Y386004D02*
X-500960D01*
X-481840Y399174D02*
X-472340D01*
X-481840Y416674D02*
X-472340D01*
X-481840Y399174D02*
Y416674D01*
X-472340Y399174D02*
Y416674D01*
X-556986Y246964D02*
Y256464D01*
X-574486Y246964D02*
Y256464D01*
Y246964D02*
X-556986D01*
X-574486Y256464D02*
X-556986D01*
X-557240Y307797D02*
Y317297D01*
X-574740Y307797D02*
Y317297D01*
Y307797D02*
X-557240D01*
X-574740Y317297D02*
X-557240D01*
X-617920Y297764D02*
Y307264D01*
X-600420Y297764D02*
Y307264D01*
X-617920D02*
X-600420D01*
X-617920Y297764D02*
X-600420D01*
M02*
