M48
;Layer_Color=9474304
;FILE_FORMAT=4:4
METRIC,LZ
;TYPE=PLATED
T01F00S00C0.3000
T02F00S00C0.3048
T03F00S00C0.3556
T05F00S00C0.7620
T06F00S00C2.5000
;TYPE=NON_PLATED
T07F00S00C0.6500
T08F00S00C2.4000
%
T01
X-0083205Y00058046
X-0076855
X-0070505
Y00185046
X-0076855
X-0083205
X-008003Y00248546
Y00121546
X-0064155Y00185046
X-0057805
X-0051455
Y00058046
X-0045105
X-0038755
X-0032405
X-0057805
X-0064155
X-0026055
X-0019705
X-0013355
X-0007005
Y00185046
X-001653Y00248546
X-0024722Y00256794
X-0025611Y00280924
Y00293624
Y00306324
Y00319024
Y00331724
Y00344424
Y00357124
Y00369824
Y00382524
Y00395224
X-001018Y00375546
X-0007831Y00395224
Y00407924
X-00089486Y00424942
X-0004275Y0038735
X-0002116Y00452374
X-0001227Y00251714
X-0007831Y00280924
X-00284558Y00295656
X-00303129Y00325044
X-00374249
X-00387936Y00264414
X-00445086Y00280416
X-0050503Y00277114
X-00512444Y00298479
X-0053932Y00292354
X-0053424Y00269494
X-0053932Y00261874
X-006587Y00273304
X-0064155Y00439046
X-00539874Y00455335
X-00557354Y00495046
X-00452706Y00503936
X-00474Y00442489
X-00425279Y00442489
X-0038755Y00439046
X-0032405
X-0033104Y00415544
X-0034374
X-0070505Y00439046
X-0067648Y00261874
T02
X-0057733Y00277732
Y00287892
X-0056717
Y00277732
T03
X-0002751Y00344424
X-0030691Y00490346
X-00575713Y00403739
X-0086952Y00429514
T05
X-00796383Y0028067
Y0030607
Y0033147
Y0035687
Y0038227
Y0040767
X-00770983
Y0038227
Y0035687
Y0033147
Y0030607
Y0028067
T06
X-0087Y0003
X-0003
Y00491044
X-0087
T07
X-004789Y00470773
X-004211Y00470763
T08
X-000916Y00038364
M30
